<svg width="437" height="314" viewBox="0 0 437 314" fill="none" xmlns="http://www.w3.org/2000/svg">
<g filter="url(#filter0_d_1_15)">
<path d="M226.411 36.555C224.758 36.555 223.217 36.259 221.786 35.667C220.38 35.075 219.147 34.2117 218.086 33.077C217.05 31.9423 216.224 30.5487 215.607 28.896C215.015 27.2187 214.719 25.307 214.719 23.161C214.719 21.015 215.04 19.1157 215.681 17.463C216.347 15.7857 217.223 14.3797 218.308 13.245C219.393 12.1103 220.651 11.2593 222.082 10.692C223.513 10.1 225.005 9.804 226.559 9.804C227.521 9.804 228.397 9.86567 229.186 9.989C229.975 10.1123 230.666 10.2727 231.258 10.47C231.85 10.6427 232.356 10.8277 232.775 11.025C233.194 11.1977 233.515 11.358 233.737 11.506L232.923 13.689C232.306 13.319 231.517 12.9613 230.555 12.616C229.618 12.246 228.446 12.061 227.04 12.061C225.437 12.061 224.031 12.3323 222.822 12.875C221.638 13.4177 220.639 14.1823 219.825 15.169C219.011 16.1557 218.394 17.3273 217.975 18.684C217.58 20.0407 217.383 21.5453 217.383 23.198C217.383 24.9 217.58 26.4417 217.975 27.823C218.394 29.1797 218.999 30.339 219.788 31.301C220.577 32.263 221.539 33.003 222.674 33.521C223.833 34.039 225.153 34.298 226.633 34.298C228.261 34.298 229.618 34.15 230.703 33.854C231.813 33.5333 232.652 33.2127 233.219 32.892L233.922 35.038C233.749 35.1613 233.453 35.3093 233.034 35.482C232.615 35.63 232.084 35.7903 231.443 35.963C230.802 36.1357 230.062 36.2713 229.223 36.37C228.384 36.4933 227.447 36.555 226.411 36.555ZM270.862 36.555C269.16 36.555 267.705 36.296 266.496 35.778C265.312 35.26 264.35 34.5447 263.61 33.632C262.87 32.7193 262.327 31.6587 261.982 30.45C261.661 29.2167 261.501 27.897 261.501 26.491V10.359H264.017V26.158C264.017 27.564 264.177 28.785 264.498 29.821C264.843 30.8323 265.312 31.671 265.904 32.337C266.496 33.003 267.211 33.4963 268.05 33.817C268.889 34.1377 269.826 34.298 270.862 34.298C271.898 34.298 272.835 34.1377 273.674 33.817C274.513 33.4963 275.228 33.003 275.82 32.337C276.412 31.671 276.868 30.8323 277.189 29.821C277.534 28.785 277.707 27.564 277.707 26.158V10.359H280.223V26.491C280.223 27.897 280.05 29.2167 279.705 30.45C279.384 31.6587 278.854 32.7193 278.114 33.632C277.374 34.5447 276.4 35.26 275.191 35.778C274.007 36.296 272.564 36.555 270.862 36.555ZM327.164 18.055C327.164 19.979 326.659 21.496 325.647 22.606C324.636 23.716 323.304 24.5177 321.651 25.011C322.046 25.5043 322.552 26.1703 323.168 27.009C323.81 27.8477 324.463 28.7727 325.129 29.784C325.795 30.7707 326.449 31.8067 327.09 32.892C327.732 33.9773 328.274 35.0133 328.718 36H326.017C325.499 35.0133 324.932 34.0267 324.315 33.04C323.723 32.0533 323.107 31.1037 322.465 30.191C321.849 29.2537 321.244 28.3903 320.652 27.601C320.06 26.8117 319.542 26.121 319.098 25.529C318.309 25.603 317.52 25.64 316.73 25.64H312.586V36H310.07V10.84C310.958 10.5933 311.994 10.4207 313.178 10.322C314.387 10.1987 315.497 10.137 316.508 10.137C320.036 10.137 322.687 10.803 324.463 12.135C326.264 13.467 327.164 15.4403 327.164 18.055ZM316.804 12.32C315.867 12.32 315.041 12.357 314.325 12.431C313.635 12.4803 313.055 12.5297 312.586 12.579V23.494H316.064C317.224 23.494 318.321 23.4447 319.357 23.346C320.393 23.2227 321.294 22.976 322.058 22.606C322.823 22.2113 323.427 21.6563 323.871 20.941C324.315 20.2257 324.537 19.2513 324.537 18.018C324.537 16.8833 324.315 15.946 323.871 15.206C323.427 14.466 322.848 13.8863 322.132 13.467C321.417 13.023 320.591 12.727 319.653 12.579C318.741 12.4063 317.791 12.32 316.804 12.32ZM361.765 34.372C363.763 34.372 365.317 34.0143 366.427 33.299C367.537 32.559 368.092 31.375 368.092 29.747C368.092 28.8097 367.907 28.0327 367.537 27.416C367.192 26.7747 366.723 26.2443 366.131 25.825C365.539 25.381 364.861 25.011 364.096 24.715C363.332 24.3943 362.53 24.0613 361.691 23.716C360.631 23.2967 359.681 22.865 358.842 22.421C358.004 21.977 357.288 21.4837 356.696 20.941C356.104 20.3737 355.648 19.7323 355.327 19.017C355.031 18.3017 354.883 17.463 354.883 16.501C354.883 14.3057 355.611 12.6407 357.066 11.506C358.522 10.3713 360.544 9.804 363.134 9.804C363.825 9.804 364.503 9.85333 365.169 9.952C365.835 10.0507 366.452 10.1863 367.019 10.359C367.611 10.507 368.142 10.6797 368.61 10.877C369.104 11.0743 369.511 11.284 369.831 11.506L368.943 13.615C368.228 13.1217 367.352 12.727 366.316 12.431C365.305 12.135 364.207 11.987 363.023 11.987C362.209 11.987 361.457 12.0733 360.766 12.246C360.1 12.394 359.521 12.653 359.027 13.023C358.534 13.3683 358.139 13.8123 357.843 14.355C357.572 14.8977 357.436 15.5513 357.436 16.316C357.436 17.1053 357.584 17.7713 357.88 18.314C358.176 18.8567 358.583 19.3253 359.101 19.72C359.644 20.1147 360.273 20.4723 360.988 20.793C361.704 21.1137 362.481 21.4467 363.319 21.792C364.331 22.2113 365.28 22.6307 366.168 23.05C367.081 23.4693 367.87 23.9627 368.536 24.53C369.202 25.0973 369.733 25.788 370.127 26.602C370.522 27.416 370.719 28.415 370.719 29.599C370.719 31.9177 369.905 33.6567 368.277 34.816C366.674 35.9753 364.491 36.555 361.728 36.555C360.742 36.555 359.841 36.4933 359.027 36.37C358.213 36.2467 357.486 36.0987 356.844 35.926C356.203 35.7287 355.66 35.5313 355.216 35.334C354.772 35.1367 354.427 34.964 354.18 34.816L354.994 32.633C355.241 32.781 355.574 32.9537 355.993 33.151C356.413 33.3483 356.906 33.5457 357.473 33.743C358.041 33.9157 358.682 34.0637 359.397 34.187C360.113 34.3103 360.902 34.372 361.765 34.372ZM421.691 23.161C421.691 25.3563 421.37 27.2927 420.729 28.97C420.087 30.6473 419.212 32.0533 418.102 33.188C417.016 34.298 415.746 35.1367 414.291 35.704C412.835 36.2713 411.294 36.555 409.666 36.555C408.038 36.555 406.496 36.2713 405.041 35.704C403.585 35.1367 402.303 34.298 401.193 33.188C400.107 32.0533 399.244 30.6473 398.603 28.97C397.961 27.2927 397.641 25.3563 397.641 23.161C397.641 20.9657 397.961 19.0417 398.603 17.389C399.244 15.7117 400.107 14.318 401.193 13.208C402.303 12.0733 403.585 11.2223 405.041 10.655C406.496 10.0877 408.038 9.804 409.666 9.804C411.294 9.804 412.835 10.0877 414.291 10.655C415.746 11.2223 417.016 12.0733 418.102 13.208C419.212 14.318 420.087 15.7117 420.729 17.389C421.37 19.0417 421.691 20.9657 421.691 23.161ZM419.027 23.161C419.027 21.4343 418.805 19.8927 418.361 18.536C417.917 17.1547 417.288 15.983 416.474 15.021C415.66 14.059 414.673 13.3313 413.514 12.838C412.379 12.32 411.096 12.061 409.666 12.061C408.235 12.061 406.94 12.32 405.781 12.838C404.646 13.3313 403.672 14.059 402.858 15.021C402.044 15.983 401.415 17.1547 400.971 18.536C400.527 19.8927 400.305 21.4343 400.305 23.161C400.305 24.8877 400.527 26.4417 400.971 27.823C401.415 29.1797 402.044 30.339 402.858 31.301C403.672 32.263 404.646 33.003 405.781 33.521C406.94 34.039 408.235 34.298 409.666 34.298C411.096 34.298 412.379 34.039 413.514 33.521C414.673 33.003 415.66 32.263 416.474 31.301C417.288 30.339 417.917 29.1797 418.361 27.823C418.805 26.4417 419.027 24.8877 419.027 23.161Z" fill="#FFF6A4"/>
<path d="M198.828 101C198.249 99.3053 197.65 97.6313 197.03 95.978C196.41 94.3247 195.811 92.63 195.232 90.894H177.128C176.549 92.63 175.95 94.3453 175.33 96.04C174.751 97.6933 174.173 99.3467 173.594 101H165.472C167.084 96.412 168.613 92.1753 170.06 88.29C171.507 84.4047 172.912 80.726 174.276 77.254C175.681 73.782 177.066 70.4753 178.43 67.334C179.794 64.1927 181.199 61.0927 182.646 58.034H190.024C191.471 61.0927 192.876 64.1927 194.24 67.334C195.604 70.4753 196.968 73.782 198.332 77.254C199.737 80.726 201.163 84.4047 202.61 88.29C204.098 92.1753 205.648 96.412 207.26 101H198.828ZM186.18 66.342C185.229 68.5327 184.134 71.1987 182.894 74.34C181.695 77.4813 180.435 80.8913 179.112 84.57H193.248C191.925 80.8913 190.644 77.4607 189.404 74.278C188.164 71.0953 187.089 68.45 186.18 66.342ZM211.644 60.018L219.146 58.778V68.574H230.678V74.836H219.146V88.042C219.146 90.646 219.56 92.506 220.386 93.622C221.213 94.738 222.618 95.296 224.602 95.296C225.966 95.296 227.165 95.1513 228.198 94.862C229.273 94.5727 230.12 94.304 230.74 94.056L231.98 100.008C231.112 100.38 229.976 100.752 228.57 101.124C227.165 101.537 225.512 101.744 223.61 101.744C221.296 101.744 219.353 101.434 217.782 100.814C216.253 100.194 215.034 99.3053 214.124 98.148C213.215 96.9493 212.574 95.5233 212.202 93.87C211.83 92.1753 211.644 90.2533 211.644 88.104V60.018ZM235.587 84.942C235.587 82.09 236.001 79.5893 236.827 77.44C237.695 75.2907 238.832 73.5133 240.237 72.108C241.643 70.6613 243.255 69.5867 245.073 68.884C246.892 68.14 248.752 67.768 250.653 67.768C255.117 67.768 258.589 69.1527 261.069 71.922C263.591 74.6913 264.851 78.8247 264.851 84.322C264.851 84.7353 264.831 85.2107 264.789 85.748C264.789 86.244 264.769 86.6987 264.727 87.112H243.337C243.544 89.716 244.453 91.7413 246.065 93.188C247.719 94.5933 250.095 95.296 253.195 95.296C255.014 95.296 256.667 95.1307 258.155 94.8C259.685 94.4693 260.883 94.118 261.751 93.746L262.743 99.884C262.33 100.091 261.751 100.318 261.007 100.566C260.305 100.773 259.478 100.959 258.527 101.124C257.618 101.331 256.626 101.496 255.551 101.62C254.477 101.744 253.381 101.806 252.265 101.806C249.413 101.806 246.933 101.393 244.825 100.566C242.717 99.698 240.981 98.52 239.617 97.032C238.253 95.5027 237.241 93.7253 236.579 91.7C235.918 89.6333 235.587 87.3807 235.587 84.942ZM257.349 81.594C257.349 80.5607 257.205 79.5893 256.915 78.68C256.626 77.7293 256.192 76.9233 255.613 76.262C255.076 75.5593 254.394 75.022 253.567 74.65C252.782 74.2367 251.831 74.03 250.715 74.03C249.558 74.03 248.545 74.2573 247.677 74.712C246.809 75.1253 246.065 75.6833 245.445 76.386C244.867 77.0887 244.412 77.8947 244.081 78.804C243.751 79.7133 243.523 80.6433 243.399 81.594H257.349ZM272.805 69.628C274.252 69.2147 276.133 68.822 278.447 68.45C280.762 68.078 283.325 67.892 286.135 67.892C288.781 67.892 290.992 68.264 292.769 69.008C294.547 69.7107 295.952 70.7233 296.985 72.046C298.06 73.3273 298.804 74.898 299.217 76.758C299.672 78.5767 299.899 80.5813 299.899 82.772V101H292.397V83.95C292.397 82.214 292.273 80.7467 292.025 79.548C291.819 78.308 291.447 77.316 290.909 76.572C290.413 75.7867 289.711 75.2287 288.801 74.898C287.933 74.526 286.859 74.34 285.577 74.34C284.627 74.34 283.635 74.402 282.601 74.526C281.568 74.65 280.803 74.7533 280.307 74.836V101H272.805V69.628ZM307.275 84.818C307.275 82.4207 307.647 80.1887 308.391 78.122C309.135 76.014 310.189 74.1953 311.553 72.666C312.958 71.1367 314.653 69.938 316.637 69.07C318.621 68.202 320.853 67.768 323.333 67.768C326.391 67.768 329.285 68.326 332.013 69.442L330.401 75.58C329.533 75.208 328.541 74.898 327.425 74.65C326.35 74.402 325.193 74.278 323.953 74.278C321.018 74.278 318.786 75.208 317.257 77.068C315.727 78.8867 314.963 81.47 314.963 84.818C314.963 88.042 315.686 90.6047 317.133 92.506C318.579 94.366 321.018 95.296 324.449 95.296C325.73 95.296 326.991 95.172 328.231 94.924C329.471 94.676 330.545 94.366 331.455 93.994L332.509 100.194C331.682 100.607 330.421 100.979 328.727 101.31C327.073 101.641 325.358 101.806 323.581 101.806C320.811 101.806 318.393 101.393 316.327 100.566C314.301 99.698 312.607 98.52 311.243 97.032C309.92 95.5027 308.928 93.7047 308.267 91.638C307.605 89.53 307.275 87.2567 307.275 84.818ZM345.881 101H338.379V68.574H345.881V101ZM346.687 59.088C346.687 60.4933 346.232 61.6093 345.323 62.436C344.414 63.2627 343.339 63.676 342.099 63.676C340.818 63.676 339.722 63.2627 338.813 62.436C337.904 61.6093 337.449 60.4933 337.449 59.088C337.449 57.6413 337.904 56.5047 338.813 55.678C339.722 54.8513 340.818 54.438 342.099 54.438C343.339 54.438 344.414 54.8513 345.323 55.678C346.232 56.5047 346.687 57.6413 346.687 59.088ZM384.778 84.756C384.778 87.3187 384.406 89.654 383.662 91.762C382.918 93.87 381.864 95.668 380.5 97.156C379.136 98.644 377.482 99.8013 375.54 100.628C373.638 101.455 371.53 101.868 369.216 101.868C366.901 101.868 364.793 101.455 362.892 100.628C360.99 99.8013 359.358 98.644 357.994 97.156C356.63 95.668 355.555 93.87 354.77 91.762C354.026 89.654 353.654 87.3187 353.654 84.756C353.654 82.1933 354.026 79.8787 354.77 77.812C355.555 75.704 356.63 73.906 357.994 72.418C359.399 70.93 361.052 69.7933 362.954 69.008C364.855 68.1813 366.942 67.768 369.216 67.768C371.489 67.768 373.576 68.1813 375.478 69.008C377.42 69.7933 379.074 70.93 380.438 72.418C381.802 73.906 382.856 75.704 383.6 77.812C384.385 79.8787 384.778 82.1933 384.778 84.756ZM377.09 84.756C377.09 81.532 376.387 78.99 374.982 77.13C373.618 75.2287 371.696 74.278 369.216 74.278C366.736 74.278 364.793 75.2287 363.388 77.13C362.024 78.99 361.342 81.532 361.342 84.756C361.342 88.0213 362.024 90.6047 363.388 92.506C364.793 94.4073 366.736 95.358 369.216 95.358C371.696 95.358 373.618 94.4073 374.982 92.506C376.387 90.6047 377.09 88.0213 377.09 84.756ZM377.338 55.306L367.232 65.102L363.512 61.754L372.626 50.904L377.338 55.306ZM392.506 69.628C393.953 69.2147 395.834 68.822 398.148 68.45C400.463 68.078 403.026 67.892 405.836 67.892C408.482 67.892 410.693 68.264 412.47 69.008C414.248 69.7107 415.653 70.7233 416.686 72.046C417.761 73.3273 418.505 74.898 418.918 76.758C419.373 78.5767 419.6 80.5813 419.6 82.772V101H412.098V83.95C412.098 82.214 411.974 80.7467 411.726 79.548C411.52 78.308 411.148 77.316 410.61 76.572C410.114 75.7867 409.412 75.2287 408.502 74.898C407.634 74.526 406.56 74.34 405.278 74.34C404.328 74.34 403.336 74.402 402.302 74.526C401.269 74.65 400.504 74.7533 400.008 74.836V101H392.506V69.628ZM66.0445 117.888C67.7805 117.888 69.3098 118.053 70.6325 118.384C71.9551 118.673 72.9471 118.942 73.6085 119.19L72.1825 125.39C71.4798 125.059 70.6531 124.791 69.7025 124.584C68.7931 124.377 67.8011 124.274 66.7265 124.274C65.5278 124.274 64.5151 124.46 63.6885 124.832C62.8618 125.163 62.2005 125.638 61.7045 126.258C61.2085 126.878 60.8571 127.643 60.6505 128.552C60.4438 129.42 60.3405 130.371 60.3405 131.404V133.574H72.1205V139.836H60.3405V166H52.8385V131.28C52.8385 127.105 53.9338 123.84 56.1245 121.484C58.3151 119.087 61.6218 117.888 66.0445 117.888ZM89.0707 160.73C91.3853 160.73 93.142 160.606 94.3407 160.358V152.05C93.9273 151.926 93.328 151.802 92.5427 151.678C91.7573 151.554 90.8893 151.492 89.9387 151.492C89.112 151.492 88.2647 151.554 87.3967 151.678C86.57 151.802 85.8053 152.029 85.1027 152.36C84.4413 152.691 83.904 153.166 83.4907 153.786C83.0773 154.365 82.8707 155.109 82.8707 156.018C82.8707 157.795 83.4287 159.035 84.5447 159.738C85.6607 160.399 87.1693 160.73 89.0707 160.73ZM88.4507 132.768C90.9307 132.768 93.018 133.078 94.7127 133.698C96.4073 134.318 97.7507 135.186 98.7427 136.302C99.776 137.418 100.499 138.782 100.913 140.394C101.367 141.965 101.595 143.701 101.595 145.602V165.256C100.437 165.504 98.6807 165.793 96.3247 166.124C94.01 166.496 91.3853 166.682 88.4507 166.682C86.508 166.682 84.7307 166.496 83.1187 166.124C81.5067 165.752 80.122 165.153 78.9647 164.326C77.8487 163.499 76.96 162.425 76.2987 161.102C75.6787 159.779 75.3687 158.147 75.3687 156.204C75.3687 154.344 75.72 152.773 76.4227 151.492C77.1667 150.211 78.1587 149.177 79.3987 148.392C80.6387 147.565 82.0647 146.987 83.6767 146.656C85.33 146.284 87.0453 146.098 88.8227 146.098C89.6493 146.098 90.5173 146.16 91.4267 146.284C92.336 146.367 93.3073 146.532 94.3407 146.78V145.54C94.3407 144.672 94.2373 143.845 94.0307 143.06C93.824 142.275 93.452 141.593 92.9147 141.014C92.4187 140.394 91.7367 139.919 90.8687 139.588C90.042 139.257 88.988 139.092 87.7067 139.092C85.9707 139.092 84.3793 139.216 82.9327 139.464C81.486 139.712 80.308 140.001 79.3987 140.332L78.4687 134.256C79.4193 133.925 80.804 133.595 82.6227 133.264C84.4413 132.933 86.384 132.768 88.4507 132.768ZM129.258 140.332C128.638 140.125 127.77 139.919 126.654 139.712C125.579 139.464 124.318 139.34 122.872 139.34C122.045 139.34 121.156 139.423 120.206 139.588C119.296 139.753 118.656 139.898 118.284 140.022V166H110.782V135.124C112.228 134.587 114.026 134.091 116.176 133.636C118.366 133.14 120.784 132.892 123.43 132.892C123.926 132.892 124.504 132.933 125.166 133.016C125.827 133.057 126.488 133.14 127.15 133.264C127.811 133.347 128.452 133.471 129.072 133.636C129.692 133.76 130.188 133.884 130.56 134.008L129.258 140.332ZM154.264 148.95C154.264 145.561 153.83 143.122 152.962 141.634C152.135 140.105 150.564 139.34 148.25 139.34C147.423 139.34 146.514 139.402 145.522 139.526C144.53 139.65 143.786 139.753 143.29 139.836V166H135.788V134.628C137.234 134.215 139.115 133.822 141.43 133.45C143.786 133.078 146.266 132.892 148.87 132.892C151.102 132.892 152.92 133.181 154.326 133.76C155.772 134.339 156.971 135.103 157.922 136.054C158.376 135.723 158.955 135.372 159.658 135C160.36 134.628 161.146 134.297 162.014 134.008C162.882 133.677 163.791 133.409 164.742 133.202C165.734 132.995 166.726 132.892 167.718 132.892C170.239 132.892 172.306 133.264 173.918 134.008C175.571 134.711 176.852 135.723 177.762 137.046C178.712 138.327 179.353 139.898 179.684 141.758C180.056 143.577 180.242 145.581 180.242 147.772V166H172.74V148.95C172.74 145.561 172.326 143.122 171.5 141.634C170.673 140.105 169.082 139.34 166.726 139.34C165.527 139.34 164.39 139.547 163.316 139.96C162.241 140.332 161.435 140.704 160.898 141.076C161.228 142.109 161.456 143.205 161.58 144.362C161.704 145.519 161.766 146.759 161.766 148.082V166H154.264V148.95ZM200.84 160.73C203.155 160.73 204.912 160.606 206.11 160.358V152.05C205.697 151.926 205.098 151.802 204.312 151.678C203.527 151.554 202.659 151.492 201.708 151.492C200.882 151.492 200.034 151.554 199.166 151.678C198.34 151.802 197.575 152.029 196.872 152.36C196.211 152.691 195.674 153.166 195.26 153.786C194.847 154.365 194.64 155.109 194.64 156.018C194.64 157.795 195.198 159.035 196.314 159.738C197.43 160.399 198.939 160.73 200.84 160.73ZM200.22 132.768C202.7 132.768 204.788 133.078 206.482 133.698C208.177 134.318 209.52 135.186 210.512 136.302C211.546 137.418 212.269 138.782 212.682 140.394C213.137 141.965 213.364 143.701 213.364 145.602V165.256C212.207 165.504 210.45 165.793 208.094 166.124C205.78 166.496 203.155 166.682 200.22 166.682C198.278 166.682 196.5 166.496 194.888 166.124C193.276 165.752 191.892 165.153 190.734 164.326C189.618 163.499 188.73 162.425 188.068 161.102C187.448 159.779 187.138 158.147 187.138 156.204C187.138 154.344 187.49 152.773 188.192 151.492C188.936 150.211 189.928 149.177 191.168 148.392C192.408 147.565 193.834 146.987 195.446 146.656C197.1 146.284 198.815 146.098 200.592 146.098C201.419 146.098 202.287 146.16 203.196 146.284C204.106 146.367 205.077 146.532 206.11 146.78V145.54C206.11 144.672 206.007 143.845 205.8 143.06C205.594 142.275 205.222 141.593 204.684 141.014C204.188 140.394 203.506 139.919 202.638 139.588C201.812 139.257 200.758 139.092 199.476 139.092C197.74 139.092 196.149 139.216 194.702 139.464C193.256 139.712 192.078 140.001 191.168 140.332L190.238 134.256C191.189 133.925 192.574 133.595 194.392 133.264C196.211 132.933 198.154 132.768 200.22 132.768ZM220.753 149.818C220.753 147.421 221.125 145.189 221.869 143.122C222.613 141.014 223.667 139.195 225.031 137.666C226.437 136.137 228.131 134.938 230.115 134.07C232.099 133.202 234.331 132.768 236.811 132.768C239.87 132.768 242.763 133.326 245.491 134.442L243.879 140.58C243.011 140.208 242.019 139.898 240.903 139.65C239.829 139.402 238.671 139.278 237.431 139.278C234.497 139.278 232.265 140.208 230.735 142.068C229.206 143.887 228.441 146.47 228.441 149.818C228.441 153.042 229.165 155.605 230.611 157.506C232.058 159.366 234.497 160.296 237.927 160.296C239.209 160.296 240.469 160.172 241.709 159.924C242.949 159.676 244.024 159.366 244.933 158.994L245.987 165.194C245.161 165.607 243.9 165.979 242.205 166.31C240.552 166.641 238.837 166.806 237.059 166.806C234.29 166.806 231.872 166.393 229.805 165.566C227.78 164.698 226.085 163.52 224.721 162.032C223.399 160.503 222.407 158.705 221.745 156.638C221.084 154.53 220.753 152.257 220.753 149.818ZM249.997 149.942C249.997 147.09 250.411 144.589 251.237 142.44C252.105 140.291 253.242 138.513 254.647 137.108C256.053 135.661 257.665 134.587 259.483 133.884C261.302 133.14 263.162 132.768 265.063 132.768C269.527 132.768 272.999 134.153 275.479 136.922C278.001 139.691 279.261 143.825 279.261 149.322C279.261 149.735 279.241 150.211 279.199 150.748C279.199 151.244 279.179 151.699 279.137 152.112H257.747C257.954 154.716 258.863 156.741 260.475 158.188C262.129 159.593 264.505 160.296 267.605 160.296C269.424 160.296 271.077 160.131 272.565 159.8C274.095 159.469 275.293 159.118 276.161 158.746L277.153 164.884C276.74 165.091 276.161 165.318 275.417 165.566C274.715 165.773 273.888 165.959 272.937 166.124C272.028 166.331 271.036 166.496 269.961 166.62C268.887 166.744 267.791 166.806 266.675 166.806C263.823 166.806 261.343 166.393 259.235 165.566C257.127 164.698 255.391 163.52 254.027 162.032C252.663 160.503 251.651 158.725 250.989 156.7C250.328 154.633 249.997 152.381 249.997 149.942ZM271.759 146.594C271.759 145.561 271.615 144.589 271.325 143.68C271.036 142.729 270.602 141.923 270.023 141.262C269.486 140.559 268.804 140.022 267.977 139.65C267.192 139.237 266.241 139.03 265.125 139.03C263.968 139.03 262.955 139.257 262.087 139.712C261.219 140.125 260.475 140.683 259.855 141.386C259.277 142.089 258.822 142.895 258.491 143.804C258.161 144.713 257.933 145.643 257.809 146.594H271.759ZM273.061 120.306L262.955 130.102L259.235 126.754L268.349 115.904L273.061 120.306ZM313.813 165.008C312.367 165.38 310.486 165.752 308.171 166.124C305.857 166.537 303.315 166.744 300.545 166.744C297.941 166.744 295.751 166.372 293.973 165.628C292.237 164.884 290.832 163.851 289.757 162.528C288.724 161.205 287.98 159.635 287.525 157.816C287.071 155.956 286.843 153.931 286.843 151.74V133.574H294.345V150.562C294.345 154.034 294.841 156.514 295.833 158.002C296.867 159.49 298.644 160.234 301.165 160.234C302.075 160.234 303.025 160.193 304.017 160.11C305.051 160.027 305.815 159.924 306.311 159.8V133.574H313.813V165.008ZM322.99 125.018L330.492 123.778V133.574H342.024V139.836H330.492V153.042C330.492 155.646 330.905 157.506 331.732 158.622C332.559 159.738 333.964 160.296 335.948 160.296C337.312 160.296 338.511 160.151 339.544 159.862C340.619 159.573 341.466 159.304 342.086 159.056L343.326 165.008C342.458 165.38 341.321 165.752 339.916 166.124C338.511 166.537 336.857 166.744 334.956 166.744C332.641 166.744 330.699 166.434 329.128 165.814C327.599 165.194 326.379 164.305 325.47 163.148C324.561 161.949 323.92 160.523 323.548 158.87C323.176 157.175 322.99 155.253 322.99 153.104V125.018ZM356.84 166H349.338V133.574H356.84V166ZM357.646 124.088C357.646 125.493 357.191 126.609 356.282 127.436C355.373 128.263 354.298 128.676 353.058 128.676C351.777 128.676 350.681 128.263 349.772 127.436C348.863 126.609 348.408 125.493 348.408 124.088C348.408 122.641 348.863 121.505 349.772 120.678C350.681 119.851 351.777 119.438 353.058 119.438C354.298 119.438 355.373 119.851 356.282 120.678C357.191 121.505 357.646 122.641 357.646 124.088ZM364.613 149.818C364.613 147.421 364.985 145.189 365.729 143.122C366.473 141.014 367.527 139.195 368.891 137.666C370.296 136.137 371.991 134.938 373.975 134.07C375.959 133.202 378.191 132.768 380.671 132.768C383.729 132.768 386.623 133.326 389.351 134.442L387.739 140.58C386.871 140.208 385.879 139.898 384.763 139.65C383.688 139.402 382.531 139.278 381.291 139.278C378.356 139.278 376.124 140.208 374.595 142.068C373.065 143.887 372.301 146.47 372.301 149.818C372.301 153.042 373.024 155.605 374.471 157.506C375.917 159.366 378.356 160.296 381.787 160.296C383.068 160.296 384.329 160.172 385.569 159.924C386.809 159.676 387.883 159.366 388.793 158.994L389.847 165.194C389.02 165.607 387.759 165.979 386.065 166.31C384.411 166.641 382.696 166.806 380.919 166.806C378.149 166.806 375.731 166.393 373.665 165.566C371.639 164.698 369.945 163.52 368.581 162.032C367.258 160.503 366.266 158.705 365.605 156.638C364.943 154.53 364.613 152.257 364.613 149.818ZM407.063 160.73C409.378 160.73 411.134 160.606 412.333 160.358V152.05C411.92 151.926 411.32 151.802 410.535 151.678C409.75 151.554 408.882 151.492 407.931 151.492C407.104 151.492 406.257 151.554 405.389 151.678C404.562 151.802 403.798 152.029 403.095 152.36C402.434 152.691 401.896 153.166 401.483 153.786C401.07 154.365 400.863 155.109 400.863 156.018C400.863 157.795 401.421 159.035 402.537 159.738C403.653 160.399 405.162 160.73 407.063 160.73ZM406.443 132.768C408.923 132.768 411.01 133.078 412.705 133.698C414.4 134.318 415.743 135.186 416.735 136.302C417.768 137.418 418.492 138.782 418.905 140.394C419.36 141.965 419.587 143.701 419.587 145.602V165.256C418.43 165.504 416.673 165.793 414.317 166.124C412.002 166.496 409.378 166.682 406.443 166.682C404.5 166.682 402.723 166.496 401.111 166.124C399.499 165.752 398.114 165.153 396.957 164.326C395.841 163.499 394.952 162.425 394.291 161.102C393.671 159.779 393.361 158.147 393.361 156.204C393.361 154.344 393.712 152.773 394.415 151.492C395.159 150.211 396.151 149.177 397.391 148.392C398.631 147.565 400.057 146.987 401.669 146.656C403.322 146.284 405.038 146.098 406.815 146.098C407.642 146.098 408.51 146.16 409.419 146.284C410.328 146.367 411.3 146.532 412.333 146.78V145.54C412.333 144.672 412.23 143.845 412.023 143.06C411.816 142.275 411.444 141.593 410.907 141.014C410.411 140.394 409.729 139.919 408.861 139.588C408.034 139.257 406.98 139.092 405.699 139.092C403.963 139.092 402.372 139.216 400.925 139.464C399.478 139.712 398.3 140.001 397.391 140.332L396.461 134.256C397.412 133.925 398.796 133.595 400.615 133.264C402.434 132.933 404.376 132.768 406.443 132.768ZM187.876 214.942C187.876 212.09 188.29 209.589 189.116 207.44C189.984 205.291 191.121 203.513 192.526 202.108C193.932 200.661 195.544 199.587 197.362 198.884C199.181 198.14 201.041 197.768 202.942 197.768C207.406 197.768 210.878 199.153 213.358 201.922C215.88 204.691 217.14 208.825 217.14 214.322C217.14 214.735 217.12 215.211 217.078 215.748C217.078 216.244 217.058 216.699 217.016 217.112H195.626C195.833 219.716 196.742 221.741 198.354 223.188C200.008 224.593 202.384 225.296 205.484 225.296C207.303 225.296 208.956 225.131 210.444 224.8C211.974 224.469 213.172 224.118 214.04 223.746L215.032 229.884C214.619 230.091 214.04 230.318 213.296 230.566C212.594 230.773 211.767 230.959 210.816 231.124C209.907 231.331 208.915 231.496 207.84 231.62C206.766 231.744 205.67 231.806 204.554 231.806C201.702 231.806 199.222 231.393 197.114 230.566C195.006 229.698 193.27 228.52 191.906 227.032C190.542 225.503 189.53 223.725 188.868 221.7C188.207 219.633 187.876 217.381 187.876 214.942ZM209.638 211.594C209.638 210.561 209.494 209.589 209.204 208.68C208.915 207.729 208.481 206.923 207.902 206.262C207.365 205.559 206.683 205.022 205.856 204.65C205.071 204.237 204.12 204.03 203.004 204.03C201.847 204.03 200.834 204.257 199.966 204.712C199.098 205.125 198.354 205.683 197.734 206.386C197.156 207.089 196.701 207.895 196.37 208.804C196.04 209.713 195.812 210.643 195.688 211.594H209.638ZM225.094 199.628C226.541 199.215 228.422 198.822 230.736 198.45C233.051 198.078 235.614 197.892 238.424 197.892C241.07 197.892 243.281 198.264 245.058 199.008C246.836 199.711 248.241 200.723 249.274 202.046C250.349 203.327 251.093 204.898 251.506 206.758C251.961 208.577 252.188 210.581 252.188 212.772V231H244.686V213.95C244.686 212.214 244.562 210.747 244.314 209.548C244.108 208.308 243.736 207.316 243.198 206.572C242.702 205.787 242 205.229 241.09 204.898C240.222 204.526 239.148 204.34 237.866 204.34C236.916 204.34 235.924 204.402 234.89 204.526C233.857 204.65 233.092 204.753 232.596 204.836V231H225.094V199.628ZM283.955 225.606C285.939 225.606 287.385 225.379 288.295 224.924C289.204 224.428 289.659 223.601 289.659 222.444C289.659 221.369 289.163 220.481 288.171 219.778C287.22 219.075 285.629 218.311 283.397 217.484C282.033 216.988 280.772 216.471 279.615 215.934C278.499 215.355 277.527 214.694 276.701 213.95C275.874 213.206 275.213 212.317 274.717 211.284C274.262 210.209 274.035 208.907 274.035 207.378C274.035 204.402 275.13 202.067 277.321 200.372C279.511 198.636 282.487 197.768 286.249 197.768C288.15 197.768 289.969 197.954 291.705 198.326C293.441 198.657 294.743 198.987 295.611 199.318L294.247 205.394C293.42 205.022 292.366 204.691 291.085 204.402C289.803 204.071 288.315 203.906 286.621 203.906C285.091 203.906 283.851 204.175 282.901 204.712C281.95 205.208 281.475 205.993 281.475 207.068C281.475 207.605 281.557 208.081 281.723 208.494C281.929 208.907 282.26 209.3 282.715 209.672C283.169 210.003 283.769 210.354 284.513 210.726C285.257 211.057 286.166 211.408 287.241 211.78C289.018 212.441 290.527 213.103 291.767 213.764C293.007 214.384 294.019 215.107 294.805 215.934C295.631 216.719 296.231 217.629 296.603 218.662C296.975 219.695 297.161 220.935 297.161 222.382C297.161 225.482 296.003 227.838 293.689 229.45C291.415 231.021 288.15 231.806 283.893 231.806C281.041 231.806 278.747 231.558 277.011 231.062C275.275 230.607 274.055 230.235 273.353 229.946L274.655 223.684C275.771 224.139 277.093 224.573 278.623 224.986C280.193 225.399 281.971 225.606 283.955 225.606ZM315.577 225.73C317.891 225.73 319.648 225.606 320.847 225.358V217.05C320.433 216.926 319.834 216.802 319.049 216.678C318.263 216.554 317.395 216.492 316.445 216.492C315.618 216.492 314.771 216.554 313.903 216.678C313.076 216.802 312.311 217.029 311.609 217.36C310.947 217.691 310.41 218.166 309.997 218.786C309.583 219.365 309.377 220.109 309.377 221.018C309.377 222.795 309.935 224.035 311.051 224.738C312.167 225.399 313.675 225.73 315.577 225.73ZM314.957 197.768C317.437 197.768 319.524 198.078 321.219 198.698C322.913 199.318 324.257 200.186 325.249 201.302C326.282 202.418 327.005 203.782 327.419 205.394C327.873 206.965 328.101 208.701 328.101 210.602V230.256C326.943 230.504 325.187 230.793 322.831 231.124C320.516 231.496 317.891 231.682 314.957 231.682C313.014 231.682 311.237 231.496 309.625 231.124C308.013 230.752 306.628 230.153 305.471 229.326C304.355 228.499 303.466 227.425 302.805 226.102C302.185 224.779 301.875 223.147 301.875 221.204C301.875 219.344 302.226 217.773 302.929 216.492C303.673 215.211 304.665 214.177 305.905 213.392C307.145 212.565 308.571 211.987 310.183 211.656C311.836 211.284 313.551 211.098 315.329 211.098C316.155 211.098 317.023 211.16 317.933 211.284C318.842 211.367 319.813 211.532 320.847 211.78V210.54C320.847 209.672 320.743 208.845 320.537 208.06C320.33 207.275 319.958 206.593 319.421 206.014C318.925 205.394 318.243 204.919 317.375 204.588C316.548 204.257 315.494 204.092 314.213 204.092C312.477 204.092 310.885 204.216 309.439 204.464C307.992 204.712 306.814 205.001 305.905 205.332L304.975 199.256C305.925 198.925 307.31 198.595 309.129 198.264C310.947 197.933 312.89 197.768 314.957 197.768ZM348.572 231.62C346.34 231.579 344.48 231.331 342.992 230.876C341.545 230.421 340.388 229.781 339.52 228.954C338.652 228.086 338.032 227.032 337.66 225.792C337.329 224.511 337.164 223.064 337.164 221.452V184.128L344.666 182.888V220.026C344.666 220.935 344.728 221.7 344.852 222.32C345.017 222.94 345.286 223.477 345.658 223.932C346.03 224.345 346.526 224.676 347.146 224.924C347.807 225.131 348.634 225.296 349.626 225.42L348.572 231.62ZM382.292 230.008C380.845 230.38 378.965 230.752 376.65 231.124C374.335 231.537 371.793 231.744 369.024 231.744C366.42 231.744 364.229 231.372 362.452 230.628C360.716 229.884 359.311 228.851 358.236 227.528C357.203 226.205 356.459 224.635 356.004 222.816C355.549 220.956 355.322 218.931 355.322 216.74V198.574H362.824V215.562C362.824 219.034 363.32 221.514 364.312 223.002C365.345 224.49 367.123 225.234 369.644 225.234C370.553 225.234 371.504 225.193 372.496 225.11C373.529 225.027 374.294 224.924 374.79 224.8V198.574H382.292V230.008ZM397.73 214.694C397.73 218.001 398.516 220.605 400.086 222.506C401.657 224.366 403.827 225.296 406.596 225.296C407.795 225.296 408.808 225.255 409.634 225.172C410.502 225.048 411.205 224.924 411.742 224.8V206.2C411.081 205.745 410.192 205.332 409.076 204.96C408.002 204.547 406.844 204.34 405.604 204.34C402.876 204.34 400.872 205.27 399.59 207.13C398.35 208.99 397.73 211.511 397.73 214.694ZM419.244 230.008C417.756 230.463 415.876 230.876 413.602 231.248C411.37 231.62 409.014 231.806 406.534 231.806C403.972 231.806 401.678 231.413 399.652 230.628C397.627 229.843 395.891 228.727 394.444 227.28C393.039 225.792 391.944 224.015 391.158 221.948C390.414 219.84 390.042 217.484 390.042 214.88C390.042 212.317 390.352 210.003 390.972 207.936C391.634 205.828 392.584 204.03 393.824 202.542C395.064 201.054 396.573 199.917 398.35 199.132C400.128 198.305 402.174 197.892 404.488 197.892C406.059 197.892 407.444 198.078 408.642 198.45C409.841 198.822 410.874 199.235 411.742 199.69V184.128L419.244 182.888V230.008ZM13.1987 279.818C13.1987 277.421 13.5707 275.189 14.3147 273.122C15.0587 271.014 16.1127 269.195 17.4767 267.666C18.882 266.137 20.5767 264.938 22.5607 264.07C24.5447 263.202 26.7767 262.768 29.2567 262.768C32.3153 262.768 35.2087 263.326 37.9367 264.442L36.3247 270.58C35.4567 270.208 34.4647 269.898 33.3487 269.65C32.274 269.402 31.1167 269.278 29.8767 269.278C26.942 269.278 24.71 270.208 23.1807 272.068C21.6513 273.887 20.8867 276.47 20.8867 279.818C20.8867 283.042 21.61 285.605 23.0567 287.506C24.5033 289.366 26.942 290.296 30.3727 290.296C31.654 290.296 32.9147 290.172 34.1547 289.924C35.3947 289.676 36.4693 289.366 37.3787 288.994L38.4327 295.194C37.606 295.607 36.3453 295.979 34.6507 296.31C32.9973 296.641 31.282 296.806 29.5047 296.806C26.7353 296.806 24.3173 296.393 22.2507 295.566C20.2253 294.698 18.5307 293.52 17.1667 292.032C15.844 290.503 14.852 288.705 14.1907 286.638C13.5293 284.53 13.1987 282.257 13.1987 279.818ZM55.6488 290.73C57.9635 290.73 59.7201 290.606 60.9188 290.358V282.05C60.5055 281.926 59.9061 281.802 59.1208 281.678C58.3355 281.554 57.4675 281.492 56.5168 281.492C55.6901 281.492 54.8428 281.554 53.9748 281.678C53.1481 281.802 52.3835 282.029 51.6808 282.36C51.0195 282.691 50.4821 283.166 50.0688 283.786C49.6555 284.365 49.4488 285.109 49.4488 286.018C49.4488 287.795 50.0068 289.035 51.1228 289.738C52.2388 290.399 53.7475 290.73 55.6488 290.73ZM55.0288 262.768C57.5088 262.768 59.5961 263.078 61.2908 263.698C62.9855 264.318 64.3288 265.186 65.3208 266.302C66.3541 267.418 67.0775 268.782 67.4908 270.394C67.9455 271.965 68.1728 273.701 68.1728 275.602V295.256C67.0155 295.504 65.2588 295.793 62.9028 296.124C60.5881 296.496 57.9635 296.682 55.0288 296.682C53.0861 296.682 51.3088 296.496 49.6968 296.124C48.0848 295.752 46.7001 295.153 45.5428 294.326C44.4268 293.499 43.5381 292.425 42.8768 291.102C42.2568 289.779 41.9468 288.147 41.9468 286.204C41.9468 284.344 42.2981 282.773 43.0008 281.492C43.7448 280.211 44.7368 279.177 45.9768 278.392C47.2168 277.565 48.6428 276.987 50.2548 276.656C51.9081 276.284 53.6235 276.098 55.4008 276.098C56.2275 276.098 57.0955 276.16 58.0048 276.284C58.9141 276.367 59.8855 276.532 60.9188 276.78V275.54C60.9188 274.672 60.8155 273.845 60.6088 273.06C60.4021 272.275 60.0301 271.593 59.4928 271.014C58.9968 270.394 58.3148 269.919 57.4468 269.588C56.6201 269.257 55.5661 269.092 54.2848 269.092C52.5488 269.092 50.9575 269.216 49.5108 269.464C48.0641 269.712 46.8861 270.001 45.9768 270.332L45.0468 264.256C45.9975 263.925 47.3821 263.595 49.2008 263.264C51.0195 262.933 52.9621 262.768 55.0288 262.768ZM95.8359 270.332C95.2159 270.125 94.3479 269.919 93.2319 269.712C92.1573 269.464 90.8966 269.34 89.4499 269.34C88.6233 269.34 87.7346 269.423 86.7839 269.588C85.8746 269.753 85.2339 269.898 84.8619 270.022V296H77.3599V265.124C78.8066 264.587 80.6046 264.091 82.7539 263.636C84.9446 263.14 87.3626 262.892 90.0079 262.892C90.5039 262.892 91.0826 262.933 91.7439 263.016C92.4053 263.057 93.0666 263.14 93.7279 263.264C94.3893 263.347 95.0299 263.471 95.6499 263.636C96.2699 263.76 96.7659 263.884 97.1379 264.008L95.8359 270.332ZM108.256 279.694C108.256 283.001 109.041 285.605 110.612 287.506C112.182 289.366 114.352 290.296 117.122 290.296C118.32 290.296 119.333 290.255 120.16 290.172C121.028 290.048 121.73 289.924 122.268 289.8V271.2C121.606 270.745 120.718 270.332 119.602 269.96C118.527 269.547 117.37 269.34 116.13 269.34C113.402 269.34 111.397 270.27 110.116 272.13C108.876 273.99 108.256 276.511 108.256 279.694ZM129.77 295.008C128.282 295.463 126.401 295.876 124.128 296.248C121.896 296.62 119.54 296.806 117.06 296.806C114.497 296.806 112.203 296.413 110.178 295.628C108.152 294.843 106.416 293.727 104.97 292.28C103.564 290.792 102.469 289.015 101.684 286.948C100.94 284.84 100.568 282.484 100.568 279.88C100.568 277.317 100.878 275.003 101.498 272.936C102.159 270.828 103.11 269.03 104.35 267.542C105.59 266.054 107.098 264.917 108.876 264.132C110.653 263.305 112.699 262.892 115.014 262.892C116.584 262.892 117.969 263.078 119.168 263.45C120.366 263.822 121.4 264.235 122.268 264.69V249.128L129.77 247.888V295.008ZM146.863 296H139.361V263.574H146.863V296ZM147.669 254.088C147.669 255.493 147.215 256.609 146.305 257.436C145.396 258.263 144.321 258.676 143.081 258.676C141.8 258.676 140.705 258.263 139.795 257.436C138.886 256.609 138.431 255.493 138.431 254.088C138.431 252.641 138.886 251.505 139.795 250.678C140.705 249.851 141.8 249.438 143.081 249.438C144.321 249.438 145.396 249.851 146.305 250.678C147.215 251.505 147.669 252.641 147.669 254.088ZM185.76 279.756C185.76 282.319 185.388 284.654 184.644 286.762C183.9 288.87 182.846 290.668 181.482 292.156C180.118 293.644 178.465 294.801 176.522 295.628C174.621 296.455 172.513 296.868 170.198 296.868C167.883 296.868 165.775 296.455 163.874 295.628C161.973 294.801 160.34 293.644 158.976 292.156C157.612 290.668 156.537 288.87 155.752 286.762C155.008 284.654 154.636 282.319 154.636 279.756C154.636 277.193 155.008 274.879 155.752 272.812C156.537 270.704 157.612 268.906 158.976 267.418C160.381 265.93 162.035 264.793 163.936 264.008C165.837 263.181 167.925 262.768 170.198 262.768C172.471 262.768 174.559 263.181 176.46 264.008C178.403 264.793 180.056 265.93 181.42 267.418C182.784 268.906 183.838 270.704 184.582 272.812C185.367 274.879 185.76 277.193 185.76 279.756ZM178.072 279.756C178.072 276.532 177.369 273.99 175.964 272.13C174.6 270.229 172.678 269.278 170.198 269.278C167.718 269.278 165.775 270.229 164.37 272.13C163.006 273.99 162.324 276.532 162.324 279.756C162.324 283.021 163.006 285.605 164.37 287.506C165.775 289.407 167.718 290.358 170.198 290.358C172.678 290.358 174.6 289.407 175.964 287.506C177.369 285.605 178.072 283.021 178.072 279.756ZM201.07 296C199.004 291.743 196.875 286.865 194.684 281.368C192.535 275.829 190.572 269.898 188.794 263.574H196.792C197.247 265.393 197.764 267.356 198.342 269.464C198.962 271.531 199.603 273.618 200.264 275.726C200.967 277.793 201.67 279.818 202.372 281.802C203.116 283.745 203.798 285.501 204.418 287.072C205.038 285.501 205.7 283.745 206.402 281.802C207.105 279.818 207.787 277.793 208.448 275.726C209.151 273.618 209.812 271.531 210.432 269.464C211.052 267.356 211.59 265.393 212.044 263.574H219.794C218.017 269.898 216.033 275.829 213.842 281.368C211.693 286.865 209.585 291.743 207.518 296H201.07ZM236.805 290.73C239.12 290.73 240.876 290.606 242.075 290.358V282.05C241.662 281.926 241.062 281.802 240.277 281.678C239.492 281.554 238.624 281.492 237.673 281.492C236.846 281.492 235.999 281.554 235.131 281.678C234.304 281.802 233.54 282.029 232.837 282.36C232.176 282.691 231.638 283.166 231.225 283.786C230.812 284.365 230.605 285.109 230.605 286.018C230.605 287.795 231.163 289.035 232.279 289.738C233.395 290.399 234.904 290.73 236.805 290.73ZM236.185 262.768C238.665 262.768 240.752 263.078 242.447 263.698C244.142 264.318 245.485 265.186 246.477 266.302C247.51 267.418 248.234 268.782 248.647 270.394C249.102 271.965 249.329 273.701 249.329 275.602V295.256C248.172 295.504 246.415 295.793 244.059 296.124C241.744 296.496 239.12 296.682 236.185 296.682C234.242 296.682 232.465 296.496 230.853 296.124C229.241 295.752 227.856 295.153 226.699 294.326C225.583 293.499 224.694 292.425 224.033 291.102C223.413 289.779 223.103 288.147 223.103 286.204C223.103 284.344 223.454 282.773 224.157 281.492C224.901 280.211 225.893 279.177 227.133 278.392C228.373 277.565 229.799 276.987 231.411 276.656C233.064 276.284 234.78 276.098 236.557 276.098C237.384 276.098 238.252 276.16 239.161 276.284C240.07 276.367 241.042 276.532 242.075 276.78V275.54C242.075 274.672 241.972 273.845 241.765 273.06C241.558 272.275 241.186 271.593 240.649 271.014C240.153 270.394 239.471 269.919 238.603 269.588C237.776 269.257 236.722 269.092 235.441 269.092C233.705 269.092 232.114 269.216 230.667 269.464C229.22 269.712 228.042 270.001 227.133 270.332L226.203 264.256C227.154 263.925 228.538 263.595 230.357 263.264C232.176 262.933 234.118 262.768 236.185 262.768ZM266.638 290.606C268.622 290.606 270.069 290.379 270.978 289.924C271.888 289.428 272.342 288.601 272.342 287.444C272.342 286.369 271.846 285.481 270.854 284.778C269.904 284.075 268.312 283.311 266.08 282.484C264.716 281.988 263.456 281.471 262.298 280.934C261.182 280.355 260.211 279.694 259.384 278.95C258.558 278.206 257.896 277.317 257.4 276.284C256.946 275.209 256.718 273.907 256.718 272.378C256.718 269.402 257.814 267.067 260.004 265.372C262.195 263.636 265.171 262.768 268.932 262.768C270.834 262.768 272.652 262.954 274.388 263.326C276.124 263.657 277.426 263.987 278.294 264.318L276.93 270.394C276.104 270.022 275.05 269.691 273.768 269.402C272.487 269.071 270.999 268.906 269.304 268.906C267.775 268.906 266.535 269.175 265.584 269.712C264.634 270.208 264.158 270.993 264.158 272.068C264.158 272.605 264.241 273.081 264.406 273.494C264.613 273.907 264.944 274.3 265.398 274.672C265.853 275.003 266.452 275.354 267.196 275.726C267.94 276.057 268.85 276.408 269.924 276.78C271.702 277.441 273.21 278.103 274.45 278.764C275.69 279.384 276.703 280.107 277.488 280.934C278.315 281.719 278.914 282.629 279.286 283.662C279.658 284.695 279.844 285.935 279.844 287.382C279.844 290.482 278.687 292.838 276.372 294.45C274.099 296.021 270.834 296.806 266.576 296.806C263.724 296.806 261.43 296.558 259.694 296.062C257.958 295.607 256.739 295.235 256.036 294.946L257.338 288.684C258.454 289.139 259.777 289.573 261.306 289.986C262.877 290.399 264.654 290.606 266.638 290.606ZM285.054 279.818C285.054 277.421 285.426 275.189 286.17 273.122C286.914 271.014 287.968 269.195 289.332 267.666C290.737 266.137 292.432 264.938 294.416 264.07C296.4 263.202 298.632 262.768 301.112 262.768C304.171 262.768 307.064 263.326 309.792 264.442L308.18 270.58C307.312 270.208 306.32 269.898 305.204 269.65C304.129 269.402 302.972 269.278 301.732 269.278C298.797 269.278 296.565 270.208 295.036 272.068C293.507 273.887 292.742 276.47 292.742 279.818C292.742 283.042 293.465 285.605 294.912 287.506C296.359 289.366 298.797 290.296 302.228 290.296C303.509 290.296 304.77 290.172 306.01 289.924C307.25 289.676 308.325 289.366 309.234 288.994L310.288 295.194C309.461 295.607 308.201 295.979 306.506 296.31C304.853 296.641 303.137 296.806 301.36 296.806C298.591 296.806 296.173 296.393 294.106 295.566C292.081 294.698 290.386 293.52 289.022 292.032C287.699 290.503 286.707 288.705 286.046 286.638C285.385 284.53 285.054 282.257 285.054 279.818ZM342.694 295.008C341.248 295.38 339.367 295.752 337.052 296.124C334.738 296.537 332.196 296.744 329.426 296.744C326.822 296.744 324.632 296.372 322.854 295.628C321.118 294.884 319.713 293.851 318.638 292.528C317.605 291.205 316.861 289.635 316.406 287.816C315.952 285.956 315.724 283.931 315.724 281.74V263.574H323.226V280.562C323.226 284.034 323.722 286.514 324.714 288.002C325.748 289.49 327.525 290.234 330.046 290.234C330.956 290.234 331.906 290.193 332.898 290.11C333.932 290.027 334.696 289.924 335.192 289.8V263.574H342.694V295.008ZM363.527 296.62C361.295 296.579 359.435 296.331 357.947 295.876C356.5 295.421 355.343 294.781 354.475 293.954C353.607 293.086 352.987 292.032 352.615 290.792C352.284 289.511 352.119 288.064 352.119 286.452V249.128L359.621 247.888V285.026C359.621 285.935 359.683 286.7 359.807 287.32C359.972 287.94 360.241 288.477 360.613 288.932C360.985 289.345 361.481 289.676 362.101 289.924C362.762 290.131 363.589 290.296 364.581 290.42L363.527 296.62ZM382.057 290.73C384.372 290.73 386.128 290.606 387.327 290.358V282.05C386.914 281.926 386.314 281.802 385.529 281.678C384.744 281.554 383.876 281.492 382.925 281.492C382.098 281.492 381.251 281.554 380.383 281.678C379.556 281.802 378.792 282.029 378.089 282.36C377.428 282.691 376.89 283.166 376.477 283.786C376.064 284.365 375.857 285.109 375.857 286.018C375.857 287.795 376.415 289.035 377.531 289.738C378.647 290.399 380.156 290.73 382.057 290.73ZM381.437 262.768C383.917 262.768 386.004 263.078 387.699 263.698C389.394 264.318 390.737 265.186 391.729 266.302C392.762 267.418 393.486 268.782 393.899 270.394C394.354 271.965 394.581 273.701 394.581 275.602V295.256C393.424 295.504 391.667 295.793 389.311 296.124C386.996 296.496 384.372 296.682 381.437 296.682C379.494 296.682 377.717 296.496 376.105 296.124C374.493 295.752 373.108 295.153 371.951 294.326C370.835 293.499 369.946 292.425 369.285 291.102C368.665 289.779 368.355 288.147 368.355 286.204C368.355 284.344 368.706 282.773 369.409 281.492C370.153 280.211 371.145 279.177 372.385 278.392C373.625 277.565 375.051 276.987 376.663 276.656C378.316 276.284 380.032 276.098 381.809 276.098C382.636 276.098 383.504 276.16 384.413 276.284C385.322 276.367 386.294 276.532 387.327 276.78V275.54C387.327 274.672 387.224 273.845 387.017 273.06C386.81 272.275 386.438 271.593 385.901 271.014C385.405 270.394 384.723 269.919 383.855 269.588C383.028 269.257 381.974 269.092 380.693 269.092C378.957 269.092 377.366 269.216 375.919 269.464C374.472 269.712 373.294 270.001 372.385 270.332L371.455 264.256C372.406 263.925 373.79 263.595 375.609 263.264C377.428 262.933 379.37 262.768 381.437 262.768ZM422.244 270.332C421.624 270.125 420.756 269.919 419.64 269.712C418.565 269.464 417.305 269.34 415.858 269.34C415.031 269.34 414.143 269.423 413.192 269.588C412.283 269.753 411.642 269.898 411.27 270.022V296H403.768V265.124C405.215 264.587 407.013 264.091 409.162 263.636C411.353 263.14 413.771 262.892 416.416 262.892C416.912 262.892 417.491 262.933 418.152 263.016C418.813 263.057 419.475 263.14 420.136 263.264C420.797 263.347 421.438 263.471 422.058 263.636C422.678 263.76 423.174 263.884 423.546 264.008L422.244 270.332Z" fill="white"/>
</g>
<defs>
<filter id="filter0_d_1_15" x="0.198669" y="0.803955" width="436.347" height="313.064" filterUnits="userSpaceOnUse" color-interpolation-filters="sRGB">
<feFlood flood-opacity="0" result="BackgroundImageFix"/>
<feColorMatrix in="SourceAlpha" type="matrix" values="0 0 0 0 0 0 0 0 0 0 0 0 0 0 0 0 0 0 127 0" result="hardAlpha"/>
<feOffset dy="4"/>
<feGaussianBlur stdDeviation="6.5"/>
<feColorMatrix type="matrix" values="0 0 0 0 0.0862745 0 0 0 0 0.2 0 0 0 0 0.337255 0 0 0 0.7 0"/>
<feBlend mode="normal" in2="BackgroundImageFix" result="effect1_dropShadow_1_15"/>
<feBlend mode="normal" in="SourceGraphic" in2="effect1_dropShadow_1_15" result="shape"/>
</filter>
</defs>
</svg>
