<svg width="250" height="17" viewBox="0 0 250 17" fill="none" xmlns="http://www.w3.org/2000/svg">
<path d="M3.744 12.434C4.32 12.434 4.74 12.368 5.004 12.236C5.268 12.092 5.4 11.852 5.4 11.516C5.4 11.204 5.256 10.946 4.968 10.742C4.692 10.538 4.23 10.316 3.582 10.076C3.186 9.932 2.82 9.782 2.484 9.626C2.16 9.458 1.878 9.266 1.638 9.05C1.398 8.834 1.206 8.576 1.062 8.276C0.93 7.964 0.864 7.586 0.864 7.142C0.864 6.278 1.182 5.6 1.818 5.108C2.454 4.604 3.318 4.352 4.41 4.352C4.962 4.352 5.49 4.406 5.994 4.514C6.498 4.61 6.876 4.706 7.128 4.802L6.732 6.566C6.492 6.458 6.186 6.362 5.814 6.278C5.442 6.182 5.01 6.134 4.518 6.134C4.074 6.134 3.714 6.212 3.438 6.368C3.162 6.512 3.024 6.74 3.024 7.052C3.024 7.208 3.048 7.346 3.096 7.466C3.156 7.586 3.252 7.7 3.384 7.808C3.516 7.904 3.69 8.006 3.906 8.114C4.122 8.21 4.386 8.312 4.698 8.42C5.214 8.612 5.652 8.804 6.012 8.996C6.372 9.176 6.666 9.386 6.894 9.626C7.134 9.854 7.308 10.118 7.416 10.418C7.524 10.718 7.578 11.078 7.578 11.498C7.578 12.398 7.242 13.082 6.57 13.55C5.91 14.006 4.962 14.234 3.726 14.234C2.898 14.234 2.232 14.162 1.728 14.018C1.224 13.886 0.87 13.778 0.666 13.694L1.044 11.876C1.368 12.008 1.752 12.134 2.196 12.254C2.652 12.374 3.168 12.434 3.744 12.434ZM9.09056 9.338C9.09056 8.51 9.21056 7.784 9.45056 7.16C9.70256 6.536 10.0326 6.02 10.4406 5.612C10.8486 5.192 11.3166 4.88 11.8446 4.676C12.3726 4.46 12.9126 4.352 13.4646 4.352C14.7606 4.352 15.7686 4.754 16.4886 5.558C17.2206 6.362 17.5866 7.562 17.5866 9.158C17.5866 9.278 17.5806 9.416 17.5686 9.572C17.5686 9.716 17.5626 9.848 17.5506 9.968H11.3406C11.4006 10.724 11.6646 11.312 12.1326 11.732C12.6126 12.14 13.3026 12.344 14.2026 12.344C14.7306 12.344 15.2106 12.296 15.6426 12.2C16.0866 12.104 16.4346 12.002 16.6866 11.894L16.9746 13.676C16.8546 13.736 16.6866 13.802 16.4706 13.874C16.2666 13.934 16.0266 13.988 15.7506 14.036C15.4866 14.096 15.1986 14.144 14.8866 14.18C14.5746 14.216 14.2566 14.234 13.9326 14.234C13.1046 14.234 12.3846 14.114 11.7726 13.874C11.1606 13.622 10.6566 13.28 10.2606 12.848C9.86456 12.404 9.57056 11.888 9.37856 11.3C9.18656 10.7 9.09056 10.046 9.09056 9.338ZM15.4086 8.366C15.4086 8.066 15.3666 7.784 15.2826 7.52C15.1986 7.244 15.0726 7.01 14.9046 6.818C14.7486 6.614 14.5506 6.458 14.3106 6.35C14.0826 6.23 13.8066 6.17 13.4826 6.17C13.1466 6.17 12.8526 6.236 12.6006 6.368C12.3486 6.488 12.1326 6.65 11.9526 6.854C11.7846 7.058 11.6526 7.292 11.5566 7.556C11.4606 7.82 11.3946 8.09 11.3586 8.366H15.4086ZM19.3738 9.302C19.3738 8.606 19.4818 7.958 19.6978 7.358C19.9138 6.746 20.2198 6.218 20.6158 5.774C21.0238 5.33 21.5158 4.982 22.0918 4.73C22.6678 4.478 23.3158 4.352 24.0358 4.352C24.9238 4.352 25.7638 4.514 26.5558 4.838L26.0878 6.62C25.8358 6.512 25.5478 6.422 25.2238 6.35C24.9118 6.278 24.5758 6.242 24.2158 6.242C23.3638 6.242 22.7158 6.512 22.2718 7.052C21.8278 7.58 21.6058 8.33 21.6058 9.302C21.6058 10.238 21.8158 10.982 22.2358 11.534C22.6558 12.074 23.3638 12.344 24.3598 12.344C24.7318 12.344 25.0978 12.308 25.4578 12.236C25.8178 12.164 26.1298 12.074 26.3938 11.966L26.6998 13.766C26.4598 13.886 26.0938 13.994 25.6018 14.09C25.1218 14.186 24.6238 14.234 24.1078 14.234C23.3038 14.234 22.6018 14.114 22.0018 13.874C21.4138 13.622 20.9218 13.28 20.5258 12.848C20.1418 12.404 19.8538 11.882 19.6618 11.282C19.4698 10.67 19.3738 10.01 19.3738 9.302ZM33.75 6.548C33.57 6.488 33.318 6.428 32.994 6.368C32.682 6.296 32.316 6.26 31.896 6.26C31.656 6.26 31.398 6.284 31.122 6.332C30.858 6.38 30.672 6.422 30.564 6.458V14H28.386V5.036C28.806 4.88 29.328 4.736 29.952 4.604C30.588 4.46 31.29 4.388 32.058 4.388C32.202 4.388 32.37 4.4 32.562 4.424C32.754 4.436 32.946 4.46 33.138 4.496C33.33 4.52 33.516 4.556 33.696 4.604C33.876 4.64 34.02 4.676 34.128 4.712L33.75 6.548ZM35.1238 9.338C35.1238 8.51 35.2438 7.784 35.4838 7.16C35.7358 6.536 36.0658 6.02 36.4738 5.612C36.8818 5.192 37.3498 4.88 37.8778 4.676C38.4058 4.46 38.9458 4.352 39.4978 4.352C40.7938 4.352 41.8018 4.754 42.5218 5.558C43.2538 6.362 43.6198 7.562 43.6198 9.158C43.6198 9.278 43.6138 9.416 43.6018 9.572C43.6018 9.716 43.5958 9.848 43.5838 9.968H37.3738C37.4338 10.724 37.6978 11.312 38.1658 11.732C38.6458 12.14 39.3358 12.344 40.2358 12.344C40.7638 12.344 41.2438 12.296 41.6758 12.2C42.1198 12.104 42.4678 12.002 42.7198 11.894L43.0078 13.676C42.8878 13.736 42.7198 13.802 42.5038 13.874C42.2998 13.934 42.0598 13.988 41.7838 14.036C41.5198 14.096 41.2318 14.144 40.9198 14.18C40.6078 14.216 40.2898 14.234 39.9658 14.234C39.1378 14.234 38.4178 14.114 37.8058 13.874C37.1938 13.622 36.6898 13.28 36.2938 12.848C35.8978 12.404 35.6038 11.888 35.4118 11.3C35.2198 10.7 35.1238 10.046 35.1238 9.338ZM41.4418 8.366C41.4418 8.066 41.3998 7.784 41.3158 7.52C41.2318 7.244 41.1058 7.01 40.9378 6.818C40.7818 6.614 40.5838 6.458 40.3438 6.35C40.1158 6.23 39.8398 6.17 39.5158 6.17C39.1798 6.17 38.8858 6.236 38.6338 6.368C38.3818 6.488 38.1658 6.65 37.9858 6.854C37.8178 7.058 37.6858 7.292 37.5898 7.556C37.4938 7.82 37.4278 8.09 37.3918 8.366H41.4418ZM45.821 2.102L47.999 1.742V4.586H51.347V6.404H47.999V10.238C47.999 10.994 48.119 11.534 48.359 11.858C48.599 12.182 49.007 12.344 49.583 12.344C49.979 12.344 50.327 12.302 50.627 12.218C50.939 12.134 51.185 12.056 51.365 11.984L51.725 13.712C51.473 13.82 51.143 13.928 50.735 14.036C50.327 14.156 49.847 14.216 49.295 14.216C48.623 14.216 48.059 14.126 47.603 13.946C47.159 13.766 46.805 13.508 46.541 13.172C46.277 12.824 46.091 12.41 45.983 11.93C45.875 11.438 45.821 10.88 45.821 10.256V2.102ZM56.7644 12.47C57.4364 12.47 57.9464 12.434 58.2944 12.362V9.95C58.1744 9.914 58.0004 9.878 57.7724 9.842C57.5444 9.806 57.2924 9.788 57.0164 9.788C56.7764 9.788 56.5304 9.806 56.2784 9.842C56.0384 9.878 55.8164 9.944 55.6124 10.04C55.4204 10.136 55.2644 10.274 55.1444 10.454C55.0244 10.622 54.9644 10.838 54.9644 11.102C54.9644 11.618 55.1264 11.978 55.4504 12.182C55.7744 12.374 56.2124 12.47 56.7644 12.47ZM56.5844 4.352C57.3044 4.352 57.9104 4.442 58.4024 4.622C58.8944 4.802 59.2844 5.054 59.5724 5.378C59.8724 5.702 60.0824 6.098 60.2024 6.566C60.3344 7.022 60.4004 7.526 60.4004 8.078V13.784C60.0644 13.856 59.5544 13.94 58.8704 14.036C58.1984 14.144 57.4364 14.198 56.5844 14.198C56.0204 14.198 55.5044 14.144 55.0364 14.036C54.5684 13.928 54.1664 13.754 53.8304 13.514C53.5064 13.274 53.2484 12.962 53.0564 12.578C52.8764 12.194 52.7864 11.72 52.7864 11.156C52.7864 10.616 52.8884 10.16 53.0924 9.788C53.3084 9.416 53.5964 9.116 53.9564 8.888C54.3164 8.648 54.7304 8.48 55.1984 8.384C55.6784 8.276 56.1764 8.222 56.6924 8.222C56.9324 8.222 57.1844 8.24 57.4484 8.276C57.7124 8.3 57.9944 8.348 58.2944 8.42V8.06C58.2944 7.808 58.2644 7.568 58.2044 7.34C58.1444 7.112 58.0364 6.914 57.8804 6.746C57.7364 6.566 57.5384 6.428 57.2864 6.332C57.0464 6.236 56.7404 6.188 56.3684 6.188C55.8644 6.188 55.4024 6.224 54.9824 6.296C54.5624 6.368 54.2204 6.452 53.9564 6.548L53.6864 4.784C53.9624 4.688 54.3644 4.592 54.8924 4.496C55.4204 4.4 55.9844 4.352 56.5844 4.352ZM68.4316 6.548C68.2516 6.488 67.9996 6.428 67.6756 6.368C67.3636 6.296 66.9976 6.26 66.5776 6.26C66.3376 6.26 66.0796 6.284 65.8036 6.332C65.5396 6.38 65.3536 6.422 65.2456 6.458V14H63.0676V5.036C63.4876 4.88 64.0096 4.736 64.6336 4.604C65.2696 4.46 65.9716 4.388 66.7396 4.388C66.8836 4.388 67.0516 4.4 67.2436 4.424C67.4356 4.436 67.6276 4.46 67.8196 4.496C68.0116 4.52 68.1976 4.556 68.3776 4.604C68.5576 4.64 68.7016 4.676 68.8096 4.712L68.4316 6.548ZM72.5234 14H70.3454V4.586H72.5234V14ZM72.7574 1.832C72.7574 2.24 72.6254 2.564 72.3614 2.804C72.0974 3.044 71.7854 3.164 71.4254 3.164C71.0534 3.164 70.7354 3.044 70.4714 2.804C70.2074 2.564 70.0754 2.24 70.0754 1.832C70.0754 1.412 70.2074 1.082 70.4714 0.842C70.7354 0.601999 71.0534 0.481999 71.4254 0.481999C71.7854 0.481999 72.0974 0.601999 72.3614 0.842C72.6254 1.082 72.7574 1.412 72.7574 1.832ZM78.614 12.47C79.286 12.47 79.796 12.434 80.144 12.362V9.95C80.024 9.914 79.85 9.878 79.622 9.842C79.394 9.806 79.142 9.788 78.866 9.788C78.626 9.788 78.38 9.806 78.128 9.842C77.888 9.878 77.666 9.944 77.462 10.04C77.27 10.136 77.114 10.274 76.994 10.454C76.874 10.622 76.814 10.838 76.814 11.102C76.814 11.618 76.976 11.978 77.3 12.182C77.624 12.374 78.062 12.47 78.614 12.47ZM78.434 4.352C79.154 4.352 79.76 4.442 80.252 4.622C80.744 4.802 81.134 5.054 81.422 5.378C81.722 5.702 81.932 6.098 82.052 6.566C82.184 7.022 82.25 7.526 82.25 8.078V13.784C81.914 13.856 81.404 13.94 80.72 14.036C80.048 14.144 79.286 14.198 78.434 14.198C77.87 14.198 77.354 14.144 76.886 14.036C76.418 13.928 76.016 13.754 75.68 13.514C75.356 13.274 75.098 12.962 74.906 12.578C74.726 12.194 74.636 11.72 74.636 11.156C74.636 10.616 74.738 10.16 74.942 9.788C75.158 9.416 75.446 9.116 75.806 8.888C76.166 8.648 76.58 8.48 77.048 8.384C77.528 8.276 78.026 8.222 78.542 8.222C78.782 8.222 79.034 8.24 79.298 8.276C79.562 8.3 79.844 8.348 80.144 8.42V8.06C80.144 7.808 80.114 7.568 80.054 7.34C79.994 7.112 79.886 6.914 79.73 6.746C79.586 6.566 79.388 6.428 79.136 6.332C78.896 6.236 78.59 6.188 78.218 6.188C77.714 6.188 77.252 6.224 76.832 6.296C76.412 6.368 76.07 6.452 75.806 6.548L75.536 4.784C75.812 4.688 76.214 4.592 76.742 4.496C77.27 4.4 77.834 4.352 78.434 4.352ZM96.1313 13.37C95.7713 13.37 95.4413 13.322 95.1413 13.226C94.8413 13.118 94.5893 12.956 94.3853 12.74C94.1213 12.932 93.8093 13.076 93.4492 13.172C93.1013 13.268 92.7353 13.316 92.3513 13.316C91.7633 13.316 91.2233 13.226 90.7313 13.046C90.2513 12.866 89.8313 12.596 89.4713 12.236C89.1233 11.876 88.8533 11.432 88.6613 10.904C88.4693 10.364 88.3733 9.74 88.3733 9.032C88.3733 8.444 88.4693 7.892 88.6613 7.376C88.8533 6.848 89.1293 6.392 89.4893 6.008C89.8613 5.624 90.3113 5.324 90.8393 5.108C91.3793 4.88 91.9913 4.766 92.6753 4.766C93.3353 4.766 93.9293 4.82 94.4573 4.928C94.9853 5.036 95.4053 5.15 95.7173 5.27V10.85C95.7173 11.186 95.7773 11.42 95.8973 11.552C96.0293 11.672 96.2033 11.732 96.4193 11.732C96.9353 11.732 97.3373 11.414 97.6253 10.778C97.9253 10.13 98.0753 9.206 98.0753 8.006C98.0753 7.262 97.9433 6.572 97.6793 5.936C97.4273 5.288 97.0553 4.73 96.5633 4.262C96.0713 3.794 95.4713 3.428 94.7633 3.164C94.0673 2.888 93.2813 2.75 92.4053 2.75C91.5413 2.75 90.7433 2.894 90.0113 3.182C89.2913 3.47 88.6673 3.884 88.1393 4.424C87.6233 4.964 87.2153 5.624 86.9153 6.404C86.6273 7.184 86.4833 8.066 86.4833 9.05C86.4833 10.082 86.6333 10.988 86.9333 11.768C87.2333 12.536 87.6533 13.178 88.1933 13.694C88.7453 14.21 89.3993 14.6 90.1553 14.864C90.9233 15.128 91.7753 15.26 92.7113 15.26C93.3593 15.26 93.9293 15.218 94.4213 15.134C94.9253 15.062 95.3033 14.996 95.5553 14.936L95.7713 16.448C95.6393 16.484 95.4653 16.526 95.2493 16.574C95.0453 16.622 94.8053 16.664 94.5293 16.7C94.2653 16.748 93.9773 16.784 93.6653 16.808C93.3533 16.844 93.0353 16.862 92.7113 16.862C91.5953 16.862 90.5453 16.712 89.5613 16.412C88.5893 16.112 87.7373 15.644 87.0053 15.008C86.2853 14.372 85.7093 13.562 85.2773 12.578C84.8573 11.594 84.6473 10.418 84.6473 9.05C84.6473 7.742 84.8633 6.596 85.2953 5.612C85.7273 4.616 86.3033 3.794 87.0233 3.146C87.7433 2.486 88.5653 1.994 89.4893 1.67C90.4253 1.334 91.3973 1.166 92.4053 1.166C93.4493 1.166 94.4273 1.322 95.3393 1.634C96.2513 1.946 97.0433 2.402 97.7153 3.002C98.3873 3.59 98.9153 4.316 99.2993 5.18C99.6953 6.044 99.8933 7.028 99.8933 8.132C99.8933 8.984 99.7973 9.734 99.6053 10.382C99.4253 11.03 99.1673 11.576 98.8313 12.02C98.4953 12.464 98.0993 12.8 97.6433 13.028C97.1873 13.256 96.6833 13.37 96.1313 13.37ZM93.8093 11.408C93.7853 11.276 93.7613 11.126 93.7373 10.958C93.7253 10.79 93.7193 10.628 93.7193 10.472V6.512C93.4793 6.452 93.1673 6.422 92.7832 6.422C92.3753 6.422 92.0213 6.488 91.7213 6.62C91.4333 6.752 91.1933 6.938 91.0013 7.178C90.8093 7.406 90.6653 7.682 90.5693 8.006C90.4853 8.318 90.4433 8.66 90.4433 9.032C90.4433 9.788 90.6053 10.412 90.9293 10.904C91.2533 11.396 91.7573 11.642 92.4413 11.642C92.6573 11.642 92.8793 11.63 93.1073 11.606C93.3473 11.57 93.5813 11.504 93.8093 11.408ZM101.868 9.338C101.868 8.51 101.988 7.784 102.228 7.16C102.48 6.536 102.81 6.02 103.218 5.612C103.626 5.192 104.094 4.88 104.622 4.676C105.15 4.46 105.69 4.352 106.242 4.352C107.538 4.352 108.546 4.754 109.266 5.558C109.998 6.362 110.364 7.562 110.364 9.158C110.364 9.278 110.358 9.416 110.346 9.572C110.346 9.716 110.34 9.848 110.328 9.968H104.118C104.178 10.724 104.442 11.312 104.91 11.732C105.39 12.14 106.08 12.344 106.98 12.344C107.508 12.344 107.988 12.296 108.42 12.2C108.864 12.104 109.212 12.002 109.464 11.894L109.752 13.676C109.632 13.736 109.464 13.802 109.248 13.874C109.044 13.934 108.804 13.988 108.528 14.036C108.264 14.096 107.976 14.144 107.664 14.18C107.352 14.216 107.034 14.234 106.71 14.234C105.882 14.234 105.162 14.114 104.55 13.874C103.938 13.622 103.434 13.28 103.038 12.848C102.642 12.404 102.348 11.888 102.156 11.3C101.964 10.7 101.868 10.046 101.868 9.338ZM108.186 8.366C108.186 8.066 108.144 7.784 108.06 7.52C107.976 7.244 107.85 7.01 107.682 6.818C107.526 6.614 107.328 6.458 107.088 6.35C106.86 6.23 106.584 6.17 106.26 6.17C105.924 6.17 105.63 6.236 105.378 6.368C105.126 6.488 104.91 6.65 104.73 6.854C104.562 7.058 104.43 7.292 104.334 7.556C104.238 7.82 104.172 8.09 104.136 8.366H108.186ZM115.949 14.18C115.301 14.168 114.761 14.096 114.329 13.964C113.909 13.832 113.573 13.646 113.321 13.406C113.069 13.154 112.889 12.848 112.781 12.488C112.685 12.116 112.637 11.696 112.637 11.228V0.391999L114.815 0.0319996V10.814C114.815 11.078 114.833 11.3 114.869 11.48C114.917 11.66 114.995 11.816 115.103 11.948C115.211 12.068 115.355 12.164 115.535 12.236C115.727 12.296 115.967 12.344 116.255 12.38L115.949 14.18ZM121.851 0.0319996C122.355 0.0319996 122.799 0.0799997 123.183 0.176C123.567 0.26 123.855 0.337999 124.047 0.409999L123.633 2.21C123.429 2.114 123.189 2.036 122.913 1.976C122.649 1.916 122.361 1.886 122.049 1.886C121.701 1.886 121.407 1.94 121.167 2.048C120.927 2.144 120.735 2.282 120.591 2.462C120.447 2.642 120.345 2.864 120.285 3.128C120.225 3.38 120.195 3.656 120.195 3.956V4.586H123.615V6.404H120.195V14H118.017V3.92C118.017 2.708 118.335 1.76 118.971 1.076C119.607 0.379999 120.567 0.0319996 121.851 0.0319996ZM128.536 12.47C129.208 12.47 129.718 12.434 130.066 12.362V9.95C129.946 9.914 129.772 9.878 129.544 9.842C129.316 9.806 129.064 9.788 128.788 9.788C128.548 9.788 128.302 9.806 128.05 9.842C127.81 9.878 127.588 9.944 127.384 10.04C127.192 10.136 127.036 10.274 126.916 10.454C126.796 10.622 126.736 10.838 126.736 11.102C126.736 11.618 126.898 11.978 127.222 12.182C127.546 12.374 127.984 12.47 128.536 12.47ZM128.356 4.352C129.076 4.352 129.682 4.442 130.174 4.622C130.666 4.802 131.056 5.054 131.344 5.378C131.644 5.702 131.854 6.098 131.974 6.566C132.106 7.022 132.172 7.526 132.172 8.078V13.784C131.836 13.856 131.326 13.94 130.642 14.036C129.97 14.144 129.208 14.198 128.356 14.198C127.792 14.198 127.276 14.144 126.808 14.036C126.34 13.928 125.938 13.754 125.602 13.514C125.278 13.274 125.02 12.962 124.828 12.578C124.648 12.194 124.558 11.72 124.558 11.156C124.558 10.616 124.66 10.16 124.864 9.788C125.08 9.416 125.368 9.116 125.728 8.888C126.088 8.648 126.502 8.48 126.97 8.384C127.45 8.276 127.948 8.222 128.464 8.222C128.704 8.222 128.956 8.24 129.22 8.276C129.484 8.3 129.766 8.348 130.066 8.42V8.06C130.066 7.808 130.036 7.568 129.976 7.34C129.916 7.112 129.808 6.914 129.652 6.746C129.508 6.566 129.31 6.428 129.058 6.332C128.818 6.236 128.512 6.188 128.14 6.188C127.636 6.188 127.174 6.224 126.754 6.296C126.334 6.368 125.992 6.452 125.728 6.548L125.458 4.784C125.734 4.688 126.136 4.592 126.664 4.496C127.192 4.4 127.756 4.352 128.356 4.352ZM140.203 6.548C140.023 6.488 139.771 6.428 139.447 6.368C139.135 6.296 138.769 6.26 138.349 6.26C138.109 6.26 137.851 6.284 137.575 6.332C137.311 6.38 137.125 6.422 137.017 6.458V14H134.839V5.036C135.259 4.88 135.781 4.736 136.405 4.604C137.041 4.46 137.743 4.388 138.511 4.388C138.655 4.388 138.823 4.4 139.015 4.424C139.207 4.436 139.399 4.46 139.591 4.496C139.783 4.52 139.969 4.556 140.149 4.604C140.329 4.64 140.473 4.676 140.581 4.712L140.203 6.548ZM147.463 9.05C147.463 8.066 147.337 7.358 147.085 6.926C146.845 6.482 146.389 6.26 145.717 6.26C145.477 6.26 145.213 6.278 144.925 6.314C144.637 6.35 144.421 6.38 144.277 6.404V14H142.099V4.892C142.519 4.772 143.065 4.658 143.737 4.55C144.421 4.442 145.141 4.388 145.897 4.388C146.545 4.388 147.073 4.472 147.481 4.64C147.901 4.808 148.249 5.03 148.525 5.306C148.657 5.21 148.825 5.108 149.029 5C149.233 4.892 149.461 4.796 149.713 4.712C149.965 4.616 150.229 4.538 150.505 4.478C150.793 4.418 151.081 4.388 151.369 4.388C152.101 4.388 152.701 4.496 153.169 4.712C153.649 4.916 154.021 5.21 154.285 5.594C154.561 5.966 154.747 6.422 154.843 6.962C154.951 7.49 155.005 8.072 155.005 8.708V14H152.827V9.05C152.827 8.066 152.707 7.358 152.467 6.926C152.227 6.482 151.765 6.26 151.081 6.26C150.733 6.26 150.403 6.32 150.091 6.44C149.779 6.548 149.545 6.656 149.389 6.764C149.485 7.064 149.551 7.382 149.587 7.718C149.623 8.054 149.641 8.414 149.641 8.798V14H147.463V9.05ZM160.985 12.47C161.657 12.47 162.167 12.434 162.515 12.362V9.95C162.395 9.914 162.221 9.878 161.993 9.842C161.765 9.806 161.513 9.788 161.237 9.788C160.997 9.788 160.751 9.806 160.499 9.842C160.259 9.878 160.037 9.944 159.833 10.04C159.641 10.136 159.485 10.274 159.365 10.454C159.245 10.622 159.185 10.838 159.185 11.102C159.185 11.618 159.347 11.978 159.671 12.182C159.995 12.374 160.433 12.47 160.985 12.47ZM160.805 4.352C161.525 4.352 162.131 4.442 162.623 4.622C163.115 4.802 163.505 5.054 163.793 5.378C164.093 5.702 164.303 6.098 164.423 6.566C164.555 7.022 164.621 7.526 164.621 8.078V13.784C164.285 13.856 163.775 13.94 163.091 14.036C162.419 14.144 161.657 14.198 160.805 14.198C160.241 14.198 159.725 14.144 159.257 14.036C158.789 13.928 158.387 13.754 158.051 13.514C157.727 13.274 157.469 12.962 157.277 12.578C157.097 12.194 157.007 11.72 157.007 11.156C157.007 10.616 157.109 10.16 157.313 9.788C157.529 9.416 157.817 9.116 158.177 8.888C158.537 8.648 158.951 8.48 159.419 8.384C159.899 8.276 160.397 8.222 160.913 8.222C161.153 8.222 161.405 8.24 161.669 8.276C161.933 8.3 162.215 8.348 162.515 8.42V8.06C162.515 7.808 162.485 7.568 162.425 7.34C162.365 7.112 162.257 6.914 162.101 6.746C161.957 6.566 161.759 6.428 161.507 6.332C161.267 6.236 160.961 6.188 160.589 6.188C160.085 6.188 159.623 6.224 159.203 6.296C158.783 6.368 158.441 6.452 158.177 6.548L157.907 4.784C158.183 4.688 158.585 4.592 159.113 4.496C159.641 4.4 160.205 4.352 160.805 4.352ZM166.766 9.302C166.766 8.606 166.874 7.958 167.09 7.358C167.306 6.746 167.612 6.218 168.008 5.774C168.416 5.33 168.908 4.982 169.484 4.73C170.06 4.478 170.708 4.352 171.428 4.352C172.316 4.352 173.156 4.514 173.948 4.838L173.48 6.62C173.228 6.512 172.94 6.422 172.616 6.35C172.304 6.278 171.968 6.242 171.608 6.242C170.756 6.242 170.108 6.512 169.664 7.052C169.22 7.58 168.998 8.33 168.998 9.302C168.998 10.238 169.208 10.982 169.628 11.534C170.048 12.074 170.756 12.344 171.752 12.344C172.124 12.344 172.49 12.308 172.85 12.236C173.21 12.164 173.522 12.074 173.786 11.966L174.092 13.766C173.852 13.886 173.486 13.994 172.994 14.09C172.514 14.186 172.016 14.234 171.5 14.234C170.696 14.234 169.994 14.114 169.394 13.874C168.806 13.622 168.314 13.28 167.918 12.848C167.534 12.404 167.246 11.882 167.054 11.282C166.862 10.67 166.766 10.01 166.766 9.302ZM175.257 9.338C175.257 8.51 175.377 7.784 175.617 7.16C175.869 6.536 176.199 6.02 176.607 5.612C177.015 5.192 177.483 4.88 178.011 4.676C178.539 4.46 179.079 4.352 179.631 4.352C180.927 4.352 181.935 4.754 182.655 5.558C183.387 6.362 183.753 7.562 183.753 9.158C183.753 9.278 183.747 9.416 183.735 9.572C183.735 9.716 183.729 9.848 183.717 9.968H177.507C177.567 10.724 177.831 11.312 178.299 11.732C178.779 12.14 179.469 12.344 180.369 12.344C180.897 12.344 181.377 12.296 181.809 12.2C182.253 12.104 182.601 12.002 182.853 11.894L183.141 13.676C183.021 13.736 182.853 13.802 182.637 13.874C182.433 13.934 182.193 13.988 181.917 14.036C181.653 14.096 181.365 14.144 181.053 14.18C180.741 14.216 180.423 14.234 180.099 14.234C179.271 14.234 178.551 14.114 177.939 13.874C177.327 13.622 176.823 13.28 176.427 12.848C176.031 12.404 175.737 11.888 175.545 11.3C175.353 10.7 175.257 10.046 175.257 9.338ZM181.575 8.366C181.575 8.066 181.533 7.784 181.449 7.52C181.365 7.244 181.239 7.01 181.071 6.818C180.915 6.614 180.717 6.458 180.477 6.35C180.249 6.23 179.973 6.17 179.649 6.17C179.313 6.17 179.019 6.236 178.767 6.368C178.515 6.488 178.299 6.65 178.119 6.854C177.951 7.058 177.819 7.292 177.723 7.556C177.627 7.82 177.561 8.09 177.525 8.366H181.575ZM193.784 13.712C193.364 13.82 192.818 13.928 192.146 14.036C191.474 14.156 190.736 14.216 189.932 14.216C189.176 14.216 188.54 14.108 188.024 13.892C187.52 13.676 187.112 13.376 186.8 12.992C186.5 12.608 186.284 12.152 186.152 11.624C186.02 11.084 185.954 10.496 185.954 9.86V4.586H188.132V9.518C188.132 10.526 188.276 11.246 188.564 11.678C188.864 12.11 189.38 12.326 190.112 12.326C190.376 12.326 190.652 12.314 190.94 12.29C191.24 12.266 191.462 12.236 191.606 12.2V4.586H193.784V13.712ZM196.448 2.102L198.626 1.742V4.586H201.974V6.404H198.626V10.238C198.626 10.994 198.746 11.534 198.986 11.858C199.226 12.182 199.634 12.344 200.21 12.344C200.606 12.344 200.954 12.302 201.254 12.218C201.566 12.134 201.812 12.056 201.992 11.984L202.352 13.712C202.1 13.82 201.77 13.928 201.362 14.036C200.954 14.156 200.474 14.216 199.922 14.216C199.25 14.216 198.686 14.126 198.23 13.946C197.786 13.766 197.432 13.508 197.168 13.172C196.904 12.824 196.718 12.41 196.61 11.93C196.502 11.438 196.448 10.88 196.448 10.256V2.102ZM206.275 14H204.097V4.586H206.275V14ZM206.509 1.832C206.509 2.24 206.377 2.564 206.113 2.804C205.849 3.044 205.537 3.164 205.177 3.164C204.805 3.164 204.487 3.044 204.223 2.804C203.959 2.564 203.827 2.24 203.827 1.832C203.827 1.412 203.959 1.082 204.223 0.842C204.487 0.601999 204.805 0.481999 205.177 0.481999C205.537 0.481999 205.849 0.601999 206.113 0.842C206.377 1.082 206.509 1.412 206.509 1.832ZM208.532 9.302C208.532 8.606 208.64 7.958 208.856 7.358C209.072 6.746 209.378 6.218 209.774 5.774C210.182 5.33 210.674 4.982 211.25 4.73C211.826 4.478 212.474 4.352 213.194 4.352C214.082 4.352 214.922 4.514 215.714 4.838L215.246 6.62C214.994 6.512 214.706 6.422 214.382 6.35C214.07 6.278 213.734 6.242 213.374 6.242C212.522 6.242 211.874 6.512 211.43 7.052C210.986 7.58 210.764 8.33 210.764 9.302C210.764 10.238 210.974 10.982 211.394 11.534C211.814 12.074 212.522 12.344 213.518 12.344C213.89 12.344 214.256 12.308 214.616 12.236C214.976 12.164 215.288 12.074 215.552 11.966L215.858 13.766C215.618 13.886 215.252 13.994 214.76 14.09C214.28 14.186 213.782 14.234 213.266 14.234C212.462 14.234 211.76 14.114 211.16 13.874C210.572 13.622 210.08 13.28 209.684 12.848C209.3 12.404 209.012 11.882 208.82 11.282C208.628 10.67 208.532 10.01 208.532 9.302ZM225.865 9.284C225.865 10.028 225.757 10.706 225.541 11.318C225.325 11.93 225.019 12.452 224.623 12.884C224.227 13.316 223.747 13.652 223.183 13.892C222.631 14.132 222.019 14.252 221.347 14.252C220.675 14.252 220.063 14.132 219.511 13.892C218.959 13.652 218.485 13.316 218.089 12.884C217.693 12.452 217.381 11.93 217.153 11.318C216.937 10.706 216.829 10.028 216.829 9.284C216.829 8.54 216.937 7.868 217.153 7.268C217.381 6.656 217.693 6.134 218.089 5.702C218.497 5.27 218.977 4.94 219.529 4.712C220.081 4.472 220.687 4.352 221.347 4.352C222.007 4.352 222.613 4.472 223.165 4.712C223.729 4.94 224.209 5.27 224.605 5.702C225.001 6.134 225.307 6.656 225.523 7.268C225.751 7.868 225.865 8.54 225.865 9.284ZM223.633 9.284C223.633 8.348 223.429 7.61 223.021 7.07C222.625 6.518 222.067 6.242 221.347 6.242C220.627 6.242 220.063 6.518 219.655 7.07C219.259 7.61 219.061 8.348 219.061 9.284C219.061 10.232 219.259 10.982 219.655 11.534C220.063 12.086 220.627 12.362 221.347 12.362C222.067 12.362 222.625 12.086 223.021 11.534C223.429 10.982 223.633 10.232 223.633 9.284ZM230.557 12.812C230.557 13.232 230.413 13.574 230.125 13.838C229.849 14.102 229.513 14.234 229.117 14.234C228.709 14.234 228.367 14.102 228.091 13.838C227.815 13.574 227.677 13.232 227.677 12.812C227.677 12.392 227.815 12.05 228.091 11.786C228.367 11.51 228.709 11.372 229.117 11.372C229.513 11.372 229.849 11.51 230.125 11.786C230.413 12.05 230.557 12.392 230.557 12.812ZM232.368 9.338C232.368 8.51 232.488 7.784 232.728 7.16C232.98 6.536 233.31 6.02 233.718 5.612C234.126 5.192 234.594 4.88 235.122 4.676C235.65 4.46 236.19 4.352 236.742 4.352C238.038 4.352 239.046 4.754 239.766 5.558C240.498 6.362 240.864 7.562 240.864 9.158C240.864 9.278 240.858 9.416 240.846 9.572C240.846 9.716 240.84 9.848 240.828 9.968H234.618C234.678 10.724 234.942 11.312 235.41 11.732C235.89 12.14 236.58 12.344 237.48 12.344C238.008 12.344 238.488 12.296 238.92 12.2C239.364 12.104 239.712 12.002 239.964 11.894L240.252 13.676C240.132 13.736 239.964 13.802 239.748 13.874C239.544 13.934 239.304 13.988 239.028 14.036C238.764 14.096 238.476 14.144 238.164 14.18C237.852 14.216 237.534 14.234 237.21 14.234C236.382 14.234 235.662 14.114 235.05 13.874C234.438 13.622 233.934 13.28 233.538 12.848C233.142 12.404 232.848 11.888 232.656 11.3C232.464 10.7 232.368 10.046 232.368 9.338ZM238.686 8.366C238.686 8.066 238.644 7.784 238.56 7.52C238.476 7.244 238.35 7.01 238.182 6.818C238.026 6.614 237.828 6.458 237.588 6.35C237.36 6.23 237.084 6.17 236.76 6.17C236.424 6.17 236.13 6.236 235.878 6.368C235.626 6.488 235.41 6.65 235.23 6.854C235.062 7.058 234.93 7.292 234.834 7.556C234.738 7.82 234.672 8.09 234.636 8.366H238.686ZM245.531 12.434C246.107 12.434 246.527 12.368 246.791 12.236C247.055 12.092 247.187 11.852 247.187 11.516C247.187 11.204 247.043 10.946 246.755 10.742C246.479 10.538 246.017 10.316 245.369 10.076C244.973 9.932 244.607 9.782 244.271 9.626C243.947 9.458 243.665 9.266 243.425 9.05C243.185 8.834 242.993 8.576 242.849 8.276C242.717 7.964 242.651 7.586 242.651 7.142C242.651 6.278 242.969 5.6 243.605 5.108C244.241 4.604 245.105 4.352 246.197 4.352C246.749 4.352 247.277 4.406 247.781 4.514C248.285 4.61 248.663 4.706 248.915 4.802L248.519 6.566C248.279 6.458 247.973 6.362 247.601 6.278C247.229 6.182 246.797 6.134 246.305 6.134C245.861 6.134 245.501 6.212 245.225 6.368C244.949 6.512 244.811 6.74 244.811 7.052C244.811 7.208 244.835 7.346 244.883 7.466C244.943 7.586 245.039 7.7 245.171 7.808C245.303 7.904 245.477 8.006 245.693 8.114C245.909 8.21 246.173 8.312 246.485 8.42C247.001 8.612 247.439 8.804 247.799 8.996C248.159 9.176 248.453 9.386 248.681 9.626C248.921 9.854 249.095 10.118 249.203 10.418C249.311 10.718 249.365 11.078 249.365 11.498C249.365 12.398 249.029 13.082 248.357 13.55C247.697 14.006 246.749 14.234 245.513 14.234C244.685 14.234 244.019 14.162 243.515 14.018C243.011 13.886 242.657 13.778 242.453 13.694L242.831 11.876C243.155 12.008 243.539 12.134 243.983 12.254C244.439 12.374 244.955 12.434 245.531 12.434Z" fill="#B20E11"/>
</svg>
