<svg width="11" height="11" viewBox="0 0 11 11" fill="none" xmlns="http://www.w3.org/2000/svg">
<path d="M5.48174 10.0682H1.37042C1.11826 10.0682 0.913623 9.8635 0.913623 9.61136V1.38876C0.913623 1.13659 1.11828 0.931955 1.37042 0.931955H5.48174C5.73435 0.931955 5.93854 0.727768 5.93854 0.475154C5.93854 0.222541 5.73435 0.0183105 5.48174 0.0183105H1.37042C0.614861 0.0183105 0 0.633193 0 1.38876V9.61134C0 10.3669 0.614861 10.9818 1.37042 10.9818H5.48174C5.73435 10.9818 5.93854 10.7776 5.93854 10.525C5.93854 10.2724 5.73435 10.0682 5.48174 10.0682Z" fill="#B20E11"/>
<path d="M10.8639 5.17475L8.08646 2.43388C7.90739 2.25663 7.61778 2.25893 7.44054 2.43846C7.26329 2.61798 7.26512 2.90714 7.44511 3.08438L9.42994 5.04318H4.1113C3.85868 5.04318 3.6545 5.24737 3.6545 5.49998C3.6545 5.75259 3.85868 5.9568 4.1113 5.9568H9.42994L7.44511 7.9156C7.26514 8.09284 7.26376 8.382 7.44054 8.56153C7.53006 8.65198 7.64792 8.69765 7.76579 8.69765C7.88182 8.69765 7.99784 8.6538 8.08646 8.56608L10.8639 5.82521C10.9507 5.73934 11 5.62238 11 5.49996C11 5.37758 10.9511 5.2611 10.8639 5.17475Z" fill="#B20E11"/>
</svg>
