<svg width="135" height="15" viewBox="0 0 135 15" fill="none" xmlns="http://www.w3.org/2000/svg">
<path d="M10.692 1.526V3.92H6.93V14H4.122V3.92H0.36V1.526H10.692ZM10.5131 9.338C10.5131 8.498 10.6391 7.766 10.8911 7.142C11.1551 6.506 11.4971 5.978 11.9171 5.558C12.3371 5.138 12.8171 4.82 13.3571 4.604C13.9091 4.388 14.4731 4.28 15.0491 4.28C16.3931 4.28 17.4551 4.694 18.2351 5.522C19.0151 6.338 19.4051 7.544 19.4051 9.14C19.4051 9.296 19.3991 9.47 19.3871 9.662C19.3751 9.842 19.3631 10.004 19.3511 10.148H13.2671C13.3271 10.7 13.5851 11.138 14.0411 11.462C14.4971 11.786 15.1091 11.948 15.8771 11.948C16.3691 11.948 16.8491 11.906 17.3171 11.822C17.7971 11.726 18.1871 11.612 18.4871 11.48L18.8471 13.658C18.7031 13.73 18.5111 13.802 18.2711 13.874C18.0311 13.946 17.7611 14.006 17.4611 14.054C17.1731 14.114 16.8611 14.162 16.5251 14.198C16.1891 14.234 15.8531 14.252 15.5171 14.252C14.6651 14.252 13.9211 14.126 13.2851 13.874C12.6611 13.622 12.1391 13.28 11.7191 12.848C11.3111 12.404 11.0051 11.882 10.8011 11.282C10.6091 10.682 10.5131 10.034 10.5131 9.338ZM16.8131 8.312C16.8011 8.084 16.7591 7.862 16.6871 7.646C16.6271 7.43 16.5251 7.238 16.3811 7.07C16.2491 6.902 16.0751 6.764 15.8591 6.656C15.6551 6.548 15.3971 6.494 15.0851 6.494C14.7851 6.494 14.5271 6.548 14.3111 6.656C14.0951 6.752 13.9151 6.884 13.7711 7.052C13.6271 7.22 13.5131 7.418 13.4291 7.646C13.3571 7.862 13.3031 8.084 13.2671 8.312H16.8131ZM25.2548 14.18C24.4748 14.168 23.8388 14.084 23.3468 13.928C22.8668 13.772 22.4828 13.556 22.1948 13.28C21.9188 12.992 21.7268 12.65 21.6188 12.254C21.5228 11.846 21.4748 11.39 21.4748 10.886V0.463999L24.1568 0.0319996V10.346C24.1568 10.586 24.1748 10.802 24.2108 10.994C24.2468 11.186 24.3128 11.348 24.4088 11.48C24.5168 11.612 24.6668 11.72 24.8588 11.804C25.0508 11.888 25.3088 11.942 25.6328 11.966L25.2548 14.18ZM30.2376 12.578C30.2376 13.118 30.0636 13.532 29.7156 13.82C29.3796 14.096 28.9956 14.234 28.5636 14.234C28.1316 14.234 27.7416 14.096 27.3936 13.82C27.0576 13.532 26.8896 13.118 26.8896 12.578C26.8896 12.038 27.0576 11.63 27.3936 11.354C27.7416 11.066 28.1316 10.922 28.5636 10.922C28.9956 10.922 29.3796 11.066 29.7156 11.354C30.0636 11.63 30.2376 12.038 30.2376 12.578ZM40.3055 7.304C40.5815 7.304 40.8695 7.28 41.1695 7.232C41.4695 7.172 41.6915 7.094 41.8355 6.998V6.836C41.8355 6.788 41.8355 6.74 41.8355 6.692C41.8475 6.644 41.8535 6.602 41.8535 6.566C41.8415 6.134 41.8055 5.732 41.7455 5.36C41.6855 4.976 41.5835 4.646 41.4395 4.37C41.2955 4.082 41.0975 3.86 40.8455 3.704C40.6055 3.536 40.3055 3.452 39.9455 3.452C39.6575 3.452 39.4055 3.512 39.1895 3.632C38.9735 3.752 38.7995 3.908 38.6675 4.1C38.5355 4.292 38.4335 4.502 38.3615 4.73C38.3015 4.958 38.2715 5.18 38.2715 5.396C38.2715 6.044 38.4275 6.524 38.7395 6.836C39.0635 7.148 39.5855 7.304 40.3055 7.304ZM41.6195 9.05C41.3675 9.17 41.0855 9.26 40.7735 9.32C40.4735 9.368 40.2155 9.392 39.9995 9.392C39.2195 9.392 38.5535 9.302 38.0015 9.122C37.4495 8.93 36.9935 8.666 36.6335 8.33C36.2855 7.982 36.0275 7.568 35.8595 7.088C35.6915 6.608 35.6075 6.08 35.6075 5.504C35.6075 5.024 35.6855 4.532 35.8415 4.028C36.0095 3.524 36.2675 3.068 36.6155 2.66C36.9635 2.24 37.4015 1.898 37.9295 1.634C38.4695 1.358 39.1175 1.22 39.8735 1.22C41.4215 1.22 42.5855 1.7 43.3655 2.66C44.1575 3.608 44.5535 4.976 44.5535 6.764C44.5535 7.94 44.3975 8.978 44.0855 9.878C43.7855 10.778 43.3115 11.534 42.6635 12.146C42.0275 12.758 41.2115 13.226 40.2155 13.55C39.2195 13.862 38.0375 14.024 36.6695 14.036C36.6575 13.652 36.6395 13.28 36.6155 12.92C36.5915 12.56 36.5675 12.188 36.5435 11.804C37.2275 11.792 37.8455 11.744 38.3975 11.66C38.9495 11.564 39.4355 11.414 39.8555 11.21C40.2755 10.994 40.6295 10.712 40.9175 10.364C41.2175 10.016 41.4515 9.578 41.6195 9.05ZM49.438 14.27C49.114 14.27 48.772 14.246 48.412 14.198C48.052 14.162 47.704 14.108 47.368 14.036C47.032 13.964 46.726 13.886 46.45 13.802C46.174 13.718 45.958 13.64 45.802 13.568L46.324 11.336C46.636 11.468 47.032 11.612 47.512 11.768C48.004 11.912 48.61 11.984 49.33 11.984C50.158 11.984 50.764 11.828 51.148 11.516C51.532 11.204 51.724 10.784 51.724 10.256C51.724 9.932 51.652 9.662 51.508 9.446C51.376 9.218 51.19 9.038 50.95 8.906C50.71 8.762 50.422 8.666 50.086 8.618C49.762 8.558 49.414 8.528 49.042 8.528H47.998V6.368H49.186C49.45 6.368 49.702 6.344 49.942 6.296C50.194 6.248 50.416 6.17 50.608 6.062C50.8 5.942 50.95 5.786 51.058 5.594C51.178 5.39 51.238 5.138 51.238 4.838C51.238 4.61 51.19 4.412 51.094 4.244C50.998 4.076 50.872 3.938 50.716 3.83C50.572 3.722 50.398 3.644 50.194 3.596C50.002 3.536 49.804 3.506 49.6 3.506C49.084 3.506 48.604 3.584 48.16 3.74C47.728 3.896 47.332 4.088 46.972 4.316L46.018 2.354C46.21 2.234 46.432 2.108 46.684 1.976C46.948 1.844 47.236 1.724 47.548 1.616C47.86 1.508 48.19 1.418 48.538 1.346C48.898 1.274 49.276 1.238 49.672 1.238C50.404 1.238 51.034 1.328 51.562 1.508C52.102 1.676 52.546 1.922 52.894 2.246C53.242 2.558 53.5 2.93 53.668 3.362C53.836 3.782 53.92 4.244 53.92 4.748C53.92 5.24 53.782 5.72 53.506 6.188C53.23 6.644 52.858 6.992 52.39 7.232C53.038 7.496 53.536 7.892 53.884 8.42C54.244 8.936 54.424 9.56 54.424 10.292C54.424 10.868 54.328 11.402 54.136 11.894C53.944 12.374 53.644 12.794 53.236 13.154C52.828 13.502 52.306 13.778 51.67 13.982C51.046 14.174 50.302 14.27 49.438 14.27ZM64.4925 4.802C64.4925 5.258 64.4025 5.696 64.2225 6.116C64.0425 6.536 63.8085 6.944 63.5205 7.34C63.2325 7.724 62.9085 8.096 62.5485 8.456C62.1885 8.816 61.8345 9.158 61.4865 9.482C61.3065 9.65 61.1085 9.842 60.8925 10.058C60.6885 10.262 60.4905 10.472 60.2985 10.688C60.1065 10.904 59.9325 11.108 59.7765 11.3C59.6325 11.48 59.5425 11.63 59.5065 11.75H64.8705V14H56.5545C56.5305 13.868 56.5185 13.7 56.5185 13.496C56.5185 13.292 56.5185 13.148 56.5185 13.064C56.5185 12.488 56.6085 11.96 56.7885 11.48C56.9805 11 57.2265 10.556 57.5265 10.148C57.8265 9.728 58.1625 9.338 58.5345 8.978C58.9185 8.618 59.2965 8.258 59.6685 7.898C59.9565 7.622 60.2265 7.364 60.4785 7.124C60.7305 6.872 60.9525 6.632 61.1445 6.404C61.3365 6.164 61.4865 5.93 61.5945 5.702C61.7025 5.462 61.7565 5.222 61.7565 4.982C61.7565 4.454 61.6065 4.082 61.3065 3.866C61.0065 3.65 60.6345 3.542 60.1905 3.542C59.8665 3.542 59.5605 3.596 59.2725 3.704C58.9965 3.8 58.7385 3.92 58.4985 4.064C58.2705 4.196 58.0725 4.334 57.9045 4.478C57.7365 4.61 57.6105 4.718 57.5265 4.802L56.1945 2.93C56.7225 2.438 57.3345 2.036 58.0305 1.724C58.7385 1.4 59.4945 1.238 60.2985 1.238C61.0305 1.238 61.6605 1.322 62.1885 1.49C62.7165 1.658 63.1485 1.898 63.4845 2.21C63.8325 2.51 64.0845 2.882 64.2405 3.326C64.4085 3.758 64.4925 4.25 64.4925 4.802ZM79.7311 7.736C79.7311 9.836 79.3291 11.45 78.5251 12.578C77.7331 13.694 76.6351 14.252 75.2311 14.252C73.8271 14.252 72.7231 13.694 71.9191 12.578C71.1271 11.45 70.7311 9.836 70.7311 7.736C70.7311 6.692 70.8331 5.768 71.0371 4.964C71.2531 4.16 71.5591 3.482 71.9551 2.93C72.3511 2.378 72.8251 1.958 73.3771 1.67C73.9291 1.382 74.5471 1.238 75.2311 1.238C76.6351 1.238 77.7331 1.802 78.5251 2.93C79.3291 4.046 79.7311 5.648 79.7311 7.736ZM76.9951 7.736C76.9951 7.112 76.9651 6.548 76.9051 6.044C76.8451 5.528 76.7491 5.084 76.6171 4.712C76.4851 4.34 76.3051 4.052 76.0771 3.848C75.8491 3.644 75.5671 3.542 75.2311 3.542C74.8951 3.542 74.6131 3.644 74.3851 3.848C74.1691 4.052 73.9891 4.34 73.8451 4.712C73.7131 5.084 73.6171 5.528 73.5571 6.044C73.4971 6.548 73.4671 7.112 73.4671 7.736C73.4671 8.36 73.4971 8.93 73.5571 9.446C73.6171 9.962 73.7131 10.406 73.8451 10.778C73.9891 11.15 74.1691 11.438 74.3851 11.642C74.6131 11.846 74.8951 11.948 75.2311 11.948C75.5671 11.948 75.8491 11.846 76.0771 11.642C76.3051 11.438 76.4851 11.15 76.6171 10.778C76.7491 10.406 76.8451 9.962 76.9051 9.446C76.9651 8.93 76.9951 8.36 76.9951 7.736ZM85.5516 7.304C85.8276 7.304 86.1156 7.28 86.4156 7.232C86.7156 7.172 86.9376 7.094 87.0816 6.998V6.836C87.0816 6.788 87.0816 6.74 87.0816 6.692C87.0936 6.644 87.0996 6.602 87.0996 6.566C87.0876 6.134 87.0516 5.732 86.9916 5.36C86.9316 4.976 86.8296 4.646 86.6856 4.37C86.5416 4.082 86.3436 3.86 86.0916 3.704C85.8516 3.536 85.5516 3.452 85.1916 3.452C84.9036 3.452 84.6516 3.512 84.4356 3.632C84.2196 3.752 84.0456 3.908 83.9136 4.1C83.7816 4.292 83.6796 4.502 83.6076 4.73C83.5476 4.958 83.5176 5.18 83.5176 5.396C83.5176 6.044 83.6736 6.524 83.9856 6.836C84.3096 7.148 84.8316 7.304 85.5516 7.304ZM86.8656 9.05C86.6136 9.17 86.3316 9.26 86.0196 9.32C85.7196 9.368 85.4616 9.392 85.2456 9.392C84.4656 9.392 83.7996 9.302 83.2476 9.122C82.6956 8.93 82.2396 8.666 81.8796 8.33C81.5316 7.982 81.2736 7.568 81.1056 7.088C80.9376 6.608 80.8536 6.08 80.8536 5.504C80.8536 5.024 80.9316 4.532 81.0876 4.028C81.2556 3.524 81.5136 3.068 81.8616 2.66C82.2096 2.24 82.6476 1.898 83.1756 1.634C83.7156 1.358 84.3636 1.22 85.1196 1.22C86.6676 1.22 87.8316 1.7 88.6116 2.66C89.4036 3.608 89.7996 4.976 89.7996 6.764C89.7996 7.94 89.6436 8.978 89.3316 9.878C89.0316 10.778 88.5576 11.534 87.9096 12.146C87.2736 12.758 86.4576 13.226 85.4616 13.55C84.4656 13.862 83.2836 14.024 81.9156 14.036C81.9036 13.652 81.8856 13.28 81.8616 12.92C81.8376 12.56 81.8136 12.188 81.7896 11.804C82.4736 11.792 83.0916 11.744 83.6436 11.66C84.1956 11.564 84.6816 11.414 85.1016 11.21C85.5216 10.994 85.8756 10.712 86.1636 10.364C86.4636 10.016 86.6976 9.578 86.8656 9.05ZM100.192 7.736C100.192 9.836 99.7901 11.45 98.9861 12.578C98.1941 13.694 97.0961 14.252 95.6921 14.252C94.2881 14.252 93.1841 13.694 92.3801 12.578C91.5881 11.45 91.1921 9.836 91.1921 7.736C91.1921 6.692 91.2941 5.768 91.4981 4.964C91.7141 4.16 92.0201 3.482 92.4161 2.93C92.8121 2.378 93.2861 1.958 93.8381 1.67C94.3901 1.382 95.0081 1.238 95.6921 1.238C97.0961 1.238 98.1941 1.802 98.9861 2.93C99.7901 4.046 100.192 5.648 100.192 7.736ZM97.4561 7.736C97.4561 7.112 97.4261 6.548 97.3661 6.044C97.3061 5.528 97.2101 5.084 97.0781 4.712C96.9461 4.34 96.7661 4.052 96.5381 3.848C96.3101 3.644 96.0281 3.542 95.6921 3.542C95.3561 3.542 95.0741 3.644 94.8461 3.848C94.6301 4.052 94.4501 4.34 94.3061 4.712C94.1741 5.084 94.0781 5.528 94.0181 6.044C93.9581 6.548 93.9281 7.112 93.9281 7.736C93.9281 8.36 93.9581 8.93 94.0181 9.446C94.0781 9.962 94.1741 10.406 94.3061 10.778C94.4501 11.15 94.6301 11.438 94.8461 11.642C95.0741 11.846 95.3561 11.948 95.6921 11.948C96.0281 11.948 96.3101 11.846 96.5381 11.642C96.7661 11.438 96.9461 11.15 97.0781 10.778C97.2101 10.406 97.3061 9.962 97.3661 9.446C97.4261 8.93 97.4561 8.36 97.4561 7.736ZM113.67 4.766C113.67 5.198 113.58 5.624 113.4 6.044C113.22 6.452 112.986 6.854 112.698 7.25C112.422 7.634 112.104 8.012 111.744 8.384C111.384 8.744 111.024 9.098 110.664 9.446C110.472 9.626 110.256 9.842 110.016 10.094C109.776 10.346 109.548 10.598 109.332 10.85C109.116 11.102 108.93 11.348 108.774 11.588C108.618 11.816 108.534 12.008 108.522 12.164H114.066V14H106.128C106.116 13.904 106.11 13.79 106.11 13.658C106.11 13.514 106.11 13.406 106.11 13.334C106.11 12.758 106.2 12.23 106.38 11.75C106.572 11.258 106.818 10.802 107.118 10.382C107.418 9.962 107.754 9.566 108.126 9.194C108.498 8.822 108.87 8.456 109.242 8.096C109.53 7.82 109.806 7.55 110.07 7.286C110.334 7.022 110.562 6.764 110.754 6.512C110.958 6.248 111.12 5.984 111.24 5.72C111.36 5.444 111.42 5.162 111.42 4.874C111.42 4.25 111.24 3.806 110.88 3.542C110.52 3.278 110.082 3.146 109.566 3.146C109.23 3.146 108.918 3.194 108.63 3.29C108.342 3.386 108.084 3.5 107.856 3.632C107.64 3.764 107.448 3.902 107.28 4.046C107.112 4.178 106.986 4.286 106.902 4.37L105.822 2.84C106.326 2.36 106.914 1.976 107.586 1.688C108.27 1.388 109.002 1.238 109.782 1.238C111.114 1.238 112.092 1.556 112.716 2.192C113.352 2.816 113.67 3.674 113.67 4.766ZM122.136 10.436C122.136 10.04 122.058 9.686 121.902 9.374C121.746 9.062 121.47 8.798 121.074 8.582C120.69 8.366 120.168 8.204 119.508 8.096C118.86 7.988 118.038 7.934 117.042 7.934C117.174 6.782 117.276 5.69 117.348 4.658C117.42 3.614 117.48 2.57 117.528 1.526H123.9V3.362H119.382C119.37 3.566 119.352 3.8 119.328 4.064C119.316 4.316 119.298 4.574 119.274 4.838C119.262 5.102 119.244 5.354 119.22 5.594C119.196 5.834 119.172 6.038 119.148 6.206C120.924 6.302 122.232 6.71 123.072 7.43C123.924 8.138 124.35 9.11 124.35 10.346C124.35 10.91 124.254 11.432 124.062 11.912C123.87 12.392 123.576 12.806 123.18 13.154C122.784 13.502 122.286 13.778 121.686 13.982C121.086 14.174 120.384 14.27 119.58 14.27C119.256 14.27 118.926 14.246 118.59 14.198C118.254 14.15 117.93 14.09 117.618 14.018C117.318 13.958 117.048 13.892 116.808 13.82C116.568 13.748 116.388 13.682 116.268 13.622L116.682 11.786C116.934 11.906 117.294 12.038 117.762 12.182C118.242 12.314 118.824 12.38 119.508 12.38C119.976 12.38 120.378 12.332 120.714 12.236C121.05 12.128 121.32 11.984 121.524 11.804C121.74 11.624 121.896 11.42 121.992 11.192C122.088 10.952 122.136 10.7 122.136 10.436ZM132.367 10.436C132.367 10.04 132.289 9.686 132.133 9.374C131.977 9.062 131.701 8.798 131.305 8.582C130.921 8.366 130.399 8.204 129.739 8.096C129.091 7.988 128.269 7.934 127.273 7.934C127.405 6.782 127.507 5.69 127.579 4.658C127.651 3.614 127.711 2.57 127.759 1.526H134.131V3.362H129.613C129.601 3.566 129.583 3.8 129.559 4.064C129.547 4.316 129.529 4.574 129.505 4.838C129.493 5.102 129.475 5.354 129.451 5.594C129.427 5.834 129.403 6.038 129.379 6.206C131.155 6.302 132.463 6.71 133.303 7.43C134.155 8.138 134.581 9.11 134.581 10.346C134.581 10.91 134.485 11.432 134.293 11.912C134.101 12.392 133.807 12.806 133.411 13.154C133.015 13.502 132.517 13.778 131.917 13.982C131.317 14.174 130.615 14.27 129.811 14.27C129.487 14.27 129.157 14.246 128.821 14.198C128.485 14.15 128.161 14.09 127.849 14.018C127.549 13.958 127.279 13.892 127.039 13.82C126.799 13.748 126.619 13.682 126.499 13.622L126.913 11.786C127.165 11.906 127.525 12.038 127.993 12.182C128.473 12.314 129.055 12.38 129.739 12.38C130.207 12.38 130.609 12.332 130.945 12.236C131.281 12.128 131.551 11.984 131.755 11.804C131.971 11.624 132.127 11.42 132.223 11.192C132.319 10.952 132.367 10.7 132.367 10.436Z" fill="black"/>
</svg>
