<svg width="449" height="58" viewBox="0 0 449 58" fill="none" xmlns="http://www.w3.org/2000/svg">
<path d="M100.705 2.526H103.513V15H100.705V9.708H95.9892V15H93.1812V2.526H95.9892V7.296H100.705V2.526ZM115.076 10.248C115.076 10.992 114.968 11.676 114.752 12.3C114.536 12.912 114.224 13.44 113.816 13.884C113.408 14.316 112.916 14.652 112.34 14.892C111.776 15.132 111.14 15.252 110.432 15.252C109.736 15.252 109.1 15.132 108.524 14.892C107.96 14.652 107.474 14.316 107.066 13.884C106.658 13.44 106.34 12.912 106.112 12.3C105.884 11.676 105.77 10.992 105.77 10.248C105.77 9.504 105.884 8.826 106.112 8.214C106.352 7.602 106.676 7.08 107.084 6.648C107.504 6.216 107.996 5.88 108.56 5.64C109.136 5.4 109.76 5.28 110.432 5.28C111.116 5.28 111.74 5.4 112.304 5.64C112.88 5.88 113.372 6.216 113.78 6.648C114.188 7.08 114.506 7.602 114.734 8.214C114.962 8.826 115.076 9.504 115.076 10.248ZM112.34 10.248C112.34 9.42 112.172 8.772 111.836 8.304C111.512 7.824 111.044 7.584 110.432 7.584C109.82 7.584 109.346 7.824 109.01 8.304C108.674 8.772 108.506 9.42 108.506 10.248C108.506 11.076 108.674 11.736 109.01 12.228C109.346 12.708 109.82 12.948 110.432 12.948C111.044 12.948 111.512 12.708 111.836 12.228C112.172 11.736 112.34 11.076 112.34 10.248ZM122.86 7.908C122.62 7.848 122.338 7.788 122.014 7.728C121.69 7.656 121.342 7.62 120.97 7.62C120.802 7.62 120.598 7.638 120.358 7.674C120.13 7.698 119.956 7.728 119.836 7.764V15H117.154V6.036C117.634 5.868 118.198 5.712 118.846 5.568C119.506 5.412 120.238 5.334 121.042 5.334C121.186 5.334 121.36 5.346 121.564 5.37C121.768 5.382 121.972 5.406 122.176 5.442C122.38 5.466 122.584 5.502 122.788 5.55C122.992 5.586 123.166 5.634 123.31 5.694L122.86 7.908ZM128.19 13.128C128.454 13.128 128.706 13.122 128.946 13.11C129.186 13.098 129.378 13.08 129.522 13.056V11.022C129.414 10.998 129.252 10.974 129.036 10.95C128.82 10.926 128.622 10.914 128.442 10.914C128.19 10.914 127.95 10.932 127.722 10.968C127.506 10.992 127.314 11.046 127.146 11.13C126.978 11.214 126.846 11.328 126.75 11.472C126.654 11.616 126.606 11.796 126.606 12.012C126.606 12.432 126.744 12.726 127.02 12.894C127.308 13.05 127.698 13.128 128.19 13.128ZM127.974 5.28C128.766 5.28 129.426 5.37 129.954 5.55C130.482 5.73 130.902 5.988 131.214 6.324C131.538 6.66 131.766 7.068 131.898 7.548C132.03 8.028 132.096 8.562 132.096 9.15V14.73C131.712 14.814 131.178 14.91 130.494 15.018C129.81 15.138 128.982 15.198 128.01 15.198C127.398 15.198 126.84 15.144 126.336 15.036C125.844 14.928 125.418 14.754 125.058 14.514C124.698 14.262 124.422 13.938 124.23 13.542C124.038 13.146 123.942 12.66 123.942 12.084C123.942 11.532 124.05 11.064 124.266 10.68C124.494 10.296 124.794 9.99 125.166 9.762C125.538 9.534 125.964 9.372 126.444 9.276C126.924 9.168 127.422 9.114 127.938 9.114C128.286 9.114 128.592 9.132 128.856 9.168C129.132 9.192 129.354 9.228 129.522 9.276V9.024C129.522 8.568 129.384 8.202 129.108 7.926C128.832 7.65 128.352 7.512 127.668 7.512C127.212 7.512 126.762 7.548 126.318 7.62C125.874 7.68 125.49 7.77 125.166 7.89L124.824 5.73C124.98 5.682 125.172 5.634 125.4 5.586C125.64 5.526 125.898 5.478 126.174 5.442C126.45 5.394 126.738 5.358 127.038 5.334C127.35 5.298 127.662 5.28 127.974 5.28ZM140.227 7.908C139.987 7.848 139.705 7.788 139.381 7.728C139.057 7.656 138.709 7.62 138.337 7.62C138.169 7.62 137.965 7.638 137.725 7.674C137.497 7.698 137.323 7.728 137.203 7.764V15H134.521V6.036C135.001 5.868 135.565 5.712 136.213 5.568C136.873 5.412 137.605 5.334 138.409 5.334C138.553 5.334 138.727 5.346 138.931 5.37C139.135 5.382 139.339 5.406 139.543 5.442C139.747 5.466 139.951 5.502 140.155 5.55C140.359 5.586 140.533 5.634 140.677 5.694L140.227 7.908ZM144.796 15H142.114V5.532H144.796V15ZM145.048 2.796C145.048 3.288 144.886 3.678 144.562 3.966C144.25 4.242 143.878 4.38 143.446 4.38C143.014 4.38 142.636 4.242 142.312 3.966C142 3.678 141.844 3.288 141.844 2.796C141.844 2.304 142 1.92 142.312 1.644C142.636 1.356 143.014 1.212 143.446 1.212C143.878 1.212 144.25 1.356 144.562 1.644C144.886 1.92 145.048 2.304 145.048 2.796ZM156.174 10.248C156.174 10.992 156.066 11.676 155.85 12.3C155.634 12.912 155.322 13.44 154.914 13.884C154.506 14.316 154.014 14.652 153.438 14.892C152.874 15.132 152.238 15.252 151.53 15.252C150.834 15.252 150.198 15.132 149.622 14.892C149.058 14.652 148.572 14.316 148.164 13.884C147.756 13.44 147.438 12.912 147.21 12.3C146.982 11.676 146.868 10.992 146.868 10.248C146.868 9.504 146.982 8.826 147.21 8.214C147.45 7.602 147.774 7.08 148.182 6.648C148.602 6.216 149.094 5.88 149.658 5.64C150.234 5.4 150.858 5.28 151.53 5.28C152.214 5.28 152.838 5.4 153.402 5.64C153.978 5.88 154.47 6.216 154.878 6.648C155.286 7.08 155.604 7.602 155.832 8.214C156.06 8.826 156.174 9.504 156.174 10.248ZM153.438 10.248C153.438 9.42 153.27 8.772 152.934 8.304C152.61 7.824 152.142 7.584 151.53 7.584C150.918 7.584 150.444 7.824 150.108 8.304C149.772 8.772 149.604 9.42 149.604 10.248C149.604 11.076 149.772 11.736 150.108 12.228C150.444 12.708 150.918 12.948 151.53 12.948C152.142 12.948 152.61 12.708 152.934 12.228C153.27 11.736 153.438 11.076 153.438 10.248ZM164.861 10.194C164.861 11.022 165.047 11.688 165.419 12.192C165.791 12.696 166.343 12.948 167.075 12.948C167.315 12.948 167.537 12.942 167.741 12.93C167.945 12.906 168.113 12.882 168.245 12.858V7.98C168.077 7.872 167.855 7.782 167.579 7.71C167.315 7.638 167.045 7.602 166.769 7.602C165.497 7.602 164.861 8.466 164.861 10.194ZM170.927 14.694C170.687 14.766 170.411 14.838 170.099 14.91C169.787 14.97 169.457 15.024 169.109 15.072C168.773 15.12 168.425 15.156 168.065 15.18C167.717 15.216 167.381 15.234 167.057 15.234C166.277 15.234 165.581 15.12 164.969 14.892C164.357 14.664 163.841 14.34 163.421 13.92C163.001 13.488 162.677 12.972 162.449 12.372C162.233 11.76 162.125 11.076 162.125 10.32C162.125 9.552 162.221 8.862 162.413 8.25C162.605 7.626 162.881 7.098 163.241 6.666C163.601 6.234 164.039 5.904 164.555 5.676C165.083 5.448 165.683 5.334 166.355 5.334C166.727 5.334 167.057 5.37 167.345 5.442C167.645 5.514 167.945 5.616 168.245 5.748V1.464L170.927 1.032V14.694ZM172.989 10.338C172.989 9.498 173.115 8.766 173.367 8.142C173.631 7.506 173.973 6.978 174.393 6.558C174.813 6.138 175.293 5.82 175.833 5.604C176.385 5.388 176.949 5.28 177.525 5.28C178.869 5.28 179.931 5.694 180.711 6.522C181.491 7.338 181.881 8.544 181.881 10.14C181.881 10.296 181.875 10.47 181.863 10.662C181.851 10.842 181.839 11.004 181.827 11.148H175.743C175.803 11.7 176.061 12.138 176.517 12.462C176.973 12.786 177.585 12.948 178.353 12.948C178.845 12.948 179.325 12.906 179.793 12.822C180.273 12.726 180.663 12.612 180.963 12.48L181.323 14.658C181.179 14.73 180.987 14.802 180.747 14.874C180.507 14.946 180.237 15.006 179.937 15.054C179.649 15.114 179.337 15.162 179.001 15.198C178.665 15.234 178.329 15.252 177.993 15.252C177.141 15.252 176.397 15.126 175.761 14.874C175.137 14.622 174.615 14.28 174.195 13.848C173.787 13.404 173.481 12.882 173.277 12.282C173.085 11.682 172.989 11.034 172.989 10.338ZM179.289 9.312C179.277 9.084 179.235 8.862 179.163 8.646C179.103 8.43 179.001 8.238 178.857 8.07C178.725 7.902 178.551 7.764 178.335 7.656C178.131 7.548 177.873 7.494 177.561 7.494C177.261 7.494 177.003 7.548 176.787 7.656C176.571 7.752 176.391 7.884 176.247 8.052C176.103 8.22 175.989 8.418 175.905 8.646C175.833 8.862 175.779 9.084 175.743 9.312H179.289ZM191.893 13.128C192.157 13.128 192.409 13.122 192.649 13.11C192.889 13.098 193.081 13.08 193.225 13.056V11.022C193.117 10.998 192.955 10.974 192.739 10.95C192.523 10.926 192.325 10.914 192.145 10.914C191.893 10.914 191.653 10.932 191.425 10.968C191.209 10.992 191.017 11.046 190.849 11.13C190.681 11.214 190.549 11.328 190.453 11.472C190.357 11.616 190.309 11.796 190.309 12.012C190.309 12.432 190.447 12.726 190.723 12.894C191.011 13.05 191.401 13.128 191.893 13.128ZM191.677 5.28C192.469 5.28 193.129 5.37 193.657 5.55C194.185 5.73 194.605 5.988 194.917 6.324C195.241 6.66 195.469 7.068 195.601 7.548C195.733 8.028 195.799 8.562 195.799 9.15V14.73C195.415 14.814 194.881 14.91 194.197 15.018C193.513 15.138 192.685 15.198 191.713 15.198C191.101 15.198 190.543 15.144 190.039 15.036C189.547 14.928 189.121 14.754 188.761 14.514C188.401 14.262 188.125 13.938 187.933 13.542C187.741 13.146 187.645 12.66 187.645 12.084C187.645 11.532 187.753 11.064 187.969 10.68C188.197 10.296 188.497 9.99 188.869 9.762C189.241 9.534 189.667 9.372 190.147 9.276C190.627 9.168 191.125 9.114 191.641 9.114C191.989 9.114 192.295 9.132 192.559 9.168C192.835 9.192 193.057 9.228 193.225 9.276V9.024C193.225 8.568 193.087 8.202 192.811 7.926C192.535 7.65 192.055 7.512 191.371 7.512C190.915 7.512 190.465 7.548 190.021 7.62C189.577 7.68 189.193 7.77 188.869 7.89L188.527 5.73C188.683 5.682 188.875 5.634 189.103 5.586C189.343 5.526 189.601 5.478 189.877 5.442C190.153 5.394 190.441 5.358 190.741 5.334C191.053 5.298 191.365 5.28 191.677 5.28ZM198.134 3.174L200.816 2.742V5.532H204.038V7.764H200.816V11.094C200.816 11.658 200.912 12.108 201.104 12.444C201.308 12.78 201.71 12.948 202.31 12.948C202.598 12.948 202.892 12.924 203.192 12.876C203.504 12.816 203.786 12.738 204.038 12.642L204.416 14.73C204.092 14.862 203.732 14.976 203.336 15.072C202.94 15.168 202.454 15.216 201.878 15.216C201.146 15.216 200.54 15.12 200.06 14.928C199.58 14.724 199.196 14.448 198.908 14.1C198.62 13.74 198.416 13.308 198.296 12.804C198.188 12.3 198.134 11.742 198.134 11.13V3.174ZM205.42 10.338C205.42 9.498 205.546 8.766 205.798 8.142C206.062 7.506 206.404 6.978 206.824 6.558C207.244 6.138 207.724 5.82 208.264 5.604C208.816 5.388 209.38 5.28 209.956 5.28C211.3 5.28 212.362 5.694 213.142 6.522C213.922 7.338 214.312 8.544 214.312 10.14C214.312 10.296 214.306 10.47 214.294 10.662C214.282 10.842 214.27 11.004 214.258 11.148H208.174C208.234 11.7 208.492 12.138 208.948 12.462C209.404 12.786 210.016 12.948 210.784 12.948C211.276 12.948 211.756 12.906 212.224 12.822C212.704 12.726 213.094 12.612 213.394 12.48L213.754 14.658C213.61 14.73 213.418 14.802 213.178 14.874C212.938 14.946 212.668 15.006 212.368 15.054C212.08 15.114 211.768 15.162 211.432 15.198C211.096 15.234 210.76 15.252 210.424 15.252C209.572 15.252 208.828 15.126 208.192 14.874C207.568 14.622 207.046 14.28 206.626 13.848C206.218 13.404 205.912 12.882 205.708 12.282C205.516 11.682 205.42 11.034 205.42 10.338ZM211.72 9.312C211.708 9.084 211.666 8.862 211.594 8.646C211.534 8.43 211.432 8.238 211.288 8.07C211.156 7.902 210.982 7.764 210.766 7.656C210.562 7.548 210.304 7.494 209.992 7.494C209.692 7.494 209.434 7.548 209.218 7.656C209.002 7.752 208.822 7.884 208.678 8.052C208.534 8.22 208.42 8.418 208.336 8.646C208.264 8.862 208.21 9.084 208.174 9.312H211.72ZM216.382 5.856C216.838 5.724 217.426 5.604 218.146 5.496C218.866 5.376 219.622 5.316 220.414 5.316C221.218 5.316 221.884 5.424 222.412 5.64C222.952 5.844 223.378 6.138 223.69 6.522C224.002 6.906 224.224 7.362 224.356 7.89C224.488 8.418 224.554 9.006 224.554 9.654V15H221.872V9.978C221.872 9.114 221.758 8.502 221.53 8.142C221.302 7.782 220.876 7.602 220.252 7.602C220.06 7.602 219.856 7.614 219.64 7.638C219.424 7.65 219.232 7.668 219.064 7.692V15H216.382V5.856ZM226.532 10.266C226.532 9.582 226.64 8.94 226.856 8.34C227.084 7.728 227.408 7.2 227.828 6.756C228.248 6.3 228.758 5.94 229.358 5.676C229.958 5.412 230.642 5.28 231.41 5.28C231.914 5.28 232.376 5.328 232.796 5.424C233.216 5.508 233.624 5.634 234.02 5.802L233.462 7.944C233.21 7.848 232.934 7.764 232.634 7.692C232.334 7.62 231.998 7.584 231.626 7.584C230.834 7.584 230.24 7.83 229.844 8.322C229.46 8.814 229.268 9.462 229.268 10.266C229.268 11.118 229.448 11.778 229.808 12.246C230.18 12.714 230.822 12.948 231.734 12.948C232.058 12.948 232.406 12.918 232.778 12.858C233.15 12.798 233.492 12.702 233.804 12.57L234.182 14.766C233.87 14.898 233.48 15.012 233.012 15.108C232.544 15.204 232.028 15.252 231.464 15.252C230.6 15.252 229.856 15.126 229.232 14.874C228.608 14.61 228.092 14.256 227.684 13.812C227.288 13.368 226.994 12.846 226.802 12.246C226.622 11.634 226.532 10.974 226.532 10.266ZM238.664 15H235.982V5.532H238.664V15ZM238.916 2.796C238.916 3.288 238.754 3.678 238.43 3.966C238.118 4.242 237.746 4.38 237.314 4.38C236.882 4.38 236.504 4.242 236.18 3.966C235.868 3.678 235.712 3.288 235.712 2.796C235.712 2.304 235.868 1.92 236.18 1.644C236.504 1.356 236.882 1.212 237.314 1.212C237.746 1.212 238.118 1.356 238.43 1.644C238.754 1.92 238.916 2.304 238.916 2.796ZM250.041 10.248C250.041 10.992 249.933 11.676 249.717 12.3C249.501 12.912 249.189 13.44 248.781 13.884C248.373 14.316 247.881 14.652 247.305 14.892C246.741 15.132 246.105 15.252 245.397 15.252C244.701 15.252 244.065 15.132 243.489 14.892C242.925 14.652 242.439 14.316 242.031 13.884C241.623 13.44 241.305 12.912 241.077 12.3C240.849 11.676 240.735 10.992 240.735 10.248C240.735 9.504 240.849 8.826 241.077 8.214C241.317 7.602 241.641 7.08 242.049 6.648C242.469 6.216 242.961 5.88 243.525 5.64C244.101 5.4 244.725 5.28 245.397 5.28C246.081 5.28 246.705 5.4 247.269 5.64C247.845 5.88 248.337 6.216 248.745 6.648C249.153 7.08 249.471 7.602 249.699 8.214C249.927 8.826 250.041 9.504 250.041 10.248ZM247.305 10.248C247.305 9.42 247.137 8.772 246.801 8.304C246.477 7.824 246.009 7.584 245.397 7.584C244.785 7.584 244.311 7.824 243.975 8.304C243.639 8.772 243.471 9.42 243.471 10.248C243.471 11.076 243.639 11.736 243.975 12.228C244.311 12.708 244.785 12.948 245.397 12.948C246.009 12.948 246.477 12.708 246.801 12.228C247.137 11.736 247.305 11.076 247.305 10.248ZM247.611 2.13L244.641 4.632L243.417 3.534L245.973 0.618L247.611 2.13ZM252.118 5.856C252.574 5.724 253.162 5.604 253.882 5.496C254.602 5.376 255.358 5.316 256.15 5.316C256.954 5.316 257.62 5.424 258.148 5.64C258.688 5.844 259.114 6.138 259.426 6.522C259.738 6.906 259.96 7.362 260.092 7.89C260.224 8.418 260.29 9.006 260.29 9.654V15H257.608V9.978C257.608 9.114 257.494 8.502 257.266 8.142C257.038 7.782 256.612 7.602 255.988 7.602C255.796 7.602 255.592 7.614 255.376 7.638C255.16 7.65 254.968 7.668 254.8 7.692V15H252.118V5.856ZM266.952 3.174L269.634 2.742V5.532H272.856V7.764H269.634V11.094C269.634 11.658 269.73 12.108 269.922 12.444C270.126 12.78 270.528 12.948 271.128 12.948C271.416 12.948 271.71 12.924 272.01 12.876C272.322 12.816 272.604 12.738 272.856 12.642L273.234 14.73C272.91 14.862 272.55 14.976 272.154 15.072C271.758 15.168 271.272 15.216 270.696 15.216C269.964 15.216 269.358 15.12 268.878 14.928C268.398 14.724 268.014 14.448 267.726 14.1C267.438 13.74 267.234 13.308 267.114 12.804C267.006 12.3 266.952 11.742 266.952 11.13V3.174ZM274.239 10.338C274.239 9.498 274.365 8.766 274.617 8.142C274.881 7.506 275.223 6.978 275.643 6.558C276.063 6.138 276.543 5.82 277.083 5.604C277.635 5.388 278.199 5.28 278.775 5.28C280.119 5.28 281.181 5.694 281.961 6.522C282.741 7.338 283.131 8.544 283.131 10.14C283.131 10.296 283.125 10.47 283.113 10.662C283.101 10.842 283.089 11.004 283.077 11.148H276.993C277.053 11.7 277.311 12.138 277.767 12.462C278.223 12.786 278.835 12.948 279.603 12.948C280.095 12.948 280.575 12.906 281.043 12.822C281.523 12.726 281.913 12.612 282.213 12.48L282.573 14.658C282.429 14.73 282.237 14.802 281.997 14.874C281.757 14.946 281.487 15.006 281.187 15.054C280.899 15.114 280.587 15.162 280.251 15.198C279.915 15.234 279.579 15.252 279.243 15.252C278.391 15.252 277.647 15.126 277.011 14.874C276.387 14.622 275.865 14.28 275.445 13.848C275.037 13.404 274.731 12.882 274.527 12.282C274.335 11.682 274.239 11.034 274.239 10.338ZM280.539 9.312C280.527 9.084 280.485 8.862 280.413 8.646C280.353 8.43 280.251 8.238 280.107 8.07C279.975 7.902 279.801 7.764 279.585 7.656C279.381 7.548 279.123 7.494 278.811 7.494C278.511 7.494 278.253 7.548 278.037 7.656C277.821 7.752 277.641 7.884 277.497 8.052C277.353 8.22 277.239 8.418 277.155 8.646C277.083 8.862 277.029 9.084 276.993 9.312H280.539ZM288.98 15.18C288.2 15.168 287.564 15.084 287.072 14.928C286.592 14.772 286.208 14.556 285.92 14.28C285.644 13.992 285.452 13.65 285.344 13.254C285.248 12.846 285.2 12.39 285.2 11.886V1.464L287.882 1.032V11.346C287.882 11.586 287.9 11.802 287.936 11.994C287.972 12.186 288.038 12.348 288.134 12.48C288.242 12.612 288.392 12.72 288.584 12.804C288.776 12.888 289.034 12.942 289.358 12.966L288.98 15.18ZM290.446 10.338C290.446 9.498 290.572 8.766 290.824 8.142C291.088 7.506 291.43 6.978 291.85 6.558C292.27 6.138 292.75 5.82 293.29 5.604C293.842 5.388 294.406 5.28 294.982 5.28C296.326 5.28 297.388 5.694 298.168 6.522C298.948 7.338 299.338 8.544 299.338 10.14C299.338 10.296 299.332 10.47 299.32 10.662C299.308 10.842 299.296 11.004 299.284 11.148H293.2C293.26 11.7 293.518 12.138 293.974 12.462C294.43 12.786 295.042 12.948 295.81 12.948C296.302 12.948 296.782 12.906 297.25 12.822C297.73 12.726 298.12 12.612 298.42 12.48L298.78 14.658C298.636 14.73 298.444 14.802 298.204 14.874C297.964 14.946 297.694 15.006 297.394 15.054C297.106 15.114 296.794 15.162 296.458 15.198C296.122 15.234 295.786 15.252 295.45 15.252C294.598 15.252 293.854 15.126 293.218 14.874C292.594 14.622 292.072 14.28 291.652 13.848C291.244 13.404 290.938 12.882 290.734 12.282C290.542 11.682 290.446 11.034 290.446 10.338ZM296.746 9.312C296.734 9.084 296.692 8.862 296.62 8.646C296.56 8.43 296.458 8.238 296.314 8.07C296.182 7.902 296.008 7.764 295.792 7.656C295.588 7.548 295.33 7.494 295.018 7.494C294.718 7.494 294.46 7.548 294.244 7.656C294.028 7.752 293.848 7.884 293.704 8.052C293.56 8.22 293.446 8.418 293.362 8.646C293.29 8.862 293.236 9.084 293.2 9.312H296.746ZM305.511 1.032C306.015 1.032 306.477 1.086 306.897 1.194C307.317 1.29 307.641 1.386 307.869 1.482L307.347 3.624C307.107 3.516 306.843 3.438 306.555 3.39C306.279 3.33 306.021 3.3 305.781 3.3C305.457 3.3 305.181 3.348 304.953 3.444C304.737 3.528 304.563 3.648 304.431 3.804C304.311 3.96 304.221 4.146 304.161 4.362C304.113 4.578 304.089 4.812 304.089 5.064V5.532H307.401V7.764H304.089V15H301.407V5.028C301.407 3.804 301.749 2.832 302.433 2.112C303.129 1.392 304.155 1.032 305.511 1.032ZM317.717 10.248C317.717 10.992 317.609 11.676 317.393 12.3C317.177 12.912 316.865 13.44 316.457 13.884C316.049 14.316 315.557 14.652 314.981 14.892C314.417 15.132 313.781 15.252 313.073 15.252C312.377 15.252 311.741 15.132 311.165 14.892C310.601 14.652 310.115 14.316 309.707 13.884C309.299 13.44 308.981 12.912 308.753 12.3C308.525 11.676 308.411 10.992 308.411 10.248C308.411 9.504 308.525 8.826 308.753 8.214C308.993 7.602 309.317 7.08 309.725 6.648C310.145 6.216 310.637 5.88 311.201 5.64C311.777 5.4 312.401 5.28 313.073 5.28C313.757 5.28 314.381 5.4 314.945 5.64C315.521 5.88 316.013 6.216 316.421 6.648C316.829 7.08 317.147 7.602 317.375 8.214C317.603 8.826 317.717 9.504 317.717 10.248ZM314.981 10.248C314.981 9.42 314.813 8.772 314.477 8.304C314.153 7.824 313.685 7.584 313.073 7.584C312.461 7.584 311.987 7.824 311.651 8.304C311.315 8.772 311.147 9.42 311.147 10.248C311.147 11.076 311.315 11.736 311.651 12.228C311.987 12.708 312.461 12.948 313.073 12.948C313.685 12.948 314.153 12.708 314.477 12.228C314.813 11.736 314.981 11.076 314.981 10.248ZM315.287 2.13L312.317 4.632L311.093 3.534L313.649 0.618L315.287 2.13ZM319.794 5.856C320.25 5.724 320.838 5.604 321.558 5.496C322.278 5.376 323.034 5.316 323.826 5.316C324.63 5.316 325.296 5.424 325.824 5.64C326.364 5.844 326.79 6.138 327.102 6.522C327.414 6.906 327.636 7.362 327.768 7.89C327.9 8.418 327.966 9.006 327.966 9.654V15H325.284V9.978C325.284 9.114 325.17 8.502 324.942 8.142C324.714 7.782 324.288 7.602 323.664 7.602C323.472 7.602 323.268 7.614 323.052 7.638C322.836 7.65 322.644 7.668 322.476 7.692V15H319.794V5.856ZM333.076 15H330.394V5.532H333.076V15ZM333.328 2.796C333.328 3.288 333.166 3.678 332.842 3.966C332.53 4.242 332.158 4.38 331.726 4.38C331.294 4.38 330.916 4.242 330.592 3.966C330.28 3.678 330.124 3.288 330.124 2.796C330.124 2.304 330.28 1.92 330.592 1.644C330.916 1.356 331.294 1.212 331.726 1.212C332.158 1.212 332.53 1.356 332.842 1.644C333.166 1.92 333.328 2.304 333.328 2.796ZM335.147 10.266C335.147 9.582 335.255 8.94 335.471 8.34C335.699 7.728 336.023 7.2 336.443 6.756C336.863 6.3 337.373 5.94 337.973 5.676C338.573 5.412 339.257 5.28 340.025 5.28C340.529 5.28 340.991 5.328 341.411 5.424C341.831 5.508 342.239 5.634 342.635 5.802L342.077 7.944C341.825 7.848 341.549 7.764 341.249 7.692C340.949 7.62 340.613 7.584 340.241 7.584C339.449 7.584 338.855 7.83 338.459 8.322C338.075 8.814 337.883 9.462 337.883 10.266C337.883 11.118 338.063 11.778 338.423 12.246C338.795 12.714 339.437 12.948 340.349 12.948C340.673 12.948 341.021 12.918 341.393 12.858C341.765 12.798 342.107 12.702 342.419 12.57L342.797 14.766C342.485 14.898 342.095 15.012 341.627 15.108C341.159 15.204 340.643 15.252 340.079 15.252C339.215 15.252 338.471 15.126 337.847 14.874C337.223 14.61 336.707 14.256 336.299 13.812C335.903 13.368 335.609 12.846 335.417 12.246C335.237 11.634 335.147 10.974 335.147 10.266ZM347.758 13.128C348.022 13.128 348.274 13.122 348.514 13.11C348.754 13.098 348.946 13.08 349.09 13.056V11.022C348.982 10.998 348.82 10.974 348.604 10.95C348.388 10.926 348.19 10.914 348.01 10.914C347.758 10.914 347.518 10.932 347.29 10.968C347.074 10.992 346.882 11.046 346.714 11.13C346.546 11.214 346.414 11.328 346.318 11.472C346.222 11.616 346.174 11.796 346.174 12.012C346.174 12.432 346.312 12.726 346.588 12.894C346.876 13.05 347.266 13.128 347.758 13.128ZM347.542 5.28C348.334 5.28 348.994 5.37 349.522 5.55C350.05 5.73 350.47 5.988 350.782 6.324C351.106 6.66 351.334 7.068 351.466 7.548C351.598 8.028 351.664 8.562 351.664 9.15V14.73C351.28 14.814 350.746 14.91 350.062 15.018C349.378 15.138 348.55 15.198 347.578 15.198C346.966 15.198 346.408 15.144 345.904 15.036C345.412 14.928 344.986 14.754 344.626 14.514C344.266 14.262 343.99 13.938 343.798 13.542C343.606 13.146 343.51 12.66 343.51 12.084C343.51 11.532 343.618 11.064 343.834 10.68C344.062 10.296 344.362 9.99 344.734 9.762C345.106 9.534 345.532 9.372 346.012 9.276C346.492 9.168 346.99 9.114 347.506 9.114C347.854 9.114 348.16 9.132 348.424 9.168C348.7 9.192 348.922 9.228 349.09 9.276V9.024C349.09 8.568 348.952 8.202 348.676 7.926C348.4 7.65 347.92 7.512 347.236 7.512C346.78 7.512 346.33 7.548 345.886 7.62C345.442 7.68 345.058 7.77 344.734 7.89L344.392 5.73C344.548 5.682 344.74 5.634 344.968 5.586C345.208 5.526 345.466 5.478 345.742 5.442C346.018 5.394 346.306 5.358 346.606 5.334C346.918 5.298 347.23 5.28 347.542 5.28ZM356.717 7.188C356.717 7.728 356.543 8.142 356.195 8.43C355.859 8.706 355.475 8.844 355.043 8.844C354.611 8.844 354.221 8.706 353.873 8.43C353.537 8.142 353.369 7.728 353.369 7.188C353.369 6.648 353.537 6.24 353.873 5.964C354.221 5.676 354.611 5.532 355.043 5.532C355.475 5.532 355.859 5.676 356.195 5.964C356.543 6.24 356.717 6.648 356.717 7.188ZM356.717 13.578C356.717 14.118 356.543 14.532 356.195 14.82C355.859 15.096 355.475 15.234 355.043 15.234C354.611 15.234 354.221 15.096 353.873 14.82C353.537 14.532 353.369 14.118 353.369 13.578C353.369 13.038 353.537 12.63 353.873 12.354C354.221 12.066 354.611 11.922 355.043 11.922C355.475 11.922 355.859 12.066 356.195 12.354C356.543 12.63 356.717 13.038 356.717 13.578ZM11.1406 29.754C11.1406 30.834 10.9726 31.776 10.6366 32.58C10.3006 33.372 9.82659 34.032 9.21459 34.56C8.60259 35.076 7.87059 35.466 7.01859 35.73C6.16659 35.982 5.23059 36.108 4.21059 36.108C3.70659 36.108 3.14859 36.084 2.53659 36.036C1.93659 36 1.39059 35.922 0.898586 35.802V23.706C1.39059 23.586 1.93659 23.508 2.53659 23.472C3.14859 23.424 3.70659 23.4 4.21059 23.4C5.23059 23.4 6.16659 23.532 7.01859 23.796C7.87059 24.048 8.60259 24.438 9.21459 24.966C9.82659 25.482 10.3006 26.142 10.6366 26.946C10.9726 27.738 11.1406 28.674 11.1406 29.754ZM4.35459 34.578C6.01059 34.578 7.24659 34.158 8.06259 33.318C8.87859 32.466 9.28659 31.278 9.28659 29.754C9.28659 28.23 8.87859 27.048 8.06259 26.208C7.24659 25.356 6.01059 24.93 4.35459 24.93C3.86259 24.93 3.47859 24.936 3.20259 24.948C2.93859 24.96 2.75259 24.972 2.64459 24.984V34.524C2.75259 34.536 2.93859 34.548 3.20259 34.56C3.47859 34.572 3.86259 34.578 4.35459 34.578ZM13.1006 31.338C13.1006 30.51 13.2206 29.79 13.4606 29.178C13.7006 28.554 14.0186 28.038 14.4146 27.63C14.8106 27.222 15.2666 26.916 15.7826 26.712C16.2986 26.508 16.8266 26.406 17.3666 26.406C18.6266 26.406 19.5926 26.802 20.2646 27.594C20.9366 28.374 21.2726 29.568 21.2726 31.176C21.2726 31.248 21.2726 31.344 21.2726 31.464C21.2726 31.572 21.2666 31.674 21.2546 31.77H14.8466C14.9186 32.742 15.2006 33.48 15.6926 33.984C16.1846 34.488 16.9526 34.74 17.9966 34.74C18.5846 34.74 19.0766 34.692 19.4726 34.596C19.8806 34.488 20.1866 34.386 20.3906 34.29L20.6246 35.694C20.4206 35.802 20.0606 35.916 19.5446 36.036C19.0406 36.156 18.4646 36.216 17.8166 36.216C17.0006 36.216 16.2926 36.096 15.6926 35.856C15.1046 35.604 14.6186 35.262 14.2346 34.83C13.8506 34.398 13.5626 33.888 13.3706 33.3C13.1906 32.7 13.1006 32.046 13.1006 31.338ZM19.5266 30.42C19.5386 29.664 19.3466 29.046 18.9506 28.566C18.5666 28.074 18.0326 27.828 17.3486 27.828C16.9646 27.828 16.6226 27.906 16.3226 28.062C16.0346 28.206 15.7886 28.398 15.5846 28.638C15.3806 28.878 15.2186 29.154 15.0986 29.466C14.9906 29.778 14.9186 30.096 14.8826 30.42H19.5266ZM30.6513 36.18C29.6193 36.156 28.8873 35.934 28.4553 35.514C28.0233 35.094 27.8073 34.44 27.8073 33.552V22.32L29.4813 22.032V33.282C29.4813 33.558 29.5053 33.786 29.5533 33.966C29.6013 34.146 29.6793 34.29 29.7873 34.398C29.8953 34.506 30.0393 34.59 30.2193 34.65C30.3993 34.698 30.6213 34.74 30.8853 34.776L30.6513 36.18ZM40.2172 35.73C39.8332 35.826 39.3232 35.928 38.6872 36.036C38.0632 36.144 37.3372 36.198 36.5092 36.198C35.7892 36.198 35.1832 36.096 34.6912 35.892C34.1992 35.676 33.8032 35.376 33.5032 34.992C33.2032 34.608 32.9872 34.158 32.8552 33.642C32.7232 33.114 32.6572 32.532 32.6572 31.896V26.64H34.3312V31.536C34.3312 32.676 34.5112 33.492 34.8712 33.984C35.2312 34.476 35.8372 34.722 36.6892 34.722C36.8692 34.722 37.0552 34.716 37.2472 34.704C37.4392 34.692 37.6192 34.68 37.7872 34.668C37.9552 34.644 38.1052 34.626 38.2372 34.614C38.3812 34.59 38.4832 34.566 38.5432 34.542V26.64H40.2172V35.73ZM43.1011 26.91C43.4851 26.814 43.9951 26.712 44.6311 26.604C45.2671 26.496 45.9991 26.442 46.8271 26.442C47.5711 26.442 48.1891 26.55 48.6811 26.766C49.1731 26.97 49.5631 27.264 49.8511 27.648C50.1511 28.02 50.3611 28.47 50.4811 28.998C50.6011 29.526 50.6611 30.108 50.6611 30.744V36H48.9871V31.104C48.9871 30.528 48.9451 30.036 48.8611 29.628C48.7891 29.22 48.6631 28.89 48.4831 28.638C48.3031 28.386 48.0631 28.206 47.7631 28.098C47.4631 27.978 47.0911 27.918 46.6471 27.918C46.4671 27.918 46.2811 27.924 46.0891 27.936C45.8971 27.948 45.7111 27.966 45.5311 27.99C45.3631 28.002 45.2071 28.02 45.0631 28.044C44.9311 28.068 44.8351 28.086 44.7751 28.098V36H43.1011V26.91ZM52.9151 31.338C52.9151 30.51 53.0351 29.79 53.2751 29.178C53.5151 28.554 53.8331 28.038 54.2291 27.63C54.6251 27.222 55.0811 26.916 55.5971 26.712C56.1131 26.508 56.6411 26.406 57.1811 26.406C58.4411 26.406 59.4071 26.802 60.0791 27.594C60.7511 28.374 61.0871 29.568 61.0871 31.176C61.0871 31.248 61.0871 31.344 61.0871 31.464C61.0871 31.572 61.0811 31.674 61.0691 31.77H54.6611C54.7331 32.742 55.0151 33.48 55.5071 33.984C55.9991 34.488 56.7671 34.74 57.8111 34.74C58.3991 34.74 58.8911 34.692 59.2871 34.596C59.6951 34.488 60.0011 34.386 60.2051 34.29L60.4391 35.694C60.2351 35.802 59.8751 35.916 59.3591 36.036C58.8551 36.156 58.2791 36.216 57.6311 36.216C56.8151 36.216 56.1071 36.096 55.5071 35.856C54.9191 35.604 54.4331 35.262 54.0491 34.83C53.6651 34.398 53.3771 33.888 53.1851 33.3C53.0051 32.7 52.9151 32.046 52.9151 31.338ZM59.3411 30.42C59.3531 29.664 59.1611 29.046 58.7651 28.566C58.3811 28.074 57.8471 27.828 57.1631 27.828C56.7791 27.828 56.4371 27.906 56.1371 28.062C55.8491 28.206 55.6031 28.398 55.3991 28.638C55.1951 28.878 55.0331 29.154 54.9131 29.466C54.8051 29.778 54.7331 30.096 54.6971 30.42H59.3411ZM65.6698 34.794C66.3538 34.794 66.8578 34.704 67.1818 34.524C67.5178 34.344 67.6858 34.056 67.6858 33.66C67.6858 33.252 67.5238 32.928 67.1998 32.688C66.8758 32.448 66.3418 32.178 65.5978 31.878C65.2378 31.734 64.8898 31.59 64.5538 31.446C64.2298 31.29 63.9478 31.11 63.7078 30.906C63.4678 30.702 63.2758 30.456 63.1318 30.168C62.9878 29.88 62.9158 29.526 62.9158 29.106C62.9158 28.278 63.2218 27.624 63.8338 27.144C64.4458 26.652 65.2798 26.406 66.3358 26.406C66.5998 26.406 66.8638 26.424 67.1278 26.46C67.3918 26.484 67.6378 26.52 67.8658 26.568C68.0938 26.604 68.2918 26.646 68.4598 26.694C68.6398 26.742 68.7778 26.784 68.8738 26.82L68.5678 28.26C68.3878 28.164 68.1058 28.068 67.7218 27.972C67.3378 27.864 66.8758 27.81 66.3358 27.81C65.8678 27.81 65.4598 27.906 65.1118 28.098C64.7638 28.278 64.5898 28.566 64.5898 28.962C64.5898 29.166 64.6258 29.346 64.6978 29.502C64.7818 29.658 64.9018 29.802 65.0578 29.934C65.2258 30.054 65.4298 30.168 65.6698 30.276C65.9098 30.384 66.1978 30.498 66.5338 30.618C66.9778 30.786 67.3738 30.954 67.7218 31.122C68.0698 31.278 68.3638 31.464 68.6038 31.68C68.8558 31.896 69.0478 32.16 69.1798 32.472C69.3118 32.772 69.3778 33.144 69.3778 33.588C69.3778 34.452 69.0538 35.106 68.4058 35.55C67.7698 35.994 66.8578 36.216 65.6698 36.216C64.8418 36.216 64.1938 36.144 63.7258 36C63.2578 35.868 62.9398 35.766 62.7718 35.694L63.0778 34.254C63.2698 34.326 63.5758 34.434 63.9958 34.578C64.4158 34.722 64.9738 34.794 65.6698 34.794ZM78.859 34.794C79.255 34.794 79.603 34.788 79.903 34.776C80.215 34.752 80.473 34.716 80.677 34.668V31.878C80.557 31.818 80.359 31.77 80.083 31.734C79.819 31.686 79.495 31.662 79.111 31.662C78.859 31.662 78.589 31.68 78.301 31.716C78.025 31.752 77.767 31.83 77.527 31.95C77.299 32.058 77.107 32.214 76.951 32.418C76.795 32.61 76.717 32.868 76.717 33.192C76.717 33.792 76.909 34.212 77.293 34.452C77.677 34.68 78.199 34.794 78.859 34.794ZM78.715 26.406C79.387 26.406 79.951 26.496 80.407 26.676C80.875 26.844 81.247 27.09 81.523 27.414C81.811 27.726 82.015 28.104 82.135 28.548C82.255 28.98 82.315 29.46 82.315 29.988V35.838C82.171 35.862 81.967 35.898 81.703 35.946C81.451 35.982 81.163 36.018 80.839 36.054C80.515 36.09 80.161 36.12 79.777 36.144C79.405 36.18 79.033 36.198 78.661 36.198C78.133 36.198 77.647 36.144 77.203 36.036C76.759 35.928 76.375 35.76 76.051 35.532C75.727 35.292 75.475 34.98 75.295 34.596C75.115 34.212 75.025 33.75 75.025 33.21C75.025 32.694 75.127 32.25 75.331 31.878C75.547 31.506 75.835 31.206 76.195 30.978C76.555 30.75 76.975 30.582 77.455 30.474C77.935 30.366 78.439 30.312 78.967 30.312C79.135 30.312 79.309 30.324 79.489 30.348C79.669 30.36 79.837 30.384 79.993 30.42C80.161 30.444 80.305 30.468 80.425 30.492C80.545 30.516 80.629 30.534 80.677 30.546V30.078C80.677 29.802 80.647 29.532 80.587 29.268C80.527 28.992 80.419 28.752 80.263 28.548C80.107 28.332 79.891 28.164 79.615 28.044C79.351 27.912 79.003 27.846 78.571 27.846C78.019 27.846 77.533 27.888 77.113 27.972C76.705 28.044 76.399 28.122 76.195 28.206L75.997 26.82C76.213 26.724 76.573 26.634 77.077 26.55C77.581 26.454 78.127 26.406 78.715 26.406ZM87.7313 39.366C87.5873 39.366 87.4013 39.348 87.1733 39.312C86.9453 39.276 86.7533 39.228 86.5973 39.168L86.8133 37.8C86.9333 37.836 87.0713 37.866 87.2273 37.89C87.3833 37.914 87.5273 37.926 87.6593 37.926C88.2353 37.926 88.6433 37.746 88.8833 37.386C89.1353 37.038 89.2613 36.522 89.2613 35.838V26.64H90.9353V35.82C90.9353 37.02 90.6593 37.908 90.1073 38.484C89.5673 39.072 88.7753 39.366 87.7313 39.366ZM90.0893 24.948C89.7893 24.948 89.5313 24.852 89.3153 24.66C89.1113 24.456 89.0093 24.186 89.0093 23.85C89.0093 23.514 89.1113 23.25 89.3153 23.058C89.5313 22.854 89.7893 22.752 90.0893 22.752C90.3893 22.752 90.6413 22.854 90.8453 23.058C91.0613 23.25 91.1693 23.514 91.1693 23.85C91.1693 24.186 91.0613 24.456 90.8453 24.66C90.6413 24.852 90.3893 24.948 90.0893 24.948ZM101.266 35.73C100.882 35.826 100.372 35.928 99.736 36.036C99.112 36.144 98.386 36.198 97.558 36.198C96.838 36.198 96.232 36.096 95.74 35.892C95.248 35.676 94.852 35.376 94.552 34.992C94.252 34.608 94.036 34.158 93.904 33.642C93.772 33.114 93.706 32.532 93.706 31.896V26.64H95.38V31.536C95.38 32.676 95.56 33.492 95.92 33.984C96.28 34.476 96.886 34.722 97.738 34.722C97.918 34.722 98.104 34.716 98.296 34.704C98.488 34.692 98.668 34.68 98.836 34.668C99.004 34.644 99.154 34.626 99.286 34.614C99.43 34.59 99.532 34.566 99.592 34.542V26.64H101.266V35.73ZM103.628 31.338C103.628 30.51 103.748 29.79 103.988 29.178C104.228 28.554 104.546 28.038 104.942 27.63C105.338 27.222 105.794 26.916 106.31 26.712C106.826 26.508 107.354 26.406 107.894 26.406C109.154 26.406 110.12 26.802 110.792 27.594C111.464 28.374 111.8 29.568 111.8 31.176C111.8 31.248 111.8 31.344 111.8 31.464C111.8 31.572 111.794 31.674 111.782 31.77H105.374C105.446 32.742 105.728 33.48 106.22 33.984C106.712 34.488 107.48 34.74 108.524 34.74C109.112 34.74 109.604 34.692 110 34.596C110.408 34.488 110.714 34.386 110.918 34.29L111.152 35.694C110.948 35.802 110.588 35.916 110.072 36.036C109.568 36.156 108.992 36.216 108.344 36.216C107.528 36.216 106.82 36.096 106.22 35.856C105.632 35.604 105.146 35.262 104.762 34.83C104.378 34.398 104.09 33.888 103.898 33.3C103.718 32.7 103.628 32.046 103.628 31.338ZM110.054 30.42C110.066 29.664 109.874 29.046 109.478 28.566C109.094 28.074 108.56 27.828 107.876 27.828C107.492 27.828 107.15 27.906 106.85 28.062C106.562 28.206 106.316 28.398 106.112 28.638C105.908 28.878 105.746 29.154 105.626 29.466C105.518 29.778 105.446 30.096 105.41 30.42H110.054ZM121.513 26.64C121.045 28.392 120.493 30.072 119.857 31.68C119.233 33.288 118.627 34.728 118.039 36H116.527C115.939 34.728 115.327 33.288 114.691 31.68C114.067 30.072 113.521 28.392 113.053 26.64H114.853C114.997 27.228 115.165 27.858 115.357 28.53C115.561 29.19 115.771 29.85 115.987 30.51C116.215 31.158 116.443 31.788 116.671 32.4C116.899 33.012 117.115 33.558 117.319 34.038C117.523 33.558 117.739 33.012 117.967 32.4C118.195 31.788 118.417 31.158 118.633 30.51C118.861 29.85 119.071 29.19 119.263 28.53C119.467 27.858 119.641 27.228 119.785 26.64H121.513ZM122.472 31.338C122.472 30.51 122.592 29.79 122.832 29.178C123.072 28.554 123.39 28.038 123.786 27.63C124.182 27.222 124.638 26.916 125.154 26.712C125.67 26.508 126.198 26.406 126.738 26.406C127.998 26.406 128.964 26.802 129.636 27.594C130.308 28.374 130.644 29.568 130.644 31.176C130.644 31.248 130.644 31.344 130.644 31.464C130.644 31.572 130.638 31.674 130.626 31.77H124.218C124.29 32.742 124.572 33.48 125.064 33.984C125.556 34.488 126.324 34.74 127.368 34.74C127.956 34.74 128.448 34.692 128.844 34.596C129.252 34.488 129.558 34.386 129.762 34.29L129.996 35.694C129.792 35.802 129.432 35.916 128.916 36.036C128.412 36.156 127.836 36.216 127.188 36.216C126.372 36.216 125.664 36.096 125.064 35.856C124.476 35.604 123.99 35.262 123.606 34.83C123.222 34.398 122.934 33.888 122.742 33.3C122.562 32.7 122.472 32.046 122.472 31.338ZM128.898 30.42C128.91 29.664 128.718 29.046 128.322 28.566C127.938 28.074 127.404 27.828 126.72 27.828C126.336 27.828 125.994 27.906 125.694 28.062C125.406 28.206 125.16 28.398 124.956 28.638C124.752 28.878 124.59 29.154 124.47 29.466C124.362 29.778 124.29 30.096 124.254 30.42H128.898ZM135.226 34.794C135.91 34.794 136.414 34.704 136.738 34.524C137.074 34.344 137.242 34.056 137.242 33.66C137.242 33.252 137.08 32.928 136.756 32.688C136.432 32.448 135.898 32.178 135.154 31.878C134.794 31.734 134.446 31.59 134.11 31.446C133.786 31.29 133.504 31.11 133.264 30.906C133.024 30.702 132.832 30.456 132.688 30.168C132.544 29.88 132.472 29.526 132.472 29.106C132.472 28.278 132.778 27.624 133.39 27.144C134.002 26.652 134.836 26.406 135.892 26.406C136.156 26.406 136.42 26.424 136.684 26.46C136.948 26.484 137.194 26.52 137.422 26.568C137.65 26.604 137.848 26.646 138.016 26.694C138.196 26.742 138.334 26.784 138.43 26.82L138.124 28.26C137.944 28.164 137.662 28.068 137.278 27.972C136.894 27.864 136.432 27.81 135.892 27.81C135.424 27.81 135.016 27.906 134.668 28.098C134.32 28.278 134.146 28.566 134.146 28.962C134.146 29.166 134.182 29.346 134.254 29.502C134.338 29.658 134.458 29.802 134.614 29.934C134.782 30.054 134.986 30.168 135.226 30.276C135.466 30.384 135.754 30.498 136.09 30.618C136.534 30.786 136.93 30.954 137.278 31.122C137.626 31.278 137.92 31.464 138.16 31.68C138.412 31.896 138.604 32.16 138.736 32.472C138.868 32.772 138.934 33.144 138.934 33.588C138.934 34.452 138.61 35.106 137.962 35.55C137.326 35.994 136.414 36.216 135.226 36.216C134.398 36.216 133.75 36.144 133.282 36C132.814 35.868 132.496 35.766 132.328 35.694L132.634 34.254C132.826 34.326 133.132 34.434 133.552 34.578C133.972 34.722 134.53 34.794 135.226 34.794ZM143.062 35.028C143.062 35.352 142.954 35.634 142.738 35.874C142.522 36.114 142.228 36.234 141.856 36.234C141.484 36.234 141.19 36.114 140.974 35.874C140.758 35.634 140.65 35.352 140.65 35.028C140.65 34.704 140.758 34.422 140.974 34.182C141.19 33.942 141.484 33.822 141.856 33.822C142.228 33.822 142.522 33.942 142.738 34.182C142.954 34.422 143.062 34.704 143.062 35.028ZM143.062 27.846C143.062 28.17 142.954 28.452 142.738 28.692C142.522 28.932 142.228 29.052 141.856 29.052C141.484 29.052 141.19 28.932 140.974 28.692C140.758 28.452 140.65 28.17 140.65 27.846C140.65 27.522 140.758 27.24 140.974 27C141.19 26.76 141.484 26.64 141.856 26.64C142.228 26.64 142.522 26.76 142.738 27C142.954 27.24 143.062 27.522 143.062 27.846ZM155.725 28.62C155.521 28.452 155.227 28.29 154.843 28.134C154.459 27.978 154.039 27.9 153.583 27.9C153.103 27.9 152.689 27.99 152.341 28.17C152.005 28.338 151.729 28.578 151.513 28.89C151.297 29.19 151.141 29.55 151.045 29.97C150.949 30.39 150.901 30.84 150.901 31.32C150.901 32.412 151.171 33.258 151.711 33.858C152.251 34.446 152.971 34.74 153.871 34.74C154.327 34.74 154.705 34.722 155.005 34.686C155.317 34.638 155.557 34.59 155.725 34.542V28.62ZM155.725 22.32L157.399 22.032V35.73C157.015 35.838 156.523 35.946 155.923 36.054C155.323 36.162 154.633 36.216 153.853 36.216C153.133 36.216 152.485 36.102 151.909 35.874C151.333 35.646 150.841 35.322 150.433 34.902C150.025 34.482 149.707 33.972 149.479 33.372C149.263 32.76 149.155 32.076 149.155 31.32C149.155 30.6 149.245 29.94 149.425 29.34C149.617 28.74 149.893 28.224 150.253 27.792C150.613 27.36 151.051 27.024 151.567 26.784C152.095 26.544 152.695 26.424 153.367 26.424C153.907 26.424 154.381 26.496 154.789 26.64C155.209 26.784 155.521 26.922 155.725 27.054V22.32ZM159.755 31.338C159.755 30.51 159.875 29.79 160.115 29.178C160.355 28.554 160.673 28.038 161.069 27.63C161.465 27.222 161.921 26.916 162.437 26.712C162.953 26.508 163.481 26.406 164.021 26.406C165.281 26.406 166.247 26.802 166.919 27.594C167.591 28.374 167.927 29.568 167.927 31.176C167.927 31.248 167.927 31.344 167.927 31.464C167.927 31.572 167.921 31.674 167.909 31.77H161.501C161.573 32.742 161.855 33.48 162.347 33.984C162.839 34.488 163.607 34.74 164.651 34.74C165.239 34.74 165.731 34.692 166.127 34.596C166.535 34.488 166.841 34.386 167.045 34.29L167.279 35.694C167.075 35.802 166.715 35.916 166.199 36.036C165.695 36.156 165.119 36.216 164.471 36.216C163.655 36.216 162.947 36.096 162.347 35.856C161.759 35.604 161.273 35.262 160.889 34.83C160.505 34.398 160.217 33.888 160.025 33.3C159.845 32.7 159.755 32.046 159.755 31.338ZM166.181 30.42C166.193 29.664 166.001 29.046 165.605 28.566C165.221 28.074 164.687 27.828 164.003 27.828C163.619 27.828 163.277 27.906 162.977 28.062C162.689 28.206 162.443 28.398 162.239 28.638C162.035 28.878 161.873 29.154 161.753 29.466C161.645 29.778 161.573 30.096 161.537 30.42H166.181ZM182.076 28.512C182.076 30.984 181.458 32.856 180.222 34.128C178.998 35.388 177.174 36.024 174.75 36.036L174.696 34.632C175.452 34.632 176.13 34.56 176.73 34.416C177.342 34.272 177.876 34.044 178.332 33.732C178.788 33.408 179.166 32.994 179.466 32.49C179.778 31.986 180.006 31.368 180.15 30.636C179.838 30.78 179.484 30.9 179.088 30.996C178.692 31.08 178.284 31.122 177.864 31.122C177.156 31.122 176.556 31.02 176.064 30.816C175.572 30.6 175.17 30.318 174.858 29.97C174.546 29.61 174.318 29.202 174.174 28.746C174.042 28.278 173.976 27.792 173.976 27.288C173.976 26.844 174.054 26.382 174.21 25.902C174.366 25.422 174.6 24.984 174.912 24.588C175.236 24.192 175.644 23.868 176.136 23.616C176.628 23.364 177.21 23.238 177.882 23.238C178.566 23.238 179.166 23.358 179.682 23.598C180.21 23.838 180.648 24.186 180.996 24.642C181.356 25.098 181.626 25.656 181.806 26.316C181.986 26.964 182.076 27.696 182.076 28.512ZM178.044 29.754C178.464 29.754 178.86 29.718 179.232 29.646C179.604 29.562 179.964 29.442 180.312 29.286C180.324 29.154 180.33 29.028 180.33 28.908C180.33 28.776 180.33 28.644 180.33 28.512C180.33 27.996 180.294 27.504 180.222 27.036C180.15 26.556 180.018 26.142 179.826 25.794C179.646 25.434 179.4 25.152 179.088 24.948C178.776 24.732 178.38 24.624 177.9 24.624C177.504 24.624 177.168 24.708 176.892 24.876C176.616 25.044 176.388 25.26 176.208 25.524C176.028 25.776 175.896 26.058 175.812 26.37C175.74 26.67 175.704 26.964 175.704 27.252C175.704 28.068 175.896 28.692 176.28 29.124C176.676 29.544 177.264 29.754 178.044 29.754ZM186.638 35.028C186.638 35.352 186.53 35.634 186.314 35.874C186.098 36.114 185.804 36.234 185.432 36.234C185.06 36.234 184.766 36.114 184.55 35.874C184.334 35.634 184.226 35.352 184.226 35.028C184.226 34.704 184.334 34.422 184.55 34.182C184.766 33.942 185.06 33.822 185.432 33.822C185.804 33.822 186.098 33.942 186.314 34.182C186.53 34.422 186.638 34.704 186.638 35.028ZM188.547 29.754C188.547 27.666 188.913 26.058 189.645 24.93C190.389 23.802 191.415 23.238 192.723 23.238C194.031 23.238 195.051 23.802 195.783 24.93C196.527 26.058 196.899 27.666 196.899 29.754C196.899 31.842 196.527 33.45 195.783 34.578C195.051 35.706 194.031 36.27 192.723 36.27C191.415 36.27 190.389 35.706 189.645 34.578C188.913 33.45 188.547 31.842 188.547 29.754ZM195.135 29.754C195.135 29.07 195.093 28.422 195.009 27.81C194.937 27.198 194.805 26.664 194.613 26.208C194.433 25.752 194.187 25.392 193.875 25.128C193.563 24.852 193.179 24.714 192.723 24.714C192.267 24.714 191.883 24.852 191.571 25.128C191.259 25.392 191.007 25.752 190.815 26.208C190.635 26.664 190.503 27.198 190.419 27.81C190.347 28.422 190.311 29.07 190.311 29.754C190.311 30.438 190.347 31.086 190.419 31.698C190.503 32.31 190.635 32.844 190.815 33.3C191.007 33.756 191.259 34.122 191.571 34.398C191.883 34.662 192.267 34.794 192.723 34.794C193.179 34.794 193.563 34.662 193.875 34.398C194.187 34.122 194.433 33.756 194.613 33.3C194.805 32.844 194.937 32.31 195.009 31.698C195.093 31.086 195.135 30.438 195.135 29.754ZM198.708 29.754C198.708 27.666 199.074 26.058 199.806 24.93C200.55 23.802 201.576 23.238 202.884 23.238C204.192 23.238 205.212 23.802 205.944 24.93C206.688 26.058 207.06 27.666 207.06 29.754C207.06 31.842 206.688 33.45 205.944 34.578C205.212 35.706 204.192 36.27 202.884 36.27C201.576 36.27 200.55 35.706 199.806 34.578C199.074 33.45 198.708 31.842 198.708 29.754ZM205.296 29.754C205.296 29.07 205.254 28.422 205.17 27.81C205.098 27.198 204.966 26.664 204.774 26.208C204.594 25.752 204.348 25.392 204.036 25.128C203.724 24.852 203.34 24.714 202.884 24.714C202.428 24.714 202.044 24.852 201.732 25.128C201.42 25.392 201.168 25.752 200.976 26.208C200.796 26.664 200.664 27.198 200.58 27.81C200.508 28.422 200.472 29.07 200.472 29.754C200.472 30.438 200.508 31.086 200.58 31.698C200.664 32.31 200.796 32.844 200.976 33.3C201.168 33.756 201.42 34.122 201.732 34.398C202.044 34.662 202.428 34.794 202.884 34.794C203.34 34.794 203.724 34.662 204.036 34.398C204.348 34.122 204.594 33.756 204.774 33.3C204.966 32.844 205.098 32.31 205.17 31.698C205.254 31.086 205.296 30.438 205.296 29.754ZM216.742 34.794C217.138 34.794 217.486 34.788 217.786 34.776C218.098 34.752 218.356 34.716 218.56 34.668V31.878C218.44 31.818 218.242 31.77 217.966 31.734C217.702 31.686 217.378 31.662 216.994 31.662C216.742 31.662 216.472 31.68 216.184 31.716C215.908 31.752 215.65 31.83 215.41 31.95C215.182 32.058 214.99 32.214 214.834 32.418C214.678 32.61 214.6 32.868 214.6 33.192C214.6 33.792 214.792 34.212 215.176 34.452C215.56 34.68 216.082 34.794 216.742 34.794ZM216.598 26.406C217.27 26.406 217.834 26.496 218.29 26.676C218.758 26.844 219.13 27.09 219.406 27.414C219.694 27.726 219.898 28.104 220.018 28.548C220.138 28.98 220.198 29.46 220.198 29.988V35.838C220.054 35.862 219.85 35.898 219.586 35.946C219.334 35.982 219.046 36.018 218.722 36.054C218.398 36.09 218.044 36.12 217.66 36.144C217.288 36.18 216.916 36.198 216.544 36.198C216.016 36.198 215.53 36.144 215.086 36.036C214.642 35.928 214.258 35.76 213.934 35.532C213.61 35.292 213.358 34.98 213.178 34.596C212.998 34.212 212.908 33.75 212.908 33.21C212.908 32.694 213.01 32.25 213.214 31.878C213.43 31.506 213.718 31.206 214.078 30.978C214.438 30.75 214.858 30.582 215.338 30.474C215.818 30.366 216.322 30.312 216.85 30.312C217.018 30.312 217.192 30.324 217.372 30.348C217.552 30.36 217.72 30.384 217.876 30.42C218.044 30.444 218.188 30.468 218.308 30.492C218.428 30.516 218.512 30.534 218.56 30.546V30.078C218.56 29.802 218.53 29.532 218.47 29.268C218.41 28.992 218.302 28.752 218.146 28.548C217.99 28.332 217.774 28.164 217.498 28.044C217.234 27.912 216.886 27.846 216.454 27.846C215.902 27.846 215.416 27.888 214.996 27.972C214.588 28.044 214.282 28.122 214.078 28.206L213.88 26.82C214.096 26.724 214.456 26.634 214.96 26.55C215.464 26.454 216.01 26.406 216.598 26.406ZM227.378 26.1C228.062 25.836 228.728 25.5 229.376 25.092C230.024 24.672 230.618 24.15 231.158 23.526H232.346V36H230.672V25.848C230.528 25.98 230.348 26.118 230.132 26.262C229.928 26.406 229.7 26.544 229.448 26.676C229.208 26.808 228.95 26.934 228.674 27.054C228.41 27.174 228.152 27.276 227.9 27.36L227.378 26.1ZM237.538 26.1C238.222 25.836 238.888 25.5 239.536 25.092C240.184 24.672 240.778 24.15 241.318 23.526H242.506V36H240.832V25.848C240.688 25.98 240.508 26.118 240.292 26.262C240.088 26.406 239.86 26.544 239.608 26.676C239.368 26.808 239.11 26.934 238.834 27.054C238.57 27.174 238.312 27.276 238.06 27.36L237.538 26.1ZM249.444 35.028C249.444 35.352 249.336 35.634 249.12 35.874C248.904 36.114 248.61 36.234 248.238 36.234C247.866 36.234 247.572 36.114 247.356 35.874C247.14 35.634 247.032 35.352 247.032 35.028C247.032 34.704 247.14 34.422 247.356 34.182C247.572 33.942 247.866 33.822 248.238 33.822C248.61 33.822 248.904 33.942 249.12 34.182C249.336 34.422 249.444 34.704 249.444 35.028ZM251.354 29.754C251.354 27.666 251.72 26.058 252.452 24.93C253.196 23.802 254.222 23.238 255.53 23.238C256.838 23.238 257.858 23.802 258.59 24.93C259.334 26.058 259.706 27.666 259.706 29.754C259.706 31.842 259.334 33.45 258.59 34.578C257.858 35.706 256.838 36.27 255.53 36.27C254.222 36.27 253.196 35.706 252.452 34.578C251.72 33.45 251.354 31.842 251.354 29.754ZM257.942 29.754C257.942 29.07 257.9 28.422 257.816 27.81C257.744 27.198 257.612 26.664 257.42 26.208C257.24 25.752 256.994 25.392 256.682 25.128C256.37 24.852 255.986 24.714 255.53 24.714C255.074 24.714 254.69 24.852 254.378 25.128C254.066 25.392 253.814 25.752 253.622 26.208C253.442 26.664 253.31 27.198 253.226 27.81C253.154 28.422 253.118 29.07 253.118 29.754C253.118 30.438 253.154 31.086 253.226 31.698C253.31 32.31 253.442 32.844 253.622 33.3C253.814 33.756 254.066 34.122 254.378 34.398C254.69 34.662 255.074 34.794 255.53 34.794C255.986 34.794 256.37 34.662 256.682 34.398C256.994 34.122 257.24 33.756 257.42 33.3C257.612 32.844 257.744 32.31 257.816 31.698C257.9 31.086 257.942 30.438 257.942 29.754ZM261.514 29.754C261.514 27.666 261.88 26.058 262.612 24.93C263.356 23.802 264.382 23.238 265.69 23.238C266.998 23.238 268.018 23.802 268.75 24.93C269.494 26.058 269.866 27.666 269.866 29.754C269.866 31.842 269.494 33.45 268.75 34.578C268.018 35.706 266.998 36.27 265.69 36.27C264.382 36.27 263.356 35.706 262.612 34.578C261.88 33.45 261.514 31.842 261.514 29.754ZM268.102 29.754C268.102 29.07 268.06 28.422 267.976 27.81C267.904 27.198 267.772 26.664 267.58 26.208C267.4 25.752 267.154 25.392 266.842 25.128C266.53 24.852 266.146 24.714 265.69 24.714C265.234 24.714 264.85 24.852 264.538 25.128C264.226 25.392 263.974 25.752 263.782 26.208C263.602 26.664 263.47 27.198 263.386 27.81C263.314 28.422 263.278 29.07 263.278 29.754C263.278 30.438 263.314 31.086 263.386 31.698C263.47 32.31 263.602 32.844 263.782 33.3C263.974 33.756 264.226 34.122 264.538 34.398C264.85 34.662 265.234 34.794 265.69 34.794C266.146 34.794 266.53 34.662 266.842 34.398C267.154 34.122 267.4 33.756 267.58 33.3C267.772 32.844 267.904 32.31 267.976 31.698C268.06 31.086 268.102 30.438 268.102 29.754ZM276.38 36V22.32L278.054 22.032V26.82C278.366 26.7 278.696 26.61 279.044 26.55C279.404 26.478 279.758 26.442 280.106 26.442C280.85 26.442 281.468 26.55 281.96 26.766C282.452 26.97 282.842 27.264 283.13 27.648C283.43 28.02 283.64 28.47 283.76 28.998C283.88 29.526 283.94 30.108 283.94 30.744V36H282.266V31.104C282.266 30.528 282.224 30.036 282.14 29.628C282.068 29.22 281.942 28.89 281.762 28.638C281.582 28.386 281.342 28.206 281.042 28.098C280.742 27.978 280.37 27.918 279.926 27.918C279.746 27.918 279.56 27.93 279.368 27.954C279.176 27.978 278.99 28.008 278.81 28.044C278.642 28.068 278.486 28.098 278.342 28.134C278.21 28.17 278.114 28.2 278.054 28.224V36H276.38ZM289.732 37.746C289.864 37.806 290.032 37.86 290.236 37.908C290.452 37.968 290.662 37.998 290.866 37.998C291.526 37.998 292.042 37.848 292.414 37.548C292.786 37.26 293.122 36.786 293.422 36.126C292.666 34.686 291.958 33.162 291.298 31.554C290.65 29.934 290.11 28.296 289.678 26.64H291.478C291.61 27.18 291.766 27.762 291.946 28.386C292.138 29.01 292.348 29.652 292.576 30.312C292.804 30.972 293.05 31.632 293.314 32.292C293.578 32.952 293.854 33.588 294.142 34.2C294.598 32.94 294.994 31.692 295.33 30.456C295.666 29.22 295.984 27.948 296.284 26.64H298.012C297.58 28.404 297.1 30.102 296.572 31.734C296.044 33.354 295.474 34.872 294.862 36.288C294.622 36.828 294.37 37.29 294.106 37.674C293.854 38.07 293.572 38.394 293.26 38.646C292.948 38.898 292.594 39.084 292.198 39.204C291.814 39.324 291.376 39.384 290.884 39.384C290.752 39.384 290.614 39.372 290.47 39.348C290.326 39.336 290.182 39.312 290.038 39.276C289.906 39.252 289.78 39.222 289.66 39.186C289.552 39.15 289.474 39.12 289.426 39.096L289.732 37.746ZM309.991 28.62C309.787 28.452 309.493 28.29 309.109 28.134C308.725 27.978 308.305 27.9 307.849 27.9C307.369 27.9 306.955 27.99 306.607 28.17C306.271 28.338 305.995 28.578 305.779 28.89C305.563 29.19 305.407 29.55 305.311 29.97C305.215 30.39 305.167 30.84 305.167 31.32C305.167 32.412 305.437 33.258 305.977 33.858C306.517 34.446 307.237 34.74 308.137 34.74C308.593 34.74 308.971 34.722 309.271 34.686C309.583 34.638 309.823 34.59 309.991 34.542V28.62ZM309.991 22.32L311.665 22.032V35.73C311.281 35.838 310.789 35.946 310.189 36.054C309.589 36.162 308.899 36.216 308.119 36.216C307.399 36.216 306.751 36.102 306.175 35.874C305.599 35.646 305.107 35.322 304.699 34.902C304.291 34.482 303.973 33.972 303.745 33.372C303.529 32.76 303.421 32.076 303.421 31.32C303.421 30.6 303.511 29.94 303.691 29.34C303.883 28.74 304.159 28.224 304.519 27.792C304.879 27.36 305.317 27.024 305.833 26.784C306.361 26.544 306.961 26.424 307.633 26.424C308.173 26.424 308.647 26.496 309.055 26.64C309.475 26.784 309.787 26.922 309.991 27.054V22.32ZM314.021 31.338C314.021 30.51 314.141 29.79 314.381 29.178C314.621 28.554 314.939 28.038 315.335 27.63C315.731 27.222 316.187 26.916 316.703 26.712C317.219 26.508 317.747 26.406 318.287 26.406C319.547 26.406 320.513 26.802 321.185 27.594C321.857 28.374 322.193 29.568 322.193 31.176C322.193 31.248 322.193 31.344 322.193 31.464C322.193 31.572 322.187 31.674 322.175 31.77H315.767C315.839 32.742 316.121 33.48 316.613 33.984C317.105 34.488 317.873 34.74 318.917 34.74C319.505 34.74 319.997 34.692 320.393 34.596C320.801 34.488 321.107 34.386 321.311 34.29L321.545 35.694C321.341 35.802 320.981 35.916 320.465 36.036C319.961 36.156 319.385 36.216 318.737 36.216C317.921 36.216 317.213 36.096 316.613 35.856C316.025 35.604 315.539 35.262 315.155 34.83C314.771 34.398 314.483 33.888 314.291 33.3C314.111 32.7 314.021 32.046 314.021 31.338ZM320.447 30.42C320.459 29.664 320.267 29.046 319.871 28.566C319.487 28.074 318.953 27.828 318.269 27.828C317.885 27.828 317.543 27.906 317.243 28.062C316.955 28.206 316.709 28.398 316.505 28.638C316.301 28.878 316.139 29.154 316.019 29.466C315.911 29.778 315.839 30.096 315.803 30.42H320.447ZM328.997 26.1C329.681 25.836 330.347 25.5 330.995 25.092C331.643 24.672 332.237 24.15 332.777 23.526H333.965V36H332.291V25.848C332.147 25.98 331.967 26.118 331.751 26.262C331.547 26.406 331.319 26.544 331.067 26.676C330.827 26.808 330.569 26.934 330.293 27.054C330.029 27.174 329.771 27.276 329.519 27.36L328.997 26.1ZM341.065 28.332C342.877 28.404 344.203 28.8 345.043 29.52C345.895 30.24 346.321 31.218 346.321 32.454C346.321 33.006 346.225 33.516 346.033 33.984C345.853 34.452 345.571 34.854 345.187 35.19C344.815 35.526 344.341 35.79 343.765 35.982C343.189 36.174 342.505 36.27 341.713 36.27C341.401 36.27 341.083 36.246 340.759 36.198C340.435 36.15 340.135 36.09 339.859 36.018C339.583 35.946 339.337 35.874 339.121 35.802C338.905 35.73 338.749 35.67 338.653 35.622L338.977 34.164C339.181 34.26 339.511 34.386 339.967 34.542C340.435 34.698 341.005 34.776 341.677 34.776C342.217 34.776 342.667 34.716 343.027 34.596C343.399 34.476 343.699 34.314 343.927 34.11C344.155 33.906 344.317 33.672 344.413 33.408C344.521 33.132 344.575 32.844 344.575 32.544C344.575 32.088 344.497 31.686 344.341 31.338C344.185 30.978 343.909 30.678 343.513 30.438C343.117 30.198 342.589 30.018 341.929 29.898C341.269 29.766 340.435 29.7 339.427 29.7C339.499 29.112 339.553 28.56 339.589 28.044C339.637 27.528 339.679 27.024 339.715 26.532C339.751 26.04 339.781 25.554 339.805 25.074C339.829 24.582 339.853 24.066 339.877 23.526H345.889V24.948H341.335C341.323 25.128 341.305 25.374 341.281 25.686C341.257 25.986 341.233 26.304 341.209 26.64C341.185 26.964 341.161 27.282 341.137 27.594C341.113 27.906 341.089 28.152 341.065 28.332ZM351.064 35.028C351.064 35.352 350.956 35.634 350.74 35.874C350.524 36.114 350.23 36.234 349.858 36.234C349.486 36.234 349.192 36.114 348.976 35.874C348.76 35.634 348.652 35.352 348.652 35.028C348.652 34.704 348.76 34.422 348.976 34.182C349.192 33.942 349.486 33.822 349.858 33.822C350.23 33.822 350.524 33.942 350.74 34.182C350.956 34.422 351.064 34.704 351.064 35.028ZM356.141 34.776C357.209 34.776 357.971 34.566 358.427 34.146C358.895 33.726 359.129 33.162 359.129 32.454C359.129 31.998 359.033 31.614 358.841 31.302C358.649 30.99 358.397 30.744 358.085 30.564C357.773 30.372 357.407 30.24 356.987 30.168C356.579 30.084 356.159 30.042 355.727 30.042H355.295V28.674H355.889C356.189 28.674 356.495 28.644 356.807 28.584C357.131 28.524 357.425 28.416 357.689 28.26C357.953 28.104 358.169 27.894 358.337 27.63C358.505 27.354 358.589 27.012 358.589 26.604C358.589 26.268 358.529 25.98 358.409 25.74C358.289 25.5 358.127 25.302 357.923 25.146C357.731 24.99 357.503 24.882 357.239 24.822C356.987 24.75 356.717 24.714 356.429 24.714C355.853 24.714 355.361 24.798 354.953 24.966C354.557 25.134 354.221 25.308 353.945 25.488L353.297 24.21C353.441 24.114 353.621 24.012 353.837 23.904C354.065 23.784 354.317 23.676 354.593 23.58C354.869 23.484 355.163 23.406 355.475 23.346C355.799 23.274 356.135 23.238 356.483 23.238C357.143 23.238 357.713 23.322 358.193 23.49C358.673 23.646 359.069 23.874 359.381 24.174C359.693 24.462 359.927 24.81 360.083 25.218C360.239 25.614 360.317 26.046 360.317 26.514C360.317 27.162 360.131 27.72 359.759 28.188C359.387 28.644 358.937 28.992 358.409 29.232C358.733 29.328 359.045 29.466 359.345 29.646C359.645 29.826 359.903 30.054 360.119 30.33C360.347 30.606 360.527 30.924 360.659 31.284C360.803 31.644 360.875 32.046 360.875 32.49C360.875 33.03 360.779 33.534 360.587 34.002C360.407 34.458 360.119 34.854 359.723 35.19C359.339 35.526 358.853 35.79 358.265 35.982C357.677 36.174 356.981 36.27 356.177 36.27C355.865 36.27 355.541 36.246 355.205 36.198C354.881 36.15 354.575 36.09 354.287 36.018C353.999 35.946 353.747 35.874 353.531 35.802C353.315 35.73 353.159 35.67 353.063 35.622L353.387 34.164C353.591 34.26 353.927 34.386 354.395 34.542C354.875 34.698 355.457 34.776 356.141 34.776ZM363.133 29.754C363.133 27.666 363.499 26.058 364.231 24.93C364.975 23.802 366.001 23.238 367.309 23.238C368.617 23.238 369.637 23.802 370.369 24.93C371.113 26.058 371.485 27.666 371.485 29.754C371.485 31.842 371.113 33.45 370.369 34.578C369.637 35.706 368.617 36.27 367.309 36.27C366.001 36.27 364.975 35.706 364.231 34.578C363.499 33.45 363.133 31.842 363.133 29.754ZM369.721 29.754C369.721 29.07 369.679 28.422 369.595 27.81C369.523 27.198 369.391 26.664 369.199 26.208C369.019 25.752 368.773 25.392 368.461 25.128C368.149 24.852 367.765 24.714 367.309 24.714C366.853 24.714 366.469 24.852 366.157 25.128C365.845 25.392 365.593 25.752 365.401 26.208C365.221 26.664 365.089 27.198 365.005 27.81C364.933 28.422 364.897 29.07 364.897 29.754C364.897 30.438 364.933 31.086 365.005 31.698C365.089 32.31 365.221 32.844 365.401 33.3C365.593 33.756 365.845 34.122 366.157 34.398C366.469 34.662 366.853 34.794 367.309 34.794C367.765 34.794 368.149 34.662 368.461 34.398C368.773 34.122 369.019 33.756 369.199 33.3C369.391 32.844 369.523 32.31 369.595 31.698C369.679 31.086 369.721 30.438 369.721 29.754ZM381.168 34.794C381.564 34.794 381.912 34.788 382.212 34.776C382.524 34.752 382.782 34.716 382.986 34.668V31.878C382.866 31.818 382.668 31.77 382.392 31.734C382.128 31.686 381.804 31.662 381.42 31.662C381.168 31.662 380.898 31.68 380.61 31.716C380.334 31.752 380.076 31.83 379.836 31.95C379.608 32.058 379.416 32.214 379.26 32.418C379.104 32.61 379.026 32.868 379.026 33.192C379.026 33.792 379.218 34.212 379.602 34.452C379.986 34.68 380.508 34.794 381.168 34.794ZM381.024 26.406C381.696 26.406 382.26 26.496 382.716 26.676C383.184 26.844 383.556 27.09 383.832 27.414C384.12 27.726 384.324 28.104 384.444 28.548C384.564 28.98 384.624 29.46 384.624 29.988V35.838C384.48 35.862 384.276 35.898 384.012 35.946C383.76 35.982 383.472 36.018 383.148 36.054C382.824 36.09 382.47 36.12 382.086 36.144C381.714 36.18 381.342 36.198 380.97 36.198C380.442 36.198 379.956 36.144 379.512 36.036C379.068 35.928 378.684 35.76 378.36 35.532C378.036 35.292 377.784 34.98 377.604 34.596C377.424 34.212 377.334 33.75 377.334 33.21C377.334 32.694 377.436 32.25 377.64 31.878C377.856 31.506 378.144 31.206 378.504 30.978C378.864 30.75 379.284 30.582 379.764 30.474C380.244 30.366 380.748 30.312 381.276 30.312C381.444 30.312 381.618 30.324 381.798 30.348C381.978 30.36 382.146 30.384 382.302 30.42C382.47 30.444 382.614 30.468 382.734 30.492C382.854 30.516 382.938 30.534 382.986 30.546V30.078C382.986 29.802 382.956 29.532 382.896 29.268C382.836 28.992 382.728 28.752 382.572 28.548C382.416 28.332 382.2 28.164 381.924 28.044C381.66 27.912 381.312 27.846 380.88 27.846C380.328 27.846 379.842 27.888 379.422 27.972C379.014 28.044 378.708 28.122 378.504 28.206L378.306 26.82C378.522 26.724 378.882 26.634 379.386 26.55C379.89 26.454 380.436 26.406 381.024 26.406ZM391.804 26.1C392.488 25.836 393.154 25.5 393.802 25.092C394.45 24.672 395.044 24.15 395.584 23.526H396.772V36H395.098V25.848C394.954 25.98 394.774 26.118 394.558 26.262C394.354 26.406 394.126 26.544 393.874 26.676C393.634 26.808 393.376 26.934 393.1 27.054C392.836 27.174 392.578 27.276 392.326 27.36L391.804 26.1ZM403.224 36C403.296 35.04 403.464 34.032 403.728 32.976C404.004 31.908 404.34 30.876 404.736 29.88C405.132 28.872 405.564 27.942 406.032 27.09C406.512 26.226 406.98 25.524 407.436 24.984H401.37V23.526H409.308V24.912C408.912 25.368 408.474 25.998 407.994 26.802C407.514 27.594 407.058 28.488 406.626 29.484C406.206 30.468 405.84 31.524 405.528 32.652C405.228 33.768 405.042 34.884 404.97 36H403.224ZM413.87 35.028C413.87 35.352 413.762 35.634 413.546 35.874C413.33 36.114 413.036 36.234 412.664 36.234C412.292 36.234 411.998 36.114 411.782 35.874C411.566 35.634 411.458 35.352 411.458 35.028C411.458 34.704 411.566 34.422 411.782 34.182C411.998 33.942 412.292 33.822 412.664 33.822C413.036 33.822 413.33 33.942 413.546 34.182C413.762 34.422 413.87 34.704 413.87 35.028ZM418.948 34.776C420.016 34.776 420.778 34.566 421.234 34.146C421.702 33.726 421.936 33.162 421.936 32.454C421.936 31.998 421.84 31.614 421.648 31.302C421.456 30.99 421.204 30.744 420.892 30.564C420.58 30.372 420.214 30.24 419.794 30.168C419.386 30.084 418.966 30.042 418.534 30.042H418.102V28.674H418.696C418.996 28.674 419.302 28.644 419.614 28.584C419.938 28.524 420.232 28.416 420.496 28.26C420.76 28.104 420.976 27.894 421.144 27.63C421.312 27.354 421.396 27.012 421.396 26.604C421.396 26.268 421.336 25.98 421.216 25.74C421.096 25.5 420.934 25.302 420.73 25.146C420.538 24.99 420.31 24.882 420.046 24.822C419.794 24.75 419.524 24.714 419.236 24.714C418.66 24.714 418.168 24.798 417.76 24.966C417.364 25.134 417.028 25.308 416.752 25.488L416.104 24.21C416.248 24.114 416.428 24.012 416.644 23.904C416.872 23.784 417.124 23.676 417.4 23.58C417.676 23.484 417.97 23.406 418.282 23.346C418.606 23.274 418.942 23.238 419.29 23.238C419.95 23.238 420.52 23.322 421 23.49C421.48 23.646 421.876 23.874 422.188 24.174C422.5 24.462 422.734 24.81 422.89 25.218C423.046 25.614 423.124 26.046 423.124 26.514C423.124 27.162 422.938 27.72 422.566 28.188C422.194 28.644 421.744 28.992 421.216 29.232C421.54 29.328 421.852 29.466 422.152 29.646C422.452 29.826 422.71 30.054 422.926 30.33C423.154 30.606 423.334 30.924 423.466 31.284C423.61 31.644 423.682 32.046 423.682 32.49C423.682 33.03 423.586 33.534 423.394 34.002C423.214 34.458 422.926 34.854 422.53 35.19C422.146 35.526 421.66 35.79 421.072 35.982C420.484 36.174 419.788 36.27 418.984 36.27C418.672 36.27 418.348 36.246 418.012 36.198C417.688 36.15 417.382 36.09 417.094 36.018C416.806 35.946 416.554 35.874 416.338 35.802C416.122 35.73 415.966 35.67 415.87 35.622L416.194 34.164C416.398 34.26 416.734 34.386 417.202 34.542C417.682 34.698 418.264 34.776 418.948 34.776ZM425.94 29.754C425.94 27.666 426.306 26.058 427.038 24.93C427.782 23.802 428.808 23.238 430.116 23.238C431.424 23.238 432.444 23.802 433.176 24.93C433.92 26.058 434.292 27.666 434.292 29.754C434.292 31.842 433.92 33.45 433.176 34.578C432.444 35.706 431.424 36.27 430.116 36.27C428.808 36.27 427.782 35.706 427.038 34.578C426.306 33.45 425.94 31.842 425.94 29.754ZM432.528 29.754C432.528 29.07 432.486 28.422 432.402 27.81C432.33 27.198 432.198 26.664 432.006 26.208C431.826 25.752 431.58 25.392 431.268 25.128C430.956 24.852 430.572 24.714 430.116 24.714C429.66 24.714 429.276 24.852 428.964 25.128C428.652 25.392 428.4 25.752 428.208 26.208C428.028 26.664 427.896 27.198 427.812 27.81C427.74 28.422 427.704 29.07 427.704 29.754C427.704 30.438 427.74 31.086 427.812 31.698C427.896 32.31 428.028 32.844 428.208 33.3C428.4 33.756 428.652 34.122 428.964 34.398C429.276 34.662 429.66 34.794 430.116 34.794C430.572 34.794 430.956 34.662 431.268 34.398C431.58 34.122 431.826 33.756 432.006 33.3C432.198 32.844 432.33 32.31 432.402 31.698C432.486 31.086 432.528 30.438 432.528 29.754ZM440.806 36V22.32L442.48 22.032V26.82C442.792 26.7 443.122 26.61 443.47 26.55C443.83 26.478 444.184 26.442 444.532 26.442C445.276 26.442 445.894 26.55 446.386 26.766C446.878 26.97 447.268 27.264 447.556 27.648C447.856 28.02 448.066 28.47 448.186 28.998C448.306 29.526 448.366 30.108 448.366 30.744V36H446.692V31.104C446.692 30.528 446.65 30.036 446.566 29.628C446.494 29.22 446.368 28.89 446.188 28.638C446.008 28.386 445.768 28.206 445.468 28.098C445.168 27.978 444.796 27.918 444.352 27.918C444.172 27.918 443.986 27.93 443.794 27.954C443.602 27.978 443.416 28.008 443.236 28.044C443.068 28.068 442.912 28.098 442.768 28.134C442.636 28.17 442.54 28.2 442.48 28.224V36H440.806ZM125.219 44.526C124.763 45.846 124.325 47.07 123.905 48.198C123.497 49.314 123.095 50.376 122.699 51.384C122.303 52.392 121.907 53.358 121.511 54.282C121.127 55.194 120.731 56.1 120.323 57H118.685C118.277 56.1 117.875 55.194 117.479 54.282C117.095 53.358 116.699 52.392 116.291 51.384C115.895 50.376 115.487 49.314 115.067 48.198C114.647 47.07 114.215 45.846 113.771 44.526H115.697C116.345 46.422 116.981 48.246 117.605 49.998C118.229 51.75 118.871 53.394 119.531 54.93C120.191 53.406 120.833 51.768 121.457 50.016C122.081 48.252 122.711 46.422 123.347 44.526H125.219ZM128.517 57H126.843V47.64H128.517V57ZM127.671 45.948C127.371 45.948 127.113 45.852 126.897 45.66C126.693 45.456 126.591 45.186 126.591 44.85C126.591 44.514 126.693 44.25 126.897 44.058C127.113 43.854 127.371 43.752 127.671 43.752C127.971 43.752 128.223 43.854 128.427 44.058C128.643 44.25 128.751 44.514 128.751 44.85C128.751 45.186 128.643 45.456 128.427 45.66C128.223 45.852 127.971 45.948 127.671 45.948ZM130.874 52.338C130.874 51.51 130.994 50.79 131.234 50.178C131.474 49.554 131.792 49.038 132.188 48.63C132.584 48.222 133.04 47.916 133.556 47.712C134.072 47.508 134.6 47.406 135.14 47.406C136.4 47.406 137.366 47.802 138.038 48.594C138.71 49.374 139.046 50.568 139.046 52.176C139.046 52.248 139.046 52.344 139.046 52.464C139.046 52.572 139.04 52.674 139.028 52.77H132.62C132.692 53.742 132.974 54.48 133.466 54.984C133.958 55.488 134.726 55.74 135.77 55.74C136.358 55.74 136.85 55.692 137.246 55.596C137.654 55.488 137.96 55.386 138.164 55.29L138.398 56.694C138.194 56.802 137.834 56.916 137.318 57.036C136.814 57.156 136.238 57.216 135.59 57.216C134.774 57.216 134.066 57.096 133.466 56.856C132.878 56.604 132.392 56.262 132.008 55.83C131.624 55.398 131.336 54.888 131.144 54.3C130.964 53.7 130.874 53.046 130.874 52.338ZM137.3 51.42C137.312 50.664 137.12 50.046 136.724 49.566C136.34 49.074 135.806 48.828 135.122 48.828C134.738 48.828 134.396 48.906 134.096 49.062C133.808 49.206 133.562 49.398 133.358 49.638C133.154 49.878 132.992 50.154 132.872 50.466C132.764 50.778 132.692 51.096 132.656 51.42H137.3ZM144.907 47.442C145.051 47.442 145.213 47.454 145.393 47.478C145.585 47.49 145.771 47.514 145.951 47.55C146.131 47.574 146.293 47.604 146.437 47.64C146.593 47.664 146.707 47.688 146.779 47.712L146.491 49.17C146.359 49.122 146.137 49.068 145.825 49.008C145.525 48.936 145.135 48.9 144.655 48.9C144.343 48.9 144.031 48.936 143.719 49.008C143.419 49.068 143.221 49.11 143.125 49.134V57H141.451V48.036C141.847 47.892 142.339 47.76 142.927 47.64C143.515 47.508 144.175 47.442 144.907 47.442ZM148.394 47.91C148.778 47.814 149.288 47.712 149.924 47.604C150.56 47.496 151.292 47.442 152.12 47.442C152.864 47.442 153.482 47.55 153.974 47.766C154.466 47.97 154.856 48.264 155.144 48.648C155.444 49.02 155.654 49.47 155.774 49.998C155.894 50.526 155.954 51.108 155.954 51.744V57H154.28V52.104C154.28 51.528 154.238 51.036 154.154 50.628C154.082 50.22 153.956 49.89 153.776 49.638C153.596 49.386 153.356 49.206 153.056 49.098C152.756 48.978 152.384 48.918 151.94 48.918C151.76 48.918 151.574 48.924 151.382 48.936C151.19 48.948 151.004 48.966 150.824 48.99C150.656 49.002 150.5 49.02 150.356 49.044C150.224 49.068 150.128 49.086 150.068 49.098V57H148.394V47.91ZM158.208 52.338C158.208 51.51 158.328 50.79 158.568 50.178C158.808 49.554 159.126 49.038 159.522 48.63C159.918 48.222 160.374 47.916 160.89 47.712C161.406 47.508 161.934 47.406 162.474 47.406C163.734 47.406 164.7 47.802 165.372 48.594C166.044 49.374 166.38 50.568 166.38 52.176C166.38 52.248 166.38 52.344 166.38 52.464C166.38 52.572 166.374 52.674 166.362 52.77H159.954C160.026 53.742 160.308 54.48 160.8 54.984C161.292 55.488 162.06 55.74 163.104 55.74C163.692 55.74 164.184 55.692 164.58 55.596C164.988 55.488 165.294 55.386 165.498 55.29L165.732 56.694C165.528 56.802 165.168 56.916 164.652 57.036C164.148 57.156 163.572 57.216 162.924 57.216C162.108 57.216 161.4 57.096 160.8 56.856C160.212 56.604 159.726 56.262 159.342 55.83C158.958 55.398 158.67 54.888 158.478 54.3C158.298 53.7 158.208 53.046 158.208 52.338ZM164.634 51.42C164.646 50.664 164.454 50.046 164.058 49.566C163.674 49.074 163.14 48.828 162.456 48.828C162.072 48.828 161.73 48.906 161.43 49.062C161.142 49.206 160.896 49.398 160.692 49.638C160.488 49.878 160.326 50.154 160.206 50.466C160.098 50.778 160.026 51.096 159.99 51.42H164.634ZM170.963 55.794C171.647 55.794 172.151 55.704 172.475 55.524C172.811 55.344 172.979 55.056 172.979 54.66C172.979 54.252 172.817 53.928 172.493 53.688C172.169 53.448 171.635 53.178 170.891 52.878C170.531 52.734 170.183 52.59 169.847 52.446C169.523 52.29 169.241 52.11 169.001 51.906C168.761 51.702 168.569 51.456 168.425 51.168C168.281 50.88 168.209 50.526 168.209 50.106C168.209 49.278 168.515 48.624 169.127 48.144C169.739 47.652 170.573 47.406 171.629 47.406C171.893 47.406 172.157 47.424 172.421 47.46C172.685 47.484 172.931 47.52 173.159 47.568C173.387 47.604 173.585 47.646 173.753 47.694C173.933 47.742 174.071 47.784 174.167 47.82L173.861 49.26C173.681 49.164 173.399 49.068 173.015 48.972C172.631 48.864 172.169 48.81 171.629 48.81C171.161 48.81 170.753 48.906 170.405 49.098C170.057 49.278 169.883 49.566 169.883 49.962C169.883 50.166 169.919 50.346 169.991 50.502C170.075 50.658 170.195 50.802 170.351 50.934C170.519 51.054 170.723 51.168 170.963 51.276C171.203 51.384 171.491 51.498 171.827 51.618C172.271 51.786 172.667 51.954 173.015 52.122C173.363 52.278 173.657 52.464 173.897 52.68C174.149 52.896 174.341 53.16 174.473 53.472C174.605 53.772 174.671 54.144 174.671 54.588C174.671 55.452 174.347 56.106 173.699 56.55C173.063 56.994 172.151 57.216 170.963 57.216C170.135 57.216 169.487 57.144 169.019 57C168.551 56.868 168.233 56.766 168.065 56.694L168.371 55.254C168.563 55.326 168.869 55.434 169.289 55.578C169.709 55.722 170.267 55.794 170.963 55.794ZM178.798 56.028C178.798 56.352 178.69 56.634 178.474 56.874C178.258 57.114 177.964 57.234 177.592 57.234C177.22 57.234 176.926 57.114 176.71 56.874C176.494 56.634 176.386 56.352 176.386 56.028C176.386 55.704 176.494 55.422 176.71 55.182C176.926 54.942 177.22 54.822 177.592 54.822C177.964 54.822 178.258 54.942 178.474 55.182C178.69 55.422 178.798 55.704 178.798 56.028ZM178.798 48.846C178.798 49.17 178.69 49.452 178.474 49.692C178.258 49.932 177.964 50.052 177.592 50.052C177.22 50.052 176.926 49.932 176.71 49.692C176.494 49.452 176.386 49.17 176.386 48.846C176.386 48.522 176.494 48.24 176.71 48C176.926 47.76 177.22 47.64 177.592 47.64C177.964 47.64 178.258 47.76 178.474 48C178.69 48.24 178.798 48.522 178.798 48.846ZM191.462 49.62C191.258 49.452 190.964 49.29 190.58 49.134C190.196 48.978 189.776 48.9 189.32 48.9C188.84 48.9 188.426 48.99 188.078 49.17C187.742 49.338 187.466 49.578 187.25 49.89C187.034 50.19 186.878 50.55 186.782 50.97C186.686 51.39 186.638 51.84 186.638 52.32C186.638 53.412 186.908 54.258 187.448 54.858C187.988 55.446 188.708 55.74 189.608 55.74C190.064 55.74 190.442 55.722 190.742 55.686C191.054 55.638 191.294 55.59 191.462 55.542V49.62ZM191.462 43.32L193.136 43.032V56.73C192.752 56.838 192.26 56.946 191.66 57.054C191.06 57.162 190.37 57.216 189.59 57.216C188.87 57.216 188.222 57.102 187.646 56.874C187.07 56.646 186.578 56.322 186.17 55.902C185.762 55.482 185.444 54.972 185.216 54.372C185 53.76 184.892 53.076 184.892 52.32C184.892 51.6 184.982 50.94 185.162 50.34C185.354 49.74 185.63 49.224 185.99 48.792C186.35 48.36 186.788 48.024 187.304 47.784C187.832 47.544 188.432 47.424 189.104 47.424C189.644 47.424 190.118 47.496 190.526 47.64C190.946 47.784 191.258 47.922 191.462 48.054V43.32ZM195.491 52.338C195.491 51.51 195.611 50.79 195.851 50.178C196.091 49.554 196.409 49.038 196.805 48.63C197.201 48.222 197.657 47.916 198.173 47.712C198.689 47.508 199.217 47.406 199.757 47.406C201.017 47.406 201.983 47.802 202.655 48.594C203.327 49.374 203.663 50.568 203.663 52.176C203.663 52.248 203.663 52.344 203.663 52.464C203.663 52.572 203.657 52.674 203.645 52.77H197.237C197.309 53.742 197.591 54.48 198.083 54.984C198.575 55.488 199.343 55.74 200.387 55.74C200.975 55.74 201.467 55.692 201.863 55.596C202.271 55.488 202.577 55.386 202.781 55.29L203.015 56.694C202.811 56.802 202.451 56.916 201.935 57.036C201.431 57.156 200.855 57.216 200.207 57.216C199.391 57.216 198.683 57.096 198.083 56.856C197.495 56.604 197.009 56.262 196.625 55.83C196.241 55.398 195.953 54.888 195.761 54.3C195.581 53.7 195.491 53.046 195.491 52.338ZM201.917 51.42C201.929 50.664 201.737 50.046 201.341 49.566C200.957 49.074 200.423 48.828 199.739 48.828C199.355 48.828 199.013 48.906 198.713 49.062C198.425 49.206 198.179 49.398 197.975 49.638C197.771 49.878 197.609 50.154 197.489 50.466C197.381 50.778 197.309 51.096 197.273 51.42H201.917ZM217.812 49.512C217.812 51.984 217.194 53.856 215.958 55.128C214.734 56.388 212.91 57.024 210.486 57.036L210.432 55.632C211.188 55.632 211.866 55.56 212.466 55.416C213.078 55.272 213.612 55.044 214.068 54.732C214.524 54.408 214.902 53.994 215.202 53.49C215.514 52.986 215.742 52.368 215.886 51.636C215.574 51.78 215.22 51.9 214.824 51.996C214.428 52.08 214.02 52.122 213.6 52.122C212.892 52.122 212.292 52.02 211.8 51.816C211.308 51.6 210.906 51.318 210.594 50.97C210.282 50.61 210.054 50.202 209.91 49.746C209.778 49.278 209.712 48.792 209.712 48.288C209.712 47.844 209.79 47.382 209.946 46.902C210.102 46.422 210.336 45.984 210.648 45.588C210.972 45.192 211.38 44.868 211.872 44.616C212.364 44.364 212.946 44.238 213.618 44.238C214.302 44.238 214.902 44.358 215.418 44.598C215.946 44.838 216.384 45.186 216.732 45.642C217.092 46.098 217.362 46.656 217.542 47.316C217.722 47.964 217.812 48.696 217.812 49.512ZM213.78 50.754C214.2 50.754 214.596 50.718 214.968 50.646C215.34 50.562 215.7 50.442 216.048 50.286C216.06 50.154 216.066 50.028 216.066 49.908C216.066 49.776 216.066 49.644 216.066 49.512C216.066 48.996 216.03 48.504 215.958 48.036C215.886 47.556 215.754 47.142 215.562 46.794C215.382 46.434 215.136 46.152 214.824 45.948C214.512 45.732 214.116 45.624 213.636 45.624C213.24 45.624 212.904 45.708 212.628 45.876C212.352 46.044 212.124 46.26 211.944 46.524C211.764 46.776 211.632 47.058 211.548 47.37C211.476 47.67 211.44 47.964 211.44 48.252C211.44 49.068 211.632 49.692 212.016 50.124C212.412 50.544 213 50.754 213.78 50.754ZM222.374 56.028C222.374 56.352 222.266 56.634 222.05 56.874C221.834 57.114 221.54 57.234 221.168 57.234C220.796 57.234 220.502 57.114 220.286 56.874C220.07 56.634 219.962 56.352 219.962 56.028C219.962 55.704 220.07 55.422 220.286 55.182C220.502 54.942 220.796 54.822 221.168 54.822C221.54 54.822 221.834 54.942 222.05 55.182C222.266 55.422 222.374 55.704 222.374 56.028ZM224.284 50.754C224.284 48.666 224.65 47.058 225.382 45.93C226.126 44.802 227.152 44.238 228.46 44.238C229.768 44.238 230.788 44.802 231.52 45.93C232.264 47.058 232.636 48.666 232.636 50.754C232.636 52.842 232.264 54.45 231.52 55.578C230.788 56.706 229.768 57.27 228.46 57.27C227.152 57.27 226.126 56.706 225.382 55.578C224.65 54.45 224.284 52.842 224.284 50.754ZM230.872 50.754C230.872 50.07 230.83 49.422 230.746 48.81C230.674 48.198 230.542 47.664 230.35 47.208C230.17 46.752 229.924 46.392 229.612 46.128C229.3 45.852 228.916 45.714 228.46 45.714C228.004 45.714 227.62 45.852 227.308 46.128C226.996 46.392 226.744 46.752 226.552 47.208C226.372 47.664 226.24 48.198 226.156 48.81C226.084 49.422 226.048 50.07 226.048 50.754C226.048 51.438 226.084 52.086 226.156 52.698C226.24 53.31 226.372 53.844 226.552 54.3C226.744 54.756 226.996 55.122 227.308 55.398C227.62 55.662 228.004 55.794 228.46 55.794C228.916 55.794 229.3 55.662 229.612 55.398C229.924 55.122 230.17 54.756 230.35 54.3C230.542 53.844 230.674 53.31 230.746 52.698C230.83 52.086 230.872 51.438 230.872 50.754ZM234.444 50.754C234.444 48.666 234.81 47.058 235.542 45.93C236.286 44.802 237.312 44.238 238.62 44.238C239.928 44.238 240.948 44.802 241.68 45.93C242.424 47.058 242.796 48.666 242.796 50.754C242.796 52.842 242.424 54.45 241.68 55.578C240.948 56.706 239.928 57.27 238.62 57.27C237.312 57.27 236.286 56.706 235.542 55.578C234.81 54.45 234.444 52.842 234.444 50.754ZM241.032 50.754C241.032 50.07 240.99 49.422 240.906 48.81C240.834 48.198 240.702 47.664 240.51 47.208C240.33 46.752 240.084 46.392 239.772 46.128C239.46 45.852 239.076 45.714 238.62 45.714C238.164 45.714 237.78 45.852 237.468 46.128C237.156 46.392 236.904 46.752 236.712 47.208C236.532 47.664 236.4 48.198 236.316 48.81C236.244 49.422 236.208 50.07 236.208 50.754C236.208 51.438 236.244 52.086 236.316 52.698C236.4 53.31 236.532 53.844 236.712 54.3C236.904 54.756 237.156 55.122 237.468 55.398C237.78 55.662 238.164 55.794 238.62 55.794C239.076 55.794 239.46 55.662 239.772 55.398C240.084 55.122 240.33 54.756 240.51 54.3C240.702 53.844 240.834 53.31 240.906 52.698C240.99 52.086 241.032 51.438 241.032 50.754ZM249.31 57V43.32L250.984 43.032V47.82C251.296 47.7 251.626 47.61 251.974 47.55C252.334 47.478 252.688 47.442 253.036 47.442C253.78 47.442 254.398 47.55 254.89 47.766C255.382 47.97 255.772 48.264 256.06 48.648C256.36 49.02 256.57 49.47 256.69 49.998C256.81 50.526 256.87 51.108 256.87 51.744V57H255.196V52.104C255.196 51.528 255.154 51.036 255.07 50.628C254.998 50.22 254.872 49.89 254.692 49.638C254.512 49.386 254.272 49.206 253.972 49.098C253.672 48.978 253.3 48.918 252.856 48.918C252.676 48.918 252.49 48.93 252.298 48.954C252.106 48.978 251.92 49.008 251.74 49.044C251.572 49.068 251.416 49.098 251.272 49.134C251.14 49.17 251.044 49.2 250.984 49.224V57H249.31ZM266.927 55.794C267.323 55.794 267.671 55.788 267.971 55.776C268.283 55.752 268.541 55.716 268.745 55.668V52.878C268.625 52.818 268.427 52.77 268.151 52.734C267.887 52.686 267.563 52.662 267.179 52.662C266.927 52.662 266.657 52.68 266.369 52.716C266.093 52.752 265.835 52.83 265.595 52.95C265.367 53.058 265.175 53.214 265.019 53.418C264.863 53.61 264.785 53.868 264.785 54.192C264.785 54.792 264.977 55.212 265.361 55.452C265.745 55.68 266.267 55.794 266.927 55.794ZM266.783 47.406C267.455 47.406 268.019 47.496 268.475 47.676C268.943 47.844 269.315 48.09 269.591 48.414C269.879 48.726 270.083 49.104 270.203 49.548C270.323 49.98 270.383 50.46 270.383 50.988V56.838C270.239 56.862 270.035 56.898 269.771 56.946C269.519 56.982 269.231 57.018 268.907 57.054C268.583 57.09 268.229 57.12 267.845 57.144C267.473 57.18 267.101 57.198 266.729 57.198C266.201 57.198 265.715 57.144 265.271 57.036C264.827 56.928 264.443 56.76 264.119 56.532C263.795 56.292 263.543 55.98 263.363 55.596C263.183 55.212 263.093 54.75 263.093 54.21C263.093 53.694 263.195 53.25 263.399 52.878C263.615 52.506 263.903 52.206 264.263 51.978C264.623 51.75 265.043 51.582 265.523 51.474C266.003 51.366 266.507 51.312 267.035 51.312C267.203 51.312 267.377 51.324 267.557 51.348C267.737 51.36 267.905 51.384 268.061 51.42C268.229 51.444 268.373 51.468 268.493 51.492C268.613 51.516 268.697 51.534 268.745 51.546V51.078C268.745 50.802 268.715 50.532 268.655 50.268C268.595 49.992 268.487 49.752 268.331 49.548C268.175 49.332 267.959 49.164 267.683 49.044C267.419 48.912 267.071 48.846 266.639 48.846C266.087 48.846 265.601 48.888 265.181 48.972C264.773 49.044 264.467 49.122 264.263 49.206L264.065 47.82C264.281 47.724 264.641 47.634 265.145 47.55C265.649 47.454 266.195 47.406 266.783 47.406ZM277.564 47.1C278.248 46.836 278.914 46.5 279.562 46.092C280.21 45.672 280.804 45.15 281.344 44.526H282.532V57H280.858V46.848C280.714 46.98 280.534 47.118 280.318 47.262C280.114 47.406 279.886 47.544 279.634 47.676C279.394 47.808 279.136 47.934 278.86 48.054C278.596 48.174 278.338 48.276 278.086 48.36L277.564 47.1ZM287.724 47.1C288.408 46.836 289.074 46.5 289.722 46.092C290.37 45.672 290.964 45.15 291.504 44.526H292.692V57H291.018V46.848C290.874 46.98 290.694 47.118 290.478 47.262C290.274 47.406 290.046 47.544 289.794 47.676C289.554 47.808 289.296 47.934 289.02 48.054C288.756 48.174 288.498 48.276 288.246 48.36L287.724 47.1ZM299.63 56.028C299.63 56.352 299.522 56.634 299.306 56.874C299.09 57.114 298.796 57.234 298.424 57.234C298.052 57.234 297.758 57.114 297.542 56.874C297.326 56.634 297.218 56.352 297.218 56.028C297.218 55.704 297.326 55.422 297.542 55.182C297.758 54.942 298.052 54.822 298.424 54.822C298.796 54.822 299.09 54.942 299.306 55.182C299.522 55.422 299.63 55.704 299.63 56.028ZM301.54 50.754C301.54 48.666 301.906 47.058 302.638 45.93C303.382 44.802 304.408 44.238 305.716 44.238C307.024 44.238 308.044 44.802 308.776 45.93C309.52 47.058 309.892 48.666 309.892 50.754C309.892 52.842 309.52 54.45 308.776 55.578C308.044 56.706 307.024 57.27 305.716 57.27C304.408 57.27 303.382 56.706 302.638 55.578C301.906 54.45 301.54 52.842 301.54 50.754ZM308.128 50.754C308.128 50.07 308.086 49.422 308.002 48.81C307.93 48.198 307.798 47.664 307.606 47.208C307.426 46.752 307.18 46.392 306.868 46.128C306.556 45.852 306.172 45.714 305.716 45.714C305.26 45.714 304.876 45.852 304.564 46.128C304.252 46.392 304 46.752 303.808 47.208C303.628 47.664 303.496 48.198 303.412 48.81C303.34 49.422 303.304 50.07 303.304 50.754C303.304 51.438 303.34 52.086 303.412 52.698C303.496 53.31 303.628 53.844 303.808 54.3C304 54.756 304.252 55.122 304.564 55.398C304.876 55.662 305.26 55.794 305.716 55.794C306.172 55.794 306.556 55.662 306.868 55.398C307.18 55.122 307.426 54.756 307.606 54.3C307.798 53.844 307.93 53.31 308.002 52.698C308.086 52.086 308.128 51.438 308.128 50.754ZM311.7 50.754C311.7 48.666 312.066 47.058 312.798 45.93C313.542 44.802 314.568 44.238 315.876 44.238C317.184 44.238 318.204 44.802 318.936 45.93C319.68 47.058 320.052 48.666 320.052 50.754C320.052 52.842 319.68 54.45 318.936 55.578C318.204 56.706 317.184 57.27 315.876 57.27C314.568 57.27 313.542 56.706 312.798 55.578C312.066 54.45 311.7 52.842 311.7 50.754ZM318.288 50.754C318.288 50.07 318.246 49.422 318.162 48.81C318.09 48.198 317.958 47.664 317.766 47.208C317.586 46.752 317.34 46.392 317.028 46.128C316.716 45.852 316.332 45.714 315.876 45.714C315.42 45.714 315.036 45.852 314.724 46.128C314.412 46.392 314.16 46.752 313.968 47.208C313.788 47.664 313.656 48.198 313.572 48.81C313.5 49.422 313.464 50.07 313.464 50.754C313.464 51.438 313.5 52.086 313.572 52.698C313.656 53.31 313.788 53.844 313.968 54.3C314.16 54.756 314.412 55.122 314.724 55.398C315.036 55.662 315.42 55.794 315.876 55.794C316.332 55.794 316.716 55.662 317.028 55.398C317.34 55.122 317.586 54.756 317.766 54.3C317.958 53.844 318.09 53.31 318.162 52.698C318.246 52.086 318.288 51.438 318.288 50.754ZM326.566 57V43.32L328.24 43.032V47.82C328.552 47.7 328.882 47.61 329.23 47.55C329.59 47.478 329.944 47.442 330.292 47.442C331.036 47.442 331.654 47.55 332.146 47.766C332.638 47.97 333.028 48.264 333.316 48.648C333.616 49.02 333.826 49.47 333.946 49.998C334.066 50.526 334.126 51.108 334.126 51.744V57H332.452V52.104C332.452 51.528 332.41 51.036 332.326 50.628C332.254 50.22 332.128 49.89 331.948 49.638C331.768 49.386 331.528 49.206 331.228 49.098C330.928 48.978 330.556 48.918 330.112 48.918C329.932 48.918 329.746 48.93 329.554 48.954C329.362 48.978 329.176 49.008 328.996 49.044C328.828 49.068 328.672 49.098 328.528 49.134C328.396 49.17 328.3 49.2 328.24 49.224V57H326.566Z" fill="black"/>
</svg>
